WIPSHDC-Old-Traditional-Sans.glyphspackage
{
glyphname = uni35C1;
layers = (
{
layerId = m01;
shapes = (
{
closed = 1;
nodes = (
(94,721,l),
(94,692,l),
(300,692,l),
(300,229,l),
(94,229,l),
(94,199,l),
(330,199,l),
(330,721,l)
);
},
{
closed = 1;
nodes = (
(83,721,l),
(83,113,l),
(113,113,l),
(113,721,l)
);
},
{
closed = 1;
nodes = (
(380,320,l),
(380,290,l),
(950,290,l),
(950,320,l)
);
},
{
closed = 1;
nodes = (
(450,457,l),
(450,427,l),
(883,427,l),
(883,457,l)
);
},
{
closed = 1;
nodes = (
(516,192,l),
(516,163,l),
(834,163,l),
(834,192,l)
);
},
{
closed = 1;
nodes = (
(825,192,l),
(825,186,l),
(812,38,o),
(799,-19,o),
(780,-36,cs),
(772,-43,o),
(764,-44,o),
(743,-44,cs),
(725,-44,o),
(667,-44,o),
(608,-38,c),
(613,-47,o),
(616,-59,o),
(617,-66,c),
(671,-70,o),
(726,-71,o),
(750,-71,cs),
(776,-70,o),
(789,-67,o),
(803,-55,cs),
(826,-33,o),
(839,24,o),
(854,174,cs),
(855,180,o),
(856,192,o),
(856,192,c)
);
},
{
closed = 1;
nodes = (
(542,308,l),
(525,246,o),
(502,166,o),
(481,114,c),
(511,106,l),
(529,160,o),
(554,242,o),
(572,308,c)
);
},
{
closed = 1;
nodes = (
(456,756,l),
(604,756,l),
(604,567,l),
(456,567,l)
);
},
{
closed = 1;
nodes = (
(426,785,l),
(426,537,l),
(633,537,l),
(633,785,l)
);
},
{
closed = 1;
nodes = (
(734,756,l),
(891,756,l),
(891,567,l),
(734,567,l)
);
},
{
closed = 1;
nodes = (
(705,785,l),
(705,537,l),
(920,537,l),
(920,785,l)
);
}
);
vertWidth = 1000;
width = 1000;
},
{
layerId = "94DDBC6A-1627-4027-9125-871D02041BCD";
shapes = (
{
closed = 1;
nodes = (
(137,758,l),
(137,624,l),
(235,624,l),
(235,297,l),
(137,297,l),
(137,163,l),
(363,163,l),
(363,758,l)
);
},
{
closed = 1;
nodes = (
(59,758,l),
(59,87,l),
(187,87,l),
(187,758,l)
);
},
{
closed = 1;
nodes = (
(394,359,l),
(394,242,l),
(975,242,l),
(975,359,l)
);
},
{
closed = 1;
nodes = (
(461,509,l),
(461,394,l),
(907,394,l),
(907,509,l)
);
},
{
closed = 1;
nodes = (
(562,205,l),
(562,92,l),
(824,92,l),
(824,205,l)
);
},
{
closed = 1;
nodes = (
(773,205,l),
(773,189,l),
(767,87,o),
(759,42,o),
(746,29,c),
(737,22,o),
(727,20,o),
(713,20,cs),
(694,20,o),
(657,21,o),
(618,25,c),
(638,-7,o),
(653,-57,o),
(655,-94,c),
(705,-95,o),
(752,-94,o),
(780,-91,cs),
(813,-87,o),
(840,-79,o),
(863,-54,cs),
(889,-27,o),
(901,35,o),
(910,158,cs),
(912,174,o),
(913,205,o),
(913,205,c)
);
},
{
closed = 1;
nodes = (
(517,305,l),
(502,230,o),
(478,140,o),
(456,78,c),
(595,46,l),
(617,114,o),
(644,217,o),
(665,305,c)
);
},
{
closed = 1;
nodes = (
(520,718,l),
(557,718,l),
(557,648,l),
(520,648,l)
);
},
{
closed = 1;
nodes = (
(417,822,l),
(417,544,l),
(667,544,l),
(667,822,l)
);
},
{
closed = 1;
nodes = (
(799,718,l),
(839,718,l),
(839,648,l),
(799,648,l)
);
},
{
closed = 1;
nodes = (
(696,822,l),
(696,544,l),
(949,544,l),
(949,822,l)
);
}
);
vertWidth = 1000;
width = 1000;
}
);
note = cid02919;
unicode = 13761;
}
{
glyphname = uni35D6;
layers = (
{
layerId = m01;
shapes = (
{
closed = 1;
nodes = (
(95,716,l),
(95,687,l),
(290,687,l),
(290,243,l),
(95,243,l),
(95,213,l),
(319,213,l),
(319,716,l)
);
},
{
closed = 1;
nodes = (
(84,716,l),
(84,126,l),
(114,126,l),
(114,716,l)
);
},
{
closed = 1;
nodes = (
(676,418,l),
(676,388,l),
(889,388,l),
(889,418,l)
);
},
{
closed = 1;
nodes = (
(420,215,l),
(420,185,l),
(610,185,l),
(610,215,l)
);
},
{
closed = 1;
nodes = (
(422,7,l),
(422,-22,l),
(890,-22,l),
(890,7,l)
);
},
{
closed = 1;
nodes = (
(689,215,l),
(689,185,l),
(893,185,l),
(893,215,l)
);
},
{
closed = 1;
nodes = (
(611,474,l),
(567,446,o),
(483,414,o),
(412,391,c),
(417,384,o),
(422,375,o),
(425,369,c),
(497,390,o),
(581,422,o),
(638,453,c)
);
},
{
closed = 1;
nodes = (
(404,408,l),
(404,-70,l),
(433,-70,l),
(433,398,l)
);
},
{
closed = 1;
nodes = (
(874,418,l),
(874,-67,l),
(904,-67,l),
(904,418,l)
);
},
{
closed = 1;
nodes = (
(839,830,l),
(753,804,o),
(590,778,o),
(452,762,c),
(456,755,o),
(461,745,o),
(462,738,c),
(603,753,o),
(766,778,o),
(868,809,c)
);
},
{
closed = 1;
nodes = (
(451,770,l),
(427,657,o),
(386,546,o),
(329,471,c),
(338,467,o),
(352,459,o),
(358,455,c),
(412,532,o),
(455,645,o),
(481,765,c)
);
},
{
closed = 1;
nodes = (
(605,711,l),
(623,652,o),
(636,576,o),
(637,527,c),
(668,532,l),
(667,581,o),
(653,657,o),
(633,715,c)
);
},
{
closed = 1;
nodes = (
(792,727,l),
(847,657,o),
(904,559,o),
(928,496,c),
(955,509,l),
(931,572,o),
(872,667,o),
(817,738,c)
);
}
);
vertWidth = 1000;
width = 1000;
},
{
layerId = "94DDBC6A-1627-4027-9125-871D02041BCD";
shapes = (
{
closed = 1;
nodes = (
(130,743,l),
(130,612,l),
(229,612,l),
(229,285,l),
(130,285,l),
(130,153,l),
(351,153,l),
(351,743,l)
);
},
{
closed = 1;
nodes = (
(59,743,l),
(59,72,l),
(180,72,l),
(180,743,l)
);
},
{
closed = 1;
nodes = (
(680,421,l),
(680,300,l),
(847,300,l),
(847,421,l)
);
},
{
closed = 1;
nodes = (
(483,248,l),
(483,131,l),
(650,131,l),
(650,248,l)
);
},
{
closed = 1;
nodes = (
(495,72,l),
(495,-52,l),
(869,-52,l),
(869,72,l)
);
},
{
closed = 1;
nodes = (
(689,248,l),
(689,131,l),
(838,131,l),
(838,248,l)
);
},
{
closed = 1;
nodes = (
(591,471,l),
(553,439,o),
(491,404,o),
(433,381,c),
(449,355,o),
(468,311,o),
(475,284,c),
(545,305,o),
(628,337,o),
(696,376,c)
);
},
{
closed = 1;
nodes = (
(404,427,l),
(404,-94,l),
(542,-94,l),
(542,391,l)
);
},
{
closed = 1;
nodes = (
(806,421,l),
(806,-88,l),
(947,-88,l),
(947,421,l)
);
},
{
closed = 1;
nodes = (
(827,851,l),
(738,819,o),
(597,787,o),
(469,768,c),
(483,741,o),
(501,693,o),
(507,664,c),
(644,681,o),
(806,710,o),
(932,751,c)
);
},
{
closed = 1;
nodes = (
(435,791,l),
(420,677,o),
(384,562,o),
(328,494,c),
(363,479,o),
(429,446,o),
(458,425,c),
(513,505,o),
(557,634,o),
(578,768,c)
);
},
{
closed = 1;
nodes = (
(580,646,l),
(600,591,o),
(617,516,o),
(621,468,c),
(750,503,l),
(743,551,o),
(724,622,o),
(702,677,c)
);
},
{
closed = 1;
nodes = (
(761,677,l),
(804,607,o),
(847,512,o),
(862,450,c),
(986,504,l),
(967,566,o),
(923,655,o),
(877,723,c)
);
}
);
vertWidth = 1000;
width = 1000;
}
);
note = cid02941;
unicode = 13782;
}
{
glyphname = uni37FB;
layers = (
{
layerId = m01;
shapes = (
{
closed = 1;
nodes = (
(70,763,l),
(70,733,l),
(503,733,l),
(503,763,l)
);
},
{
closed = 1;
nodes = (
(274,833,l),
(274,251,l),
(303,251,l),
(303,833,l)
);
},
{
closed = 1;
nodes = (
(122,543,l),
(462,543,l),
(462,469,l),
(122,469,l)
);
},
{
closed = 1;
nodes = (
(122,645,l),
(462,645,l),
(462,573,l),
(122,573,l)
);
},
{
closed = 1;
nodes = (
(92,675,l),
(92,440,l),
(491,440,l),
(491,675,l)
);
},
{
closed = 1;
nodes = (
(54,370,l),
(54,341,l),
(505,341,l),
(505,370,l)
);
},
{
closed = 1;
nodes = (
(484,247,l),
(484,-6,l),
(513,-6,l),
(513,247,l)
);
},
{
closed = 1;
nodes = (
(151,197,l),
(151,-72,l),
(180,-72,l),
(180,197,l)
);
},
{
closed = 1;
nodes = (
(165,9,l),
(165,-21,l),
(842,-21,l),
(842,9,l)
);
},
{
closed = 1;
nodes = (
(827,197,l),
(827,-67,l),
(856,-67,l),
(856,197,l)
);
},
{
closed = 1;
nodes = (
(589,610,l),
(589,581,l),
(951,581,l),
(951,610,l)
);
},
{
closed = 1;
nodes = (
(784,596,l),
(784,244,l),
(814,244,l),
(814,596,l)
);
},
{
closed = 1;
nodes = (
(885,826,l),
(821,797,o),
(689,774,o),
(582,760,c),
(587,753,o),
(592,743,o),
(594,736,c),
(704,749,o),
(836,771,o),
(914,805,c)
);
},
{
closed = 1;
nodes = (
(572,776,l),
(572,576,ls),
(572,479,o),
(556,362,o),
(455,271,c),
(463,266,o),
(472,256,o),
(477,249,c),
(583,348,o),
(601,474,o),
(601,576,cs),
(601,751,l),
(610,752,o),
(614,756,o),
(615,760,c)
);
}
);
vertWidth = 1000;
width = 1000;
},
{
layerId = "94DDBC6A-1627-4027-9125-871D02041BCD";
shapes = (
{
closed = 1;
nodes = (
(45,808,l),
(45,711,l),
(509,711,l),
(509,808,l)
);
},
{
closed = 1;
nodes = (
(211,855,l),
(211,225,l),
(339,225,l),
(339,855,l)
);
},
{
closed = 1;
nodes = (
(165,517,l),
(389,517,l),
(389,494,l),
(165,494,l)
);
},
{
closed = 1;
nodes = (
(165,610,l),
(389,610,l),
(389,588,l),
(165,588,l)
);
},
{
closed = 1;
nodes = (
(56,686,l),
(56,418,l),
(503,418,l),
(503,686,l)
);
},
{
closed = 1;
nodes = (
(32,392,l),
(32,292,l),
(496,292,l),
(496,392,l)
);
},
{
closed = 1;
nodes = (
(420,230,l),
(420,0,l),
(568,0,l),
(568,230,l)
);
},
{
closed = 1;
nodes = (
(112,189,l),
(112,-95,l),
(253,-95,l),
(253,189,l)
);
},
{
closed = 1;
nodes = (
(193,68,l),
(193,-59,l),
(808,-59,l),
(808,68,l)
);
},
{
closed = 1;
nodes = (
(748,190,l),
(748,-94,l),
(890,-94,l),
(890,190,l)
);
},
{
closed = 1;
nodes = (
(608,634,l),
(608,513,l),
(960,513,l),
(960,634,l)
);
},
{
closed = 1;
nodes = (
(740,579,l),
(740,237,l),
(873,237,l),
(873,579,l)
);
},
{
closed = 1;
nodes = (
(854,852,l),
(786,819,o),
(676,786,o),
(575,766,c),
(590,740,o),
(608,695,o),
(614,668,c),
(725,686,o),
(854,715,o),
(955,756,c)
);
},
{
closed = 1;
nodes = (
(552,811,l),
(552,597,ls),
(552,509,o),
(544,394,o),
(467,314,c),
(501,292,o),
(542,250,o),
(561,218,c),
(663,320,o),
(680,488,o),
(680,592,cs),
(680,756,l),
(699,759,o),
(706,765,o),
(708,775,c)
);
}
);
vertWidth = 1000;
width = 1000;
}
);
note = cid03557;
unicode = 14331;
}
{
glyphname = uni3863;
layers = (
{
layerId = m01;
shapes = (
{
closed = 1;
nodes = (
(580,740,l),
(580,711,l),
(943,711,l),
(943,740,l)
);
},
{
closed = 1;
nodes = (
(581,334,l),
(581,305,l),
(900,305,l),
(900,334,l)
);
},
{
closed = 1;
nodes = (
(580,223,l),
(580,193,l),
(894,193,l),
(894,223,l)
);
},
{
closed = 1;
nodes = (
(581,105,l),
(581,76,l),
(904,76,l),
(904,105,l)
);
},
{
closed = 1;
nodes = (
(566,831,l),
(566,588,l),
(595,588,l),
(595,831,l)
);
},
{
closed = 1;
nodes = (
(566,603,l),
(566,573,l),
(872,573,l),
(872,448,l),
(566,448,l),
(566,419,l),
(902,419,l),
(902,603,l)
);
},
{
closed = 1;
nodes = (
(566,427,l),
(566,2,ls),
(566,-55,o),
(587,-65,o),
(663,-65,cs),
(678,-65,o),
(863,-65,o),
(879,-65,cs),
(941,-65,o),
(952,-43,o),
(957,38,c),
(948,40,o),
(935,45,o),
(927,51,c),
(924,-22,o),
(917,-35,o),
(879,-35,cs),
(843,-35,o),
(686,-35,o),
(660,-35,cs),
(604,-35,o),
(595,-27,o),
(595,1,cs),
(595,427,l)
);
},
{
closed = 1;
nodes = (
(55,727,l),
(55,698,l),
(510,698,l),
(510,727,l)
);
},
{
closed = 1;
nodes = (
(262,831,l),
(262,712,l),
(291,712,l),
(291,831,l)
);
},
{
closed = 1;
nodes = (
(262,454,l),
(262,-71,l),
(291,-71,l),
(291,454,l)
);
},
{
closed = 1;
nodes = (
(151,682,l),
(168,637,o),
(184,577,o),
(189,541,c),
(218,551,l),
(213,585,o),
(196,643,o),
(179,688,c)
);
},
{
closed = 1;
nodes = (
(380,692,l),
(370,651,o),
(349,587,o),
(332,549,c),
(358,539,l),
(375,575,o),
(394,633,o),
(411,681,c)
);
},
{
closed = 1;
nodes = (
(55,537,l),
(55,389,l),
(84,389,l),
(84,508,l),
(470,508,l),
(470,389,l),
(499,389,l),
(499,537,l)
);
},
{
closed = 1;
nodes = (
(104,358,l),
(104,45,l),
(133,45,l),
(133,328,l),
(429,328,l),
(429,358,l)
);
},
{
closed = 1;
nodes = (
(416,358,l),
(416,89,ls),
(416,82,o),
(414,80,o),
(405,80,cs),
(396,79,o),
(370,79,o),
(337,80,c),
(341,72,o),
(346,61,o),
(347,53,c),
(388,53,o),
(413,53,o),
(427,58,cs),
(441,64,o),
(445,72,o),
(445,90,cs),
(445,358,l)
);
}
);
vertWidth = 1000;
width = 1000;
},
{
layerId = "94DDBC6A-1627-4027-9125-871D02041BCD";
shapes = (
{
closed = 1;
nodes = (
(587,794,l),
(587,678,l),
(957,678,l),
(957,794,l)
);
},
{
closed = 1;
nodes = (
(587,364,l),
(587,283,l),
(921,283,l),
(921,364,l)
);
},
{
closed = 1;
nodes = (
(596,254,l),
(596,173,l),
(916,173,l),
(916,254,l)
);
},
{
closed = 1;
nodes = (
(579,146,l),
(579,65,l),
(926,65,l),
(926,146,l)
);
},
{
closed = 1;
nodes = (
(533,855,l),
(533,567,l),
(675,567,l),
(675,855,l)
);
},
{
closed = 1;
nodes = (
(533,638,l),
(533,532,l),
(780,532,l),
(780,496,l),
(533,496,l),
(533,390,l),
(919,390,l),
(919,638,l)
);
},
{
closed = 1;
nodes = (
(533,444,l),
(533,71,ls),
(533,-54,o),
(571,-88,o),
(695,-88,cs),
(723,-88,o),
(803,-88,o),
(831,-88,cs),
(930,-88,o),
(967,-54,o),
(982,54,c),
(944,62,o),
(889,82,o),
(860,102,c),
(855,41,o),
(848,27,o),
(817,27,cs),
(798,27,o),
(734,27,o),
(718,27,cs),
(681,27,o),
(675,32,o),
(675,73,cs),
(675,444,l)
);
},
{
closed = 1;
nodes = (
(39,762,l),
(39,645,l),
(512,645,l),
(512,762,l)
);
},
{
closed = 1;
nodes = (
(205,855,l),
(205,711,l),
(334,711,l),
(334,855,l)
);
},
{
closed = 1;
nodes = (
(211,432,l),
(211,-95,l),
(328,-95,l),
(328,432,l)
);
},
{
closed = 1;
nodes = (
(106,639,l),
(117,604,o),
(128,557,o),
(131,528,c),
(243,558,l),
(239,586,o),
(226,631,o),
(212,665,c)
);
},
{
closed = 1;
nodes = (
(327,663,l),
(323,633,o),
(312,592,o),
(302,560,c),
(410,536,l),
(422,568,o),
(437,608,o),
(450,638,c)
);
},
{
closed = 1;
nodes = (
(36,552,l),
(36,376,l),
(150,376,l),
(150,447,l),
(389,447,l),
(389,377,l),
(509,377,l),
(509,552,l)
);
},
{
closed = 1;
nodes = (
(61,354,l),
(61,10,l),
(176,10,l),
(176,240,l),
(416,240,l),
(416,354,l)
);
},
{
closed = 1;
nodes = (
(365,354,l),
(365,131,ls),
(365,124,o),
(363,122,o),
(357,122,cs),
(351,122,o),
(338,122,o),
(326,122,c),
(340,92,o),
(353,46,o),
(356,13,c),
(393,13,o),
(424,15,o),
(451,33,cs),
(478,52,o),
(483,81,o),
(483,129,cs),
(483,354,l)
);
}
);
vertWidth = 1000;
width = 1000;
}
);
note = cid03669;
unicode = 14435;
}
{
glyphname = uni38C3;
layers = (
{
layerId = m01;
shapes = (
{
closed = 1;
nodes = (
(77,337,l),
(77,308,l),
(278,308,l),
(278,337,l)
);
},
{
closed = 1;
nodes = (
(267,337,l),
(267,330,l),
(256,79,o),
(245,-11,o),
(227,-33,cs),
(220,-42,o),
(213,-43,o),
(198,-43,cs),
(184,-43,o),
(145,-43,o),
(103,-39,c),
(108,-48,o),
(111,-59,o),
(112,-68,c),
(147,-71,o),
(185,-71,o),
(203,-71,cs),
(224,-71,o),
(240,-65,o),
(251,-52,cs),
(275,-24,o),
(284,59,o),
(296,318,c),
(296,324,o),
(296,337,o),
(296,337,c)
);
},
{
closed = 1;
nodes = (
(85,538,l),
(79,451,o),
(66,328,o),
(55,257,c),
(83,252,l),
(94,325,o),
(107,447,o),
(115,538,c)
);
},
{
closed = 1;
nodes = (
(102,538,l),
(102,509,l),
(283,509,l),
(283,773,l),
(54,773,l),
(54,744,l),
(254,744,l),
(254,538,l)
);
},
{
closed = 1;
nodes = (
(703,337,l),
(703,308,l),
(920,308,l),
(920,337,l)
);
},
{
closed = 1;
nodes = (
(908,337,l),
(908,330,l),
(896,80,o),
(884,-12,o),
(863,-33,cs),
(855,-41,o),
(848,-44,o),
(832,-44,cs),
(818,-44,o),
(775,-43,o),
(728,-39,c),
(733,-47,o),
(736,-60,o),
(737,-68,c),
(777,-71,o),
(818,-71,o),
(837,-71,cs),
(862,-70,o),
(875,-65,o),
(887,-52,cs),
(913,-24,o),
(923,61,o),
(936,318,c),
(937,324,o),
(937,337,o),
(937,337,c)
);
},
{
closed = 1;
nodes = (
(712,538,l),
(705,451,o),
(690,328,o),
(678,257,c),
(708,252,l),
(719,325,o),
(732,447,o),
(741,538,c)
);
},
{
closed = 1;
nodes = (
(728,538,l),
(728,509,l),
(925,509,l),
(925,773,l),
(685,773,l),
(685,744,l),
(896,744,l),
(896,538,l)
);
},
{
closed = 1;
nodes = (
(483,830,l),
(483,680,l),
(512,680,l),
(512,830,l)
);
},
{
closed = 1;
nodes = (
(318,704,l),
(318,675,l),
(676,675,l),
(676,704,l)
);
},
{
closed = 1;
nodes = (
(445,686,l),
(429,630,o),
(399,550,o),
(376,505,c),
(402,497,l),
(427,544,o),
(454,619,o),
(477,678,c)
);
},
{
closed = 1;
nodes = (
(316,478,l),
(400,483,o),
(509,491,o),
(620,501,c),
(621,528,l),
(504,520,o),
(391,513,o),
(311,509,c)
);
},
{
closed = 1;
nodes = (
(544,612,l),
(585,561,o),
(628,493,o),
(647,446,c),
(674,462,l),
(655,506,o),
(611,574,o),
(570,625,c)
);
},
{
closed = 1;
nodes = (
(364,411,l),
(364,-73,l),
(393,-73,l),
(393,382,l),
(606,382,l),
(606,411,l)
);
},
{
closed = 1;
nodes = (
(378,278,l),
(378,248,l),
(606,248,l),
(606,278,l)
);
},
{
closed = 1;
nodes = (
(378,141,l),
(378,111,l),
(606,111,l),
(606,141,l)
);
},
{
closed = 1;
nodes = (
(595,411,l),
(595,-28,ls),
(595,-38,o),
(591,-42,o),
(581,-42,cs),
(571,-42,o),
(538,-42,o),
(495,-41,c),
(500,-50,o),
(505,-62,o),
(507,-70,c),
(556,-70,o),
(587,-70,o),
(603,-64,cs),
(619,-58,o),
(624,-49,o),
(624,-28,cs),
(624,411,l)
);
}
);
vertWidth = 1000;
width = 1000;
},
{
layerId = "94DDBC6A-1627-4027-9125-871D02041BCD";
shapes = (
{
closed = 1;
nodes = (
(98,388,l),
(98,263,l),
(247,263,l),
(247,388,l)
);
},
{
closed = 1;
nodes = (
(186,388,l),
(186,367,l),
(181,140,o),
(173,56,o),
(159,36,cs),
(152,26,o),
(142,23,o),
(130,23,cs),
(114,23,o),
(87,23,o),
(56,27,c),
(75,-6,o),
(88,-57,o),
(91,-93,c),
(133,-94,o),
(173,-93,o),
(198,-88,cs),
(227,-83,o),
(249,-74,o),
(270,-45,cs),
(295,-11,o),
(304,90,o),
(311,339,c),
(312,354,o),
(313,388,o),
(313,388,c)
);
},
{
closed = 1;
nodes = (
(54,590,l),
(48,477,o),
(35,335,o),
(21,244,c),
(139,232,l),
(151,324,o),
(162,471,o),
(169,590,c)
);
},
{
closed = 1;
nodes = (
(86,590,l),
(86,464,l),
(306,464,l),
(306,819,l),
(34,819,l),
(34,692,l),
(180,692,l),
(180,590,l)
);
},
{
closed = 1;
nodes = (
(750,388,l),
(750,263,l),
(899,263,l),
(899,388,l)
);
},
{
closed = 1;
nodes = (
(844,388,l),
(844,367,l),
(839,141,o),
(829,55,o),
(814,36,cs),
(806,26,o),
(796,23,o),
(783,23,cs),
(766,23,o),
(736,23,o),
(702,27,c),
(721,-6,o),
(735,-58,o),
(737,-94,c),
(782,-95,o),
(823,-95,o),
(849,-90,cs),
(880,-85,o),
(903,-75,o),
(925,-46,cs),
(952,-11,o),
(962,90,o),
(971,338,c),
(971,354,o),
(972,388,o),
(972,388,c)
);
},
{
closed = 1;
nodes = (
(705,590,l),
(699,477,o),
(684,335,o),
(670,244,c),
(788,232,l),
(800,324,o),
(813,471,o),
(820,590,c)
);
},
{
closed = 1;
nodes = (
(738,590,l),
(738,464,l),
(960,464,l),
(960,819,l),
(692,819,l),
(692,692,l),
(834,692,l),
(834,590,l)
);
},
{
closed = 1;
nodes = (
(437,855,l),
(437,706,l),
(566,706,l),
(566,855,l)
);
},
{
closed = 1;
nodes = (
(321,770,l),
(321,657,l),
(677,657,l),
(677,770,l)
);
},
{
closed = 1;
nodes = (
(406,703,l),
(396,648,o),
(375,571,o),
(356,520,c),
(453,494,l),
(476,540,o),
(503,611,o),
(530,677,c)
);
},
{
closed = 1;
nodes = (
(338,452,l),
(419,460,o),
(520,470,o),
(618,481,c),
(616,585,l),
(505,577,o),
(395,570,o),
(317,566,c)
);
},
{
closed = 1;
nodes = (
(526,617,l),
(557,562,o),
(587,488,o),
(597,442,c),
(696,486,l),
(684,533,o),
(650,603,o),
(618,656,c)
);
},
{
closed = 1;
nodes = (
(343,434,l),
(343,-94,l),
(460,-94,l),
(460,331,l),
(588,331,l),
(588,434,l)
);
},
{
closed = 1;
nodes = (
(412,300,l),
(412,209,l),
(582,209,l),
(582,300,l)
);
},
{
closed = 1;
nodes = (
(411,178,l),
(411,84,l),
(581,84,l),
(581,178,l)
);
},
{
closed = 1;
nodes = (
(535,434,l),
(535,31,ls),
(535,23,o),
(533,20,o),
(525,20,cs),
(517,20,o),
(497,20,o),
(478,21,c),
(493,-10,o),
(507,-60,o),
(510,-93,c),
(554,-93,o),
(588,-91,o),
(617,-72,cs),
(646,-52,o),
(652,-20,o),
(652,29,cs),
(652,434,l)
);
}
);
vertWidth = 1000;
width = 1000;
}
);
note = cid03768;
unicode = 14531;
}
{
glyphname = uni399B;
layers = (
{
layerId = m01;
shapes = (
{
closed = 1;
nodes = (
(54,415,l),
(54,385,l),
(950,385,l),
(950,415,l)
);
},
{
closed = 1;
nodes = (
(339,818,l),
(297,800,o),
(224,777,o),
(161,762,c),
(166,754,o),
(171,744,o),
(173,737,c),
(236,752,o),
(311,773,o),
(366,795,c)
);
},
{
closed = 1;
nodes = (
(153,778,l),
(168,397,l),
(197,397,l),
(183,753,l),
(191,754,o),
(196,757,o),
(198,761,c)
);
},
{
closed = 1;
nodes = (
(175,658,l),
(175,628,l),
(352,628,l),
(352,658,l)
);
},
{
closed = 1;
nodes = (
(644,658,l),
(644,628,l),
(825,628,l),
(825,658,l)
);
},
{
closed = 1;
nodes = (
(644,538,l),
(644,509,l),
(821,509,l),
(821,538,l)
);
},
{
closed = 1;
nodes = (
(641,778,l),
(641,749,l),
(831,749,l),
(831,778,l)
);
},
{
closed = 1;
nodes = (
(180,538,l),
(180,509,l),
(352,509,l),
(352,538,l)
);
},
{
closed = 1;
nodes = (
(433,736,l),
(430,707,l),
(606,707,l),
(606,736,l)
);
},
{
closed = 1;
nodes = (
(417,626,l),
(414,597,l),
(563,597,l),
(563,626,l)
);
},
{
closed = 1;
nodes = (
(423,816,l),
(419,739,o),
(409,635,o),
(400,572,c),
(428,569,l),
(437,631,o),
(447,733,o),
(452,813,c)
);
},
{
closed = 1;
nodes = (
(547,626,l),
(547,401,l),
(576,401,l),
(576,626,l)
);
},
{
closed = 1;
nodes = (
(411,541,l),
(411,400,l),
(440,400,l),
(440,541,l)
);
},
{
closed = 1;
nodes = (
(817,778,l),
(815,664,o),
(806,498,o),
(797,406,c),
(827,406,l),
(835,496,o),
(843,661,o),
(846,778,c)
);
},
{
closed = 1;
nodes = (
(320,406,l),
(261,311,o),
(143,220,o),
(37,179,c),
(44,173,o),
(53,162,o),
(59,154,c),
(164,200,o),
(284,294,o),
(345,394,c)
);
},
{
closed = 1;
nodes = (
(654,394,l),
(716,300,o),
(837,207,o),
(940,163,c),
(945,171,o),
(955,180,o),
(962,186,c),
(858,227,o),
(739,315,o),
(679,406,c)
);
},
{
closed = 1;
nodes = (
(329,222,l),
(329,2,ls),
(329,-48,o),
(350,-57,o),
(426,-57,cs),
(442,-57,o),
(610,-57,o),
(627,-57,cs),
(695,-57,o),
(707,-30,o),
(712,83,c),
(703,86,o),
(691,90,o),
(682,97,c),
(678,-13,o),
(671,-27,o),
(625,-27,cs),
(590,-27,o),
(449,-27,o),
(424,-27,cs),
(369,-27,o),
(359,-21,o),
(359,2,cs),
(359,222,l)
);
},
{
closed = 1;
nodes = (
(392,309,l),
(460,272,o),
(536,213,o),
(574,166,c),
(595,187,l),
(557,233,o),
(481,291,o),
(413,327,c)
);
},
{
closed = 1;
nodes = (
(697,202,l),
(773,136,o),
(849,42,o),
(881,-26,c),
(907,-10,l),
(873,60,o),
(796,154,o),
(721,216,c)
);
},
{
closed = 1;
nodes = (
(230,205,l),
(206,103,o),
(155,24,o),
(87,-15,c),
(110,-32,l),
(178,8,o),
(230,90,o),
(255,197,c)
);
}
);
vertWidth = 1000;
width = 1000;
},
{
layerId = "94DDBC6A-1627-4027-9125-871D02041BCD";
shapes = (
{
closed = 1;
nodes = (
(41,463,l),
(41,347,l),
(964,347,l),
(964,463,l)
);
},
{
closed = 1;
nodes = (
(309,856,l),
(273,835,o),
(217,811,o),
(169,793,c),
(180,771,o),
(194,736,o),
(199,715,c),
(253,728,o),
(322,748,o),
(382,772,c)
);
},
{
closed = 1;
nodes = (
(120,823,l),
(135,417,l),
(262,417,l),
(248,781,l),
(266,784,o),
(274,790,o),
(276,799,c)
);
},
{
closed = 1;
nodes = (
(176,701,l),
(176,611,l),
(343,611,l),
(343,701,l)
);
},
{
closed = 1;
nodes = (
(650,701,l),
(650,611,l),
(813,611,l),
(813,701,l)
);
},
{
closed = 1;
nodes = (
(646,582,l),
(646,492,l),
(813,492,l),
(813,582,l)
);
},
{
closed = 1;
nodes = (
(646,825,l),
(646,730,l),
(813,730,l),
(813,825,l)
);
},
{
closed = 1;
nodes = (
(180,582,l),
(180,492,l),
(343,492,l),
(343,582,l)
);
},
{
closed = 1;
nodes = (
(450,803,l),
(442,711,l),
(626,711,l),
(626,803,l)
);
},
{
closed = 1;
nodes = (
(417,680,l),
(409,590,l),
(566,590,l),
(566,680,l)
);
},
{
closed = 1;
nodes = (
(388,852,l),
(386,766,o),
(379,656,o),
(370,586,c),
(481,578,l),
(490,648,o),
(497,757,o),
(502,847,c)
);
},
{
closed = 1;
nodes = (
(504,680,l),
(504,423,l),
(620,423,l),
(620,680,l)
);
},
{
closed = 1;
nodes = (
(366,568,l),
(366,446,l),
(469,446,l),
(469,568,l)
);
},
{
closed = 1;
nodes = (
(742,825,l),
(742,691,o),
(734,527,o),
(723,419,c),
(857,419,l),
(866,523,o),
(872,689,o),
(874,825,c)
);
},
{
closed = 1;
nodes = (
(273,418,l),
(225,334,o),
(130,260,o),
(19,223,c),
(48,198,o),
(88,147,o),
(108,115,c),
(232,166,o),
(331,263,o),
(392,379,c)
);
},
{
closed = 1;
nodes = (
(611,379,l),
(675,270,o),
(777,177,o),
(899,129,c),
(918,162,o),
(959,213,o),
(988,238,c),
(878,273,o),
(779,342,o),
(730,420,c)
);
},
{
closed = 1;
nodes = (
(302,206,l),
(302,68,ls),
(302,-45,o),
(331,-83,o),
(462,-83,cs),
(488,-83,o),
(562,-83,o),
(589,-83,cs),
(684,-83,o),
(721,-53,o),
(736,67,c),
(699,75,o),
(641,95,o),
(615,115,c),
(610,48,o),
(604,38,o),
(575,38,cs),
(555,38,o),
(497,38,o),
(481,38,cs),
(445,38,o),
(439,41,o),
(439,70,cs),
(439,206,l)
);
},
{
closed = 1;
nodes = (
(391,254,l),
(444,217,o),
(507,162,o),
(534,123,c),
(634,205,l),
(603,245,o),
(538,296,o),
(484,329,c)
);
},
{
closed = 1;
nodes = (
(667,150,l),
(728,86,o),
(789,-2,o),
(810,-62,c),
(931,0,l),
(906,64,o),
(841,147,o),
(779,207,c)
);
},
{
closed = 1;
nodes = (
(171,185,l),
(150,114,o),
(108,47,o),
(52,5,c),
(166,-73,l),
(231,-20,o),
(268,60,o),
(293,141,c)
);
}
);
vertWidth = 1000;
width = 1000;
}
);
note = cid03992;
unicode = 14747;
}
{
glyphname = uni3A17;
layers = (
{
layerId = m01;
shapes = (
{
closed = 1;
nodes = (
(613,174,l),
(613,144,l),
(873,144,l),
(873,174,l)
);
},
{
closed = 1;
nodes = (
(407,156,l),
(468,-28,o),
(592,-59,o),
(767,-59,cs),
(905,-59,l),
(951,-59,l),
(952,-51,o),
(958,-37,o),
(964,-29,c),
(936,-29,o),
(786,-29,o),
(768,-29,cs),
(609,-29,o),
(484,-4,o),
(428,168,c)
);
},
{
closed = 1;
nodes = (
(601,314,l),
(601,-25,l),
(631,-35,l),
(631,314,l)
);
},
{
closed = 1;
nodes = (
(422,262,l),
(403,129,o),
(360,20,o),
(282,-49,c),
(290,-54,o),
(302,-65,o),
(307,-70,c),
(381,1,o),
(433,119,o),
(452,259,c)
);
},
{
closed = 1;
nodes = (
(332,472,l),
(332,442,l),
(950,442,l),
(950,472,l)
);
},
{
closed = 1;
nodes = (
(401,612,l),
(401,582,l),
(834,582,l),
(834,320,l),
(401,320,l),
(401,290,l),
(863,290,l),
(863,612,l)
);
},
{
closed = 1;
nodes = (
(617,732,l),
(617,703,l),
(899,703,l),
(899,732,l)
);
},
{
closed = 1;
nodes = (
(601,827,l),
(601,595,l),
(630,595,l),
(630,827,l)
);
},
{
closed = 1;
nodes = (
(47,266,l),
(129,295,o),
(239,335,o),
(345,374,c),
(340,404,l),
(226,363,o),
(110,322,o),
(35,296,c)
);
},
{
closed = 1;
nodes = (
(47,617,l),
(47,587,l),
(348,587,l),
(348,617,l)
);
},
{
closed = 1;
nodes = (
(192,830,l),
(192,-23,ls),
(192,-38,o),
(186,-42,o),
(174,-42,cs),
(162,-43,o),
(120,-43,o),
(69,-42,c),
(74,-51,o),
(79,-64,o),
(81,-70,c),
(143,-71,o),
(177,-70,o),
(194,-65,cs),
(213,-60,o),
(222,-50,o),
(222,-23,cs),
(222,830,l)
);
}
);
vertWidth = 1000;
width = 1000;
},
{
layerId = "94DDBC6A-1627-4027-9125-871D02041BCD";
shapes = (
{
closed = 1;
nodes = (
(621,200,l),
(621,92,l),
(895,92,l),
(895,200,l)
);
},
{
closed = 1;
nodes = (
(403,140,l),
(471,-52,o),
(596,-87,o),
(760,-87,cs),
(893,-87,l),
(937,-87,l),
(942,-52,o),
(959,6,o),
(975,34,c),
(926,32,o),
(805,32,o),
(768,32,cs),
(646,32,o),
(544,47,o),
(495,171,c)
);
},
{
closed = 1;
nodes = (
(575,320,l),
(575,31,l),
(713,-11,l),
(713,320,l)
);
},
{
closed = 1;
nodes = (
(393,234,l),
(378,130,o),
(338,38,o),
(268,-17,c),
(298,-35,o),
(352,-76,o),
(375,-99,c),
(447,-33,o),
(500,79,o),
(524,215,c)
);
},
{
closed = 1;
nodes = (
(344,500,l),
(344,386,l),
(970,386,l),
(970,500,l)
);
},
{
closed = 1;
nodes = (
(404,639,l),
(404,528,l),
(771,528,l),
(771,356,l),
(404,356,l),
(404,245,l),
(912,245,l),
(912,639,l)
);
},
{
closed = 1;
nodes = (
(609,792,l),
(609,683,l),
(905,683,l),
(905,792,l)
);
},
{
closed = 1;
nodes = (
(563,856,l),
(563,586,l),
(701,586,l),
(701,856,l)
);
},
{
closed = 1;
nodes = (
(47,222,l),
(137,246,o),
(247,275,o),
(349,305,c),
(331,435,l),
(218,406,o),
(98,377,o),
(17,361,c)
);
},
{
closed = 1;
nodes = (
(34,672,l),
(34,539,l),
(345,539,l),
(345,672,l)
);
},
{
closed = 1;
nodes = (
(128,854,l),
(128,54,ls),
(128,41,o),
(124,38,o),
(112,38,cs),
(100,37,o),
(67,37,o),
(35,39,c),
(52,0,o),
(68,-60,o),
(71,-96,c),
(137,-96,o),
(183,-91,o),
(217,-68,cs),
(251,-46,o),
(261,-9,o),
(261,54,cs),
(261,854,l)
);
}
);
vertWidth = 1000;
width = 1000;
}
);
note = cid04122;
unicode = 14871;
}
{
glyphname = uni3ABD;
layers = (
{
layerId = m01;
shapes = (
{
closed = 1;
nodes = (
(67,782,l),
(67,753,l),
(936,753,l),
(936,782,l)
);
},
{
closed = 1;
nodes = (
(116,404,l),
(116,375,l),
(375,375,l),
(375,404,l)
);
},
{
closed = 1;
nodes = (
(736,392,l),
(736,-70,l),
(765,-70,l),
(765,392,l)
);
},
{
closed = 1;
nodes = (
(102,614,l),
(102,72,l),
(131,72,l),
(131,585,l),
(360,585,l),
(360,186,l),
(116,186,l),
(116,157,l),
(389,157,l),
(389,614,l)
);
},
{
closed = 1;
nodes = (
(505,406,l),
(505,377,l),
(946,377,l),
(946,406,l)
);
},
{
closed = 1;
nodes = (
(862,685,l),
(777,651,o),
(639,618,o),
(504,600,c),
(508,593,o),
(513,583,o),
(515,576,c),
(652,594,o),
(797,627,o),
(893,663,c)
);
},
{
closed = 1;
nodes = (
(491,609,l),
(491,360,ls),
(491,229,o),
(462,69,o),
(325,-52,c),
(333,-57,o),
(343,-66,o),
(347,-73,c),
(489,54,o),
(520,224,o),
(520,360,cs),
(520,582,l),
(530,583,o),
(534,585,o),
(535,590,c)
);
}
);
vertWidth = 1000;
width = 1000;
},
{
layerId = "94DDBC6A-1627-4027-9125-871D02041BCD";
shapes = (
{
closed = 1;
nodes = (
(53,815,l),
(53,688,l),
(949,688,l),
(949,815,l)
);
},
{
closed = 1;
nodes = (
(139,399,l),
(139,281,l),
(341,281,l),
(341,399,l)
);
},
{
closed = 1;
nodes = (
(716,339,l),
(716,-94,l),
(857,-94,l),
(857,339,l)
);
},
{
closed = 1;
nodes = (
(68,594,l),
(68,22,l),
(199,22,l),
(199,470,l),
(281,470,l),
(281,212,l),
(139,212,l),
(139,88,l),
(412,88,l),
(412,594,l)
);
},
{
closed = 1;
nodes = (
(554,403,l),
(554,279,l),
(965,279,l),
(965,403,l)
);
},
{
closed = 1;
nodes = (
(850,679,l),
(771,639,o),
(641,602,o),
(514,582,c),
(529,553,o),
(546,507,o),
(552,479,c),
(703,499,o),
(858,538,o),
(955,578,c)
);
},
{
closed = 1;
nodes = (
(476,605,l),
(476,339,ls),
(476,229,o),
(463,99,o),
(338,6,c),
(370,-14,o),
(418,-66,o),
(434,-98,c),
(593,17,o),
(614,214,o),
(614,337,cs),
(614,549,l),
(634,552,o),
(643,558,o),
(644,569,c)
);
}
);
vertWidth = 1000;
width = 1000;
}
);
note = cid04296;
unicode = 15037;
}
{
glyphname = uni3B0A;
layers = (
{
layerId = m01;
shapes = (
{
closed = 1;
nodes = (
(186,387,l),
(186,358,l),
(830,358,l),
(830,387,l)
);
},
{
closed = 1;
nodes = (
(64,281,l),
(64,252,l),
(929,252,l),
(929,281,l)
);
},
{
closed = 1;
nodes = (
(769,182,l),
(769,176,l),
(672,47,o),
(427,-25,o),
(222,-50,c),
(228,-57,o),
(234,-68,o),
(236,-77,c),
(446,-47,o),
(695,27,o),
(801,171,c),
(782,184,l),
(775,182,l)
);
},
{
closed = 1;
nodes = (
(342,364,l),
(316,156,o),
(221,27,o),
(51,-55,c),
(59,-60,o),
(69,-68,o),
(74,-74,c),
(246,7,o),
(342,148,o),
(374,360,c)
);
},
{
closed = 1;
nodes = (
(301,164,l),
(421,39,o),
(672,-40,o),
(906,-69,c),
(910,-61,o),
(917,-48,o),
(924,-41,c),
(689,-15,o),
(442,61,o),
(328,179,c)
);
},
{
closed = 1;
nodes = (
(303,182,l),
(294,153,l),
(780,153,l),
(780,182,l)
);
},
{
closed = 1;
nodes = (
(203,674,l),
(808,674,l),
(808,600,l),
(203,600,l)
);
},
{
closed = 1;
nodes = (
(203,775,l),
(808,775,l),
(808,703,l),
(203,703,l)
);
},
{
closed = 1;
nodes = (
(174,804,l),
(174,571,l),
(837,571,l),
(837,804,l)
);
},
{
closed = 1;
nodes = (
(803,552,l),
(689,533,o),
(474,520,o),
(243,514,c),
(247,507,o),
(250,496,o),
(251,488,c),
(477,491,o),
(695,506,o),
(827,528,c)
);
},
{
closed = 1;
nodes = (
(245,523,l),
(216,476,o),
(156,422,o),
(90,384,c),
(97,379,o),
(105,370,o),
(110,363,c),
(177,401,o),
(240,459,o),
(274,514,c)
);
},
{
closed = 1;
nodes = (
(714,487,l),
(770,452,o),
(830,403,o),
(870,361,c),
(898,378,l),
(854,422,o),
(793,470,o),
(740,501,c)
);
},
{
closed = 1;
nodes = (
(455,475,l),
(483,452,o),
(512,420,o),
(530,392,c),
(555,407,l),
(534,438,o),
(505,470,o),
(479,489,c)
);
}
);
vertWidth = 1000;
width = 1000;
},
{
layerId = "94DDBC6A-1627-4027-9125-871D02041BCD";
shapes = (
{
closed = 1;
nodes = (
(168,378,l),
(168,298,l),
(839,298,l),
(839,378,l)
);
},
{
closed = 1;
nodes = (
(49,271,l),
(49,191,l),
(950,191,l),
(950,271,l)
);
},
{
closed = 1;
nodes = (
(712,164,l),
(712,151,l),
(643,56,o),
(452,13,o),
(227,0,c),
(249,-25,o),
(276,-69,o),
(287,-97,c),
(540,-73,o),
(752,-14,o),
(851,134,c),
(763,168,l),
(739,164,l)
);
},
{
closed = 1;
nodes = (
(273,360,l),
(245,195,o),
(169,70,o),
(37,10,c),
(62,-12,o),
(101,-66,o),
(116,-96,c),
(276,-19,o),
(369,123,o),
(406,335,c)
);
},
{
closed = 1;
nodes = (
(294,91,l),
(425,-25,o),
(629,-77,o),
(890,-94,c),
(907,-64,o),
(942,-18,o),
(970,7,c),
(719,14,o),
(510,48,o),
(407,125,c)
);
},
{
closed = 1;
nodes = (
(320,164,l),
(293,90,l),
(757,90,l),
(757,164,l)
);
},
{
closed = 1;
nodes = (
(286,666,l),
(713,666,l),
(713,637,l),
(286,637,l)
);
},
{
closed = 1;
nodes = (
(286,759,l),
(713,759,l),
(713,730,l),
(286,730,l)
);
},
{
closed = 1;
nodes = (
(152,826,l),
(152,570,l),
(853,570,l),
(853,826,l)
);
},
{
closed = 1;
nodes = (
(817,576,l),
(672,553,o),
(440,536,o),
(217,532,c),
(232,510,o),
(244,480,o),
(249,454,c),
(484,457,o),
(732,475,o),
(892,500,c)
);
},
{
closed = 1;
nodes = (
(159,555,l),
(132,509,o),
(82,461,o),
(27,431,c),
(62,407,o),
(102,375,o),
(132,345,c),
(200,388,o),
(262,453,o),
(294,515,c)
);
},
{
closed = 1;
nodes = (
(712,461,l),
(747,435,o),
(785,399,o),
(807,367,c),
(936,412,l),
(907,449,o),
(867,485,o),
(832,505,c)
);
},
{
closed = 1;
nodes = (
(407,451,l),
(423,431,o),
(438,401,o),
(443,371,c),
(580,397,l),
(575,423,o),
(557,452,o),
(537,473,c)
);
}
);
vertWidth = 1000;
width = 1000;
}
);
note = cid04379;
unicode = 15114;
}
{
glyphname = uni3B55;
layers = (
{
layerId = m01;
shapes = (
{
closed = 1;
nodes = (
(396,394,l),
(396,365,l),
(953,365,l),
(953,394,l)
);
},
{
closed = 1;
nodes = (
(448,634,l),
(448,605,l),
(912,605,l),
(912,634,l)
);
},
{
closed = 1;
nodes = (
(663,831,l),
(663,373,l),
(692,373,l),
(692,831,l)
);
},
{
closed = 1;
nodes = (
(768,207,l),
(837,113,o),
(897,5,o),
(924,-74,c),
(951,-59,l),
(924,19,o),
(863,126,o),
(794,219,c)
);
},
{
closed = 1;
nodes = (
(58,607,l),
(58,578,l),
(411,578,l),
(411,607,l)
);
},
{
closed = 1;
nodes = (
(233,830,l),
(233,-68,l),
(262,-68,l),
(262,830,l)
);
},
{
closed = 1;
nodes = (
(230,597,l),
(198,443,o),
(124,272,o),
(38,154,c),
(45,149,o),
(55,139,o),
(60,131,c),
(140,237,o),
(215,414,o),
(256,590,c)
);
},
{
closed = 1;
nodes = (
(238,446,l),
(285,393,o),
(341,322,o),
(383,262,c),
(408,289,l),
(365,342,o),
(307,409,o),
(258,464,c)
);
},
{
closed = 1;
nodes = (
(624,383,l),
(592,266,o),
(538,118,o),
(484,1,c),
(510,-9,l),
(561,103,o),
(615,250,o),
(651,372,c)
);
},
{
closed = 1;
nodes = (
(399,-30,l),
(550,-18,o),
(742,-1,o),
(896,13,c),
(895,40,l),
(737,26,o),
(544,11,o),
(393,0,c)
);
}
);
vertWidth = 1000;
width = 1000;
},
{
layerId = "94DDBC6A-1627-4027-9125-871D02041BCD";
shapes = (
{
closed = 1;
nodes = (
(421,471,l),
(421,339,l),
(975,339,l),
(975,471,l)
);
},
{
closed = 1;
nodes = (
(461,715,l),
(461,586,l),
(939,586,l),
(939,715,l)
);
},
{
closed = 1;
nodes = (
(625,855,l),
(625,382,l),
(770,382,l),
(770,855,l)
);
},
{
closed = 1;
nodes = (
(735,243,l),
(785,147,o),
(827,18,o),
(843,-91,c),
(984,-46,l),
(968,51,o),
(922,178,o),
(864,282,c)
);
},
{
closed = 1;
nodes = (
(41,653,l),
(41,516,l),
(420,516,l),
(420,653,l)
);
},
{
closed = 1;
nodes = (
(168,855,l),
(168,-95,l),
(307,-95,l),
(307,855,l)
);
},
{
closed = 1;
nodes = (
(166,569,l),
(133,423,o),
(74,284,o),
(13,207,c),
(35,170,o),
(67,111,o),
(80,70,c),
(148,163,o),
(212,343,o),
(246,537,c)
);
},
{
closed = 1;
nodes = (
(216,441,l),
(259,380,o),
(313,282,o),
(357,187,c),
(436,301,l),
(391,366,o),
(331,443,o),
(282,501,c)
);
},
{
closed = 1;
nodes = (
(560,382,l),
(546,280,o),
(512,151,o),
(472,48,c),
(604,19,l),
(645,112,o),
(690,242,o),
(721,355,c)
);
},
{
closed = 1;
nodes = (
(424,-67,l),
(594,-42,o),
(781,-12,o),
(908,10,c),
(899,131,l),
(752,112,o),
(557,89,o),
(394,71,c)
);
}
);
vertWidth = 1000;
width = 1000;
}
);
note = cid04457;
unicode = 15189;
}
{
glyphname = uni3B7B;
layers = (
{
layerId = m01;
shapes = (
{
closed = 1;
nodes = (
(785,761,l),
(840,704,o),
(904,626,o),
(933,576,c),
(958,594,l),
(928,643,o),
(865,720,o),
(808,776,c)
);
},
{
closed = 1;
nodes = (
(652,831,l),
(652,518,l),
(681,518,l),
(681,831,l)
);
},
{
closed = 1;
nodes = (
(544,386,l),
(544,64,l),
(573,64,l),
(573,386,l)
);
},
{
closed = 1;
nodes = (
(906,533,l),
(906,-23,ls),
(906,-37,o),
(901,-41,o),
(887,-42,cs),
(871,-43,o),
(821,-43,o),
(757,-42,c),
(762,-51,o),
(767,-64,o),
(769,-71,c),
(844,-71,o),
(887,-71,o),
(907,-65,cs),
(929,-60,o),
(936,-48,o),
(936,-22,cs),
(936,533,l)
);
},
{
closed = 1;
nodes = (
(527,775,l),
(490,706,o),
(434,634,o),
(380,585,c),
(387,581,o),
(400,571,o),
(405,566,c),
(458,618,o),
(516,694,o),
(557,766,c)
);
},
{
closed = 1;
nodes = (
(413,533,l),
(413,-70,l),
(443,-70,l),
(443,504,l),
(918,504,l),
(918,533,l)
);
},
{
closed = 1;
nodes = (
(559,386,l),
(559,357,l),
(776,357,l),
(776,149,l),
(559,149,l),
(559,120,l),
(805,120,l),
(805,386,l)
);
},
{
closed = 1;
nodes = (
(56,608,l),
(56,578,l),
(361,578,l),
(361,608,l)
);
},
{
closed = 1;
nodes = (
(215,831,l),
(215,-70,l),
(244,-70,l),
(244,831,l)
);
},
{
closed = 1;
nodes = (
(209,598,l),
(179,441,o),
(106,252,o),
(39,159,c),
(46,154,o),
(56,143,o),
(62,135,c),
(131,234,o),
(203,433,o),
(235,590,c)
);
},
{
closed = 1;
nodes = (
(220,434,l),
(247,408,o),
(327,314,o),
(349,280,c),
(373,305,l),
(352,330,o),
(263,427,o),
(239,450,c)
);
}
);
vertWidth = 1000;
width = 1000;
},
{
layerId = "94DDBC6A-1627-4027-9125-871D02041BCD";
shapes = (
{
closed = 1;
nodes = (
(739,749,l),
(786,695,o),
(838,620,o),
(859,572,c),
(982,640,l),
(958,690,o),
(902,760,o),
(854,811,c)
);
},
{
closed = 1;
nodes = (
(587,856,l),
(587,478,l),
(734,478,l),
(734,856,l)
);
},
{
closed = 1;
nodes = (
(542,371,l),
(542,42,l),
(645,42,l),
(645,371,l)
);
},
{
closed = 1;
nodes = (
(819,557,l),
(819,48,ls),
(819,35,o),
(814,31,o),
(800,30,cs),
(786,30,o),
(735,30,o),
(697,32,c),
(714,-2,o),
(731,-58,o),
(736,-95,c),
(809,-95,o),
(862,-93,o),
(902,-73,cs),
(942,-52,o),
(954,-17,o),
(954,45,cs),
(954,557,l)
);
},
{
closed = 1;
nodes = (
(452,801,l),
(432,746,o),
(395,685,o),
(354,642,c),
(389,623,o),
(440,590,o),
(469,567,c),
(509,615,o),
(556,694,o),
(585,764,c)
);
},
{
closed = 1;
nodes = (
(376,557,l),
(376,-96,l),
(509,-96,l),
(509,431,l),
(891,431,l),
(891,557,l)
);
},
{
closed = 1;
nodes = (
(577,371,l),
(577,268,l),
(680,268,l),
(680,196,l),
(577,196,l),
(577,93,l),
(786,93,l),
(786,371,l)
);
},
{
closed = 1;
nodes = (
(37,661,l),
(37,531,l),
(357,531,l),
(357,661,l)
);
},
{
closed = 1;
nodes = (
(142,855,l),
(142,-95,l),
(275,-95,l),
(275,855,l)
);
},
{
closed = 1;
nodes = (
(148,564,l),
(127,446,o),
(74,290,o),
(13,197,c),
(34,162,o),
(65,107,o),
(78,67,c),
(150,178,o),
(204,378,o),
(233,536,c)
);
},
{
closed = 1;
nodes = (
(209,413,l),
(241,356,o),
(284,262,o),
(309,198,c),
(380,325,l),
(352,367,o),
(302,437,o),
(267,484,c)
);
}
);
vertWidth = 1000;
width = 1000;
}
);
note = cid04496;
unicode = 15227;
}
{
glyphname = uni3BEC;
layers = (
{
layerId = m01;
shapes = (
{
closed = 1;
nodes = (
(87,766,l),
(87,736,l),
(480,736,l),
(480,766,l)
);
},
{
closed = 1;
nodes = (
(297,830,l),
(297,548,l),
(326,548,l),
(326,830,l)
);
},
{
closed = 1;
nodes = (
(294,754,l),
(245,688,o),
(153,615,o),
(73,578,c),
(79,572,o),
(88,561,o),
(92,553,c),
(170,595,o),
(263,672,o),
(316,740,c)
);
},
{
closed = 1;
nodes = (
(304,711,l),
(351,688,o),
(422,647,o),
(467,617,c),
(486,641,l),
(436,669,o),
(364,707,o),
(322,728,c)
);
},
{
closed = 1;
nodes = (
(508,766,l),
(508,736,l),
(942,736,l),
(942,766,l)
);
},
{
closed = 1;
nodes = (
(683,830,l),
(683,548,l),
(713,548,l),
(713,830,l)
);
},
{
closed = 1;
nodes = (
(670,755,l),
(629,694,o),
(544,629,o),
(464,598,c),
(471,591,o),
(479,581,o),
(483,573,c),
(566,610,o),
(653,680,o),
(694,743,c)
);
},
{
closed = 1;
nodes = (
(700,743,l),
(748,678,o),
(840,606,o),
(923,567,c),
(929,574,o),
(938,584,o),
(945,590,c),
(864,622,o),
(773,690,o),
(723,755,c)
);
},
{
closed = 1;
nodes = (
(314,400,l),
(314,371,l),
(951,371,l),
(951,400,l)
);
},
{
closed = 1;
nodes = (
(397,498,l),
(397,469,l),
(851,469,l),
(851,297,l),
(388,297,l),
(388,268,l),
(880,268,l),
(880,498,l)
);
},
{
closed = 1;
nodes = (
(373,202,l),
(373,173,l),
(899,173,l),
(899,202,l)
);
},
{
closed = 1;
nodes = (
(335,106,l),
(335,77,l),
(940,77,l),
(940,106,l)
);
},
{
closed = 1;
nodes = (
(615,560,l),
(615,-4,l),
(644,-4,l),
(644,560,l)
);
},
{
closed = 1;
nodes = (
(76,522,l),
(76,493,l),
(270,493,l),
(270,522,l)
);
},
{
closed = 1;
nodes = (
(259,522,l),
(259,517,l),
(212,437,o),
(151,342,o),
(101,270,c),
(128,260,l),
(174,325,o),
(238,423,o),
(293,514,c),
(271,525,l),
(264,522,l)
);
},
{
closed = 1;
nodes = (
(159,317,l),
(138,288,l),
(314,288,l),
(314,317,l)
);
},
{
closed = 1;
nodes = (
(300,317,l),
(300,309,l),
(266,132,o),
(183,13,o),
(49,-51,c),
(56,-57,o),
(66,-68,o),
(70,-76,c),
(207,-7,o),
(294,121,o),
(331,311,c),
(313,318,l),
(306,317,l)
);
},
{
closed = 1;
nodes = (
(111,204,l),
(183,-6,o),
(317,-56,o),
(592,-56,cs),
(889,-56,l),
(947,-56,l),
(949,-47,o),
(956,-35,o),
(962,-26,c),
(928,-26,o),
(612,-26,o),
(590,-26,cs),
(336,-26,o),
(202,17,o),
(137,216,c)
);
}
);
vertWidth = 1000;
width = 1000;
},
{
layerId = "94DDBC6A-1627-4027-9125-871D02041BCD";
shapes = (
{
closed = 1;
nodes = (
(42,801,l),
(42,706,l),
(479,706,l),
(479,801,l)
);
},
{
closed = 1;
nodes = (
(206,855,l),
(206,547,l),
(336,547,l),
(336,855,l)
);
},
{
closed = 1;
nodes = (
(198,755,l),
(160,706,o),
(79,654,o),
(13,631,c),
(41,610,o),
(73,573,o),
(92,545,c),
(159,581,o),
(242,646,o),
(284,701,c)
);
},
{
closed = 1;
nodes = (
(248,681,l),
(292,657,o),
(374,605,o),
(410,578,c),
(482,658,l),
(455,672,o),
(348,716,o),
(313,728,c)
);
},
{
closed = 1;
nodes = (
(506,801,l),
(506,706,l),
(957,706,l),
(957,801,l)
);
},
{
closed = 1;
nodes = (
(655,855,l),
(655,556,l),
(785,556,l),
(785,855,l)
);
},
{
closed = 1;
nodes = (
(659,764,l),
(618,712,o),
(529,656,o),
(456,631,c),
(485,611,o),
(519,578,o),
(539,551,c),
(610,587,o),
(699,654,o),
(743,710,c)
);
},
{
closed = 1;
nodes = (
(691,711,l),
(745,653,o),
(837,583,o),
(906,546,c),
(924,572,o),
(959,612,o),
(984,632,c),
(915,659,o),
(826,709,o),
(779,752,c)
);
},
{
closed = 1;
nodes = (
(319,435,l),
(319,358,l),
(972,358,l),
(972,435,l)
);
},
{
closed = 1;
nodes = (
(386,537,l),
(386,455,l),
(759,455,l),
(759,336,l),
(382,336,l),
(382,254,l),
(902,254,l),
(902,537,l)
);
},
{
closed = 1;
nodes = (
(377,233,l),
(377,162,l),
(909,162,l),
(909,233,l)
);
},
{
closed = 1;
nodes = (
(339,137,l),
(339,59,l),
(947,59,l),
(947,137,l)
);
},
{
closed = 1;
nodes = (
(559,568,l),
(559,23,l),
(700,23,l),
(700,568,l)
);
},
{
closed = 1;
nodes = (
(40,539,l),
(40,434,l),
(216,434,l),
(216,539,l)
);
},
{
closed = 1;
nodes = (
(182,539,l),
(182,526,l),
(150,449,o),
(98,343,o),
(48,252,c),
(162,219,l),
(210,308,o),
(265,423,o),
(305,518,c),
(218,544,l),
(199,539,l)
);
},
{
closed = 1;
nodes = (
(138,343,l),
(138,240,l),
(272,240,l),
(272,343,l)
);
},
{
closed = 1;
nodes = (
(228,343,l),
(228,321,l),
(206,157,o),
(140,51,o),
(28,0,c),
(55,-19,o),
(103,-69,o),
(121,-95,c),
(249,-28,o),
(325,111,o),
(352,325,c),
(275,345,l),
(253,343,l)
);
},
{
closed = 1;
nodes = (
(49,188,l),
(147,-58,o),
(329,-94,o),
(591,-94,cs),
(879,-94,l),
(936,-94,l),
(943,-60,o),
(962,-8,o),
(980,18,c),
(900,15,o),
(657,15,o),
(593,15,cs),
(368,15,o),
(208,45,o),
(138,220,c)
);
}
);
vertWidth = 1000;
width = 1000;
}
);
note = cid04619;
unicode = 15340;
}
{
glyphname = uni3CD6;
layers = (
{
layerId = m01;
shapes = (
{
closed = 1;
nodes = (
(87,798,l),
(149,767,o),
(221,719,o),
(258,684,c),
(276,708,l),
(240,743,o),
(168,789,o),
(105,818,c)
);
},
{
closed = 1;
nodes = (
(43,527,l),
(106,500,o),
(180,456,o),
(218,423,c),
(235,448,l),
(198,481,o),
(123,524,o),
(60,549,c)
);
},
{
closed = 1;
nodes = (
(84,-55,l),
(134,35,o),
(200,170,o),
(245,276,c),
(222,294,l),
(174,183,o),
(106,44,o),
(58,-35,c)
);
},
{
closed = 1;
nodes = (
(598,820,l),
(598,613,l),
(627,613,l),
(627,820,l)
);
},
{
closed = 1;
nodes = (
(285,628,l),
(285,599,l),
(947,599,l),
(947,628,l)
);
},
{
closed = 1;
nodes = (
(601,621,l),
(529,467,o),
(407,334,o),
(262,248,c),
(269,242,o),
(281,231,o),
(285,226,c),
(433,318,o),
(556,456,o),
(628,612,c)
);
},
{
closed = 1;
nodes = (
(312,-54,l),
(425,-26,o),
(586,14,o),
(737,52,c),
(735,81,l),
(574,40,o),
(407,0,o),
(301,-23,c)
);
},
{
closed = 1;
nodes = (
(922,482,l),
(859,420,o),
(774,350,o),
(700,300,c),
(717,283,l),
(793,332,o),
(881,402,o),
(945,463,c)
);
},
{
closed = 1;
nodes = (
(611,610,l),
(667,279,o),
(784,40,o),
(937,-56,c),
(943,-48,o),
(952,-38,o),
(960,-32,c),
(808,58,o),
(692,290,o),
(637,615,c)
);
},
{
closed = 1;
nodes = (
(437,387,l),
(437,-4,l),
(466,-4,l),
(466,414,l),
(464,415,l)
);
}
);
vertWidth = 1000;
width = 1000;
},
{
layerId = "94DDBC6A-1627-4027-9125-871D02041BCD";
shapes = (
{
closed = 1;
nodes = (
(75,745,l),
(134,720,o),
(211,676,o),
(246,643,c),
(329,761,l),
(290,793,o),
(212,831,o),
(153,852,c)
);
},
{
closed = 1;
nodes = (
(18,472,l),
(78,447,o),
(156,405,o),
(192,373,c),
(275,493,l),
(235,525,o),
(155,562,o),
(96,582,c)
);
},
{
closed = 1;
nodes = (
(157,-85,l),
(210,16,o),
(262,127,o),
(308,235,c),
(195,323,l),
(142,203,o),
(75,79,o),
(28,2,c)
);
},
{
closed = 1;
nodes = (
(557,841,l),
(557,625,l),
(704,625,l),
(704,841,l)
);
},
{
closed = 1;
nodes = (
(304,699,l),
(304,564,l),
(953,564,l),
(953,699,l)
);
},
{
closed = 1;
nodes = (
(560,641,l),
(496,516,o),
(376,405,o),
(247,342,c),
(275,313,o),
(322,249,o),
(341,218,c),
(481,302,o),
(617,440,o),
(699,595,c)
);
},
{
closed = 1;
nodes = (
(345,-80,l),
(454,-57,o),
(596,-26,o),
(727,5,c),
(713,135,l),
(567,105,o),
(410,75,o),
(305,58,c)
);
},
{
closed = 1;
nodes = (
(873,503,l),
(826,444,o),
(746,368,o),
(688,325,c),
(769,240,l),
(831,279,o),
(909,343,o),
(981,400,c)
);
},
{
closed = 1;
nodes = (
(594,591,l),
(637,289,o),
(709,49,o),
(893,-86,c),
(916,-46,o),
(962,11,o),
(996,39,c),
(832,144,o),
(759,364,o),
(726,610,c)
);
},
{
closed = 1;
nodes = (
(407,336,l),
(407,10,l),
(545,10,l),
(545,473,l),
(545,474,l)
);
}
);
vertWidth = 1000;
width = 1000;
}
);
note = cid04862;
unicode = 15574;
}
{
glyphname = uni3E74;
layers = (
{
layerId = m01;
shapes = (
{
closed = 1;
nodes = (
(72,800,l),
(256,643,o),
(278,473,o),
(278,294,cs),
(278,151,o),
(267,20,o),
(235,-20,c),
(227,-32,o),
(216,-37,o),
(200,-39,cs),
(174,-42,o),
(128,-42,o),
(78,-38,c),
(84,-47,o),
(89,-60,o),
(90,-69,c),
(130,-71,o),
(172,-71,o),
(204,-67,cs),
(230,-65,o),
(246,-57,o),
(258,-40,cs),
(296,11,o),
(307,139,o),
(307,294,cs),
(307,479,o),
(284,657,o),
(92,817,c)
);
},
{
closed = 1;
nodes = (
(271,475,l),
(223,373,o),
(126,259,o),
(40,204,c),
(48,197,o),
(57,186,o),
(61,179,c),
(148,241,o),
(244,357,o),
(294,462,c)
);
},
{
closed = 1;
nodes = (
(325,829,l),
(268,731,o),
(158,617,o),
(47,536,c),
(54,531,o),
(63,523,o),
(68,519,c),
(180,603,o),
(287,711,o),
(350,815,c)
);
},
{
closed = 1;
nodes = (
(428,442,l),
(882,442,l),
(882,309,l),
(428,309,l)
);
},
{
closed = 1;
nodes = (
(428,603,l),
(882,603,l),
(882,472,l),
(428,472,l)
);
},
{
closed = 1;
nodes = (
(399,632,l),
(399,279,l),
(912,279,l),
(912,632,l)
);
},
{
closed = 1;
nodes = (
(367,771,l),
(367,742,l),
(944,742,l),
(944,771,l)
);
},
{
closed = 1;
nodes = (
(437,235,l),
(512,58,o),
(694,-38,o),
(942,-70,c),
(946,-62,o),
(953,-51,o),
(960,-45,c),
(713,-17,o),
(533,77,o),
(462,244,c)
);
},
{
closed = 1;
nodes = (
(634,765,l),
(634,387,ls),
(634,227,o),
(624,48,o),
(322,-46,c),
(327,-52,o),
(334,-64,o),
(338,-70,c),
(648,31,o),
(664,218,o),
(664,387,cs),
(664,765,l)
);
}
);
vertWidth = 1000;
width = 1000;
},
{
layerId = "94DDBC6A-1627-4027-9125-871D02041BCD";
shapes = (
{
closed = 1;
nodes = (
(22,777,l),
(186,644,o),
(216,498,o),
(216,308,cs),
(216,188,o),
(208,89,o),
(188,63,cs),
(180,52,o),
(171,46,o),
(156,44,cs),
(135,42,o),
(100,41,o),
(48,45,c),
(73,4,o),
(86,-47,o),
(86,-94,c),
(138,-96,o),
(183,-95,o),
(225,-83,cs),
(251,-76,o),
(275,-61,o),
(293,-38,cs),
(342,29,o),
(353,167,o),
(353,305,cs),
(353,506,o),
(326,693,o),
(123,855,c)
);
},
{
closed = 1;
nodes = (
(228,488,l),
(184,402,o),
(93,302,o),
(13,252,c),
(47,226,o),
(87,179,o),
(110,145,c),
(191,212,o),
(285,328,o),
(335,424,c)
);
},
{
closed = 1;
nodes = (
(262,845,l),
(206,734,o),
(112,615,o),
(12,546,c),
(43,523,o),
(90,479,o),
(112,450,c),
(216,529,o),
(318,651,o),
(391,781,c)
);
},
{
closed = 1;
nodes = (
(522,416,l),
(800,416,l),
(800,377,l),
(522,377,l)
);
},
{
closed = 1;
nodes = (
(522,549,l),
(800,549,l),
(800,511,l),
(522,511,l)
);
},
{
closed = 1;
nodes = (
(390,652,l),
(390,274,l),
(939,274,l),
(939,652,l)
);
},
{
closed = 1;
nodes = (
(375,821,l),
(375,694,l),
(956,694,l),
(956,821,l)
);
},
{
closed = 1;
nodes = (
(408,234,l),
(497,36,o),
(633,-60,o),
(900,-93,c),
(918,-54,o),
(954,6,o),
(984,36,c),
(742,53,o),
(602,121,o),
(536,260,c)
);
},
{
closed = 1;
nodes = (
(591,735,l),
(591,329,ls),
(591,187,o),
(561,63,o),
(308,18,c),
(336,-10,o),
(377,-66,o),
(393,-96,c),
(657,-20,o),
(729,141,o),
(729,327,cs),
(729,735,l)
);
}
);
vertWidth = 1000;
width = 1000;
}
);
note = cid05319;
unicode = 15988;
}
{
glyphname = uni4102;
layers = (
{
layerId = m01;
shapes = (
{
closed = 1;
nodes = (
(477,317,l),
(477,288,l),
(910,288,l),
(910,317,l)
);
},
{
closed = 1;
nodes = (
(463,611,l),
(463,-70,l),
(492,-70,l),
(492,582,l),
(895,582,l),
(895,-63,l),
(924,-63,l),
(924,611,l)
);
},
{
closed = 1;
nodes = (
(675,830,l),
(675,-3,l),
(705,-3,l),
(705,830,l)
);
},
{
closed = 1;
nodes = (
(477,12,l),
(477,-17,l),
(910,-17,l),
(910,12,l)
);
},
{
closed = 1;
nodes = (
(57,559,l),
(57,529,l),
(411,529,l),
(411,559,l)
);
},
{
closed = 1;
nodes = (
(87,762,l),
(87,732,l),
(388,732,l),
(388,762,l)
);
},
{
closed = 1;
nodes = (
(352,437,l),
(352,71,l),
(381,71,l),
(381,437,l)
);
},
{
closed = 1;
nodes = (
(220,551,l),
(220,-71,l),
(249,-71,l),
(249,551,l)
);
},
{
closed = 1;
nodes = (
(86,437,l),
(86,318,ls),
(86,224,o),
(82,113,o),
(50,28,c),
(58,25,o),
(70,17,o),
(76,10,c),
(110,102,o),
(116,215,o),
(116,318,cs),
(116,437,l)
);
}
);
vertWidth = 1000;
width = 1000;
},
{
layerId = "94DDBC6A-1627-4027-9125-871D02041BCD";
shapes = (
{
closed = 1;
nodes = (
(517,388,l),
(517,257,l),
(883,257,l),
(883,388,l)
);
},
{
closed = 1;
nodes = (
(445,666,l),
(445,-80,l),
(577,-80,l),
(577,535,l),
(823,535,l),
(823,-73,l),
(962,-73,l),
(962,666,l)
);
},
{
closed = 1;
nodes = (
(629,846,l),
(629,91,l),
(766,91,l),
(766,846,l)
);
},
{
closed = 1;
nodes = (
(517,107,l),
(517,-27,l),
(883,-27,l),
(883,107,l)
);
},
{
closed = 1;
nodes = (
(38,596,l),
(38,469,l),
(426,469,l),
(426,596,l)
);
},
{
closed = 1;
nodes = (
(62,794,l),
(62,668,l),
(414,668,l),
(414,794,l)
);
},
{
closed = 1;
nodes = (
(326,432,l),
(326,85,l),
(423,85,l),
(423,432,l)
);
},
{
closed = 1;
nodes = (
(174,531,l),
(174,-95,l),
(300,-95,l),
(300,531,l)
);
},
{
closed = 1;
nodes = (
(52,430,l),
(52,312,ls),
(52,229,o),
(47,129,o),
(15,49,c),
(41,35,o),
(81,4,o),
(99,-16,c),
(143,81,o),
(149,205,o),
(149,310,cs),
(149,430,l)
);
}
);
vertWidth = 1000;
width = 1000;
}
);
note = cid06015;
unicode = 16642;
}
{
glyphname = uni41CA;
layers = (
{
layerId = m01;
shapes = (
{
closed = 1;
nodes = (
(54,619,l),
(54,589,l),
(380,589,l),
(380,619,l)
);
},
{
closed = 1;
nodes = (
(204,820,l),
(204,604,l),
(234,604,l),
(234,820,l)
);
},
{
closed = 1;
nodes = (
(55,67,l),
(138,97,o),
(275,147,o),
(407,195,c),
(402,223,l),
(264,173,o),
(126,124,o),
(44,96,c)
);
},
{
closed = 1;
nodes = (
(98,535,l),
(122,418,o),
(139,269,o),
(139,171,c),
(168,174,l),
(168,273,o),
(151,422,o),
(126,539,c)
);
},
{
closed = 1;
nodes = (
(305,549,l),
(293,433,o),
(266,258,o),
(243,160,c),
(268,152,l),
(291,251,o),
(318,421,o),
(336,541,c)
);
},
{
closed = 1;
nodes = (
(678,830,l),
(678,658,l),
(708,658,l),
(708,830,l)
);
},
{
closed = 1;
nodes = (
(469,674,l),
(469,645,l),
(943,645,l),
(943,674,l)
);
},
{
closed = 1;
nodes = (
(458,674,l),
(458,480,ls),
(458,327,o),
(444,115,o),
(334,-42,c),
(341,-44,o),
(353,-53,o),
(358,-59,c),
(471,101,o),
(487,323,o),
(487,480,cs),
(487,674,l)
);
},
{
closed = 1;
nodes = (
(672,560,l),
(647,397,o),
(598,153,o),
(557,17,c),
(582,8,l),
(624,147,o),
(673,385,o),
(704,552,c)
);
},
{
closed = 1;
nodes = (
(495,-12,l),
(601,-1,o),
(750,16,o),
(895,32,c),
(895,59,l),
(743,42,o),
(589,27,o),
(489,18,c)
);
},
{
closed = 1;
nodes = (
(772,277,l),
(837,166,o),
(902,18,o),
(925,-71,c),
(952,-56,l),
(929,31,o),
(864,177,o),
(798,288,c)
);
}
);
vertWidth = 1000;
width = 1000;
},
{
layerId = "94DDBC6A-1627-4027-9125-871D02041BCD";
shapes = (
{
closed = 1;
nodes = (
(36,671,l),
(36,542,l),
(383,542,l),
(383,671,l)
);
},
{
closed = 1;
nodes = (
(148,839,l),
(148,609,l),
(277,609,l),
(277,839,l)
);
},
{
closed = 1;
nodes = (
(66,28,l),
(155,54,o),
(278,92,o),
(385,127,c),
(366,249,l),
(246,215,o),
(115,180,o),
(25,159,c)
);
},
{
closed = 1;
nodes = (
(54,501,l),
(70,411,o),
(81,294,o),
(79,217,c),
(192,238,l),
(191,315,o),
(179,430,o),
(159,521,c)
);
},
{
closed = 1;
nodes = (
(241,527,l),
(235,426,o),
(217,288,o),
(197,200,c),
(300,175,l),
(324,257,o),
(351,388,o),
(373,502,c)
);
},
{
closed = 1;
nodes = (
(640,848,l),
(640,632,l),
(781,632,l),
(781,848,l)
);
},
{
closed = 1;
nodes = (
(506,717,l),
(506,586,l),
(966,586,l),
(966,717,l)
);
},
{
closed = 1;
nodes = (
(429,717,l),
(429,515,ls),
(429,362,o),
(420,136,o),
(306,-17,c),
(339,-31,o),
(397,-70,o),
(422,-92,c),
(542,74,o),
(563,342,o),
(563,514,cs),
(563,717,l)
);
},
{
closed = 1;
nodes = (
(658,573,l),
(646,407,o),
(613,188,o),
(577,46,c),
(695,25,l),
(736,159,o),
(780,370,o),
(808,554,c)
);
},
{
closed = 1;
nodes = (
(542,-40,l),
(640,-28,o),
(763,-13,o),
(881,4,c),
(879,126,l),
(745,116,o),
(607,106,o),
(516,101,c)
);
},
{
closed = 1;
nodes = (
(772,272,l),
(809,159,o),
(844,0,o),
(853,-90,c),
(984,-48,l),
(972,45,o),
(932,192,o),
(892,306,c)
);
}
);
vertWidth = 1000;
width = 1000;
}
);
note = cid06227;
unicode = 16842;
}
{
glyphname = uni42A2;
layers = (
{
layerId = m01;
shapes = (
{
closed = 1;
nodes = (
(300,831,l),
(300,271,l),
(329,271,l),
(329,831,l)
);
},
{
closed = 1;
nodes = (
(50,524,l),
(50,495,l),
(316,495,l),
(316,524,l)
);
},
{
closed = 1;
nodes = (
(379,514,l),
(379,484,l),
(940,484,l),
(940,514,l)
);
},
{
closed = 1;
nodes = (
(143,518,l),
(136,409,o),
(112,326,o),
(38,280,c),
(45,277,o),
(55,267,o),
(60,261,c),
(138,311,o),
(166,399,o),
(174,518,c)
);
},
{
closed = 1;
nodes = (
(640,833,l),
(589,785,o),
(494,736,o),
(372,702,c),
(379,697,o),
(389,688,o),
(394,681,c),
(520,720,o),
(615,769,o),
(675,826,c)
);
},
{
closed = 1;
nodes = (
(589,787,l),
(560,758,l),
(859,758,l),
(859,787,l)
);
},
{
closed = 1;
nodes = (
(850,787,l),
(850,780,l),
(777,649,o),
(574,591,o),
(383,572,c),
(389,564,o),
(396,552,o),
(399,544,c),
(598,569,o),
(802,630,o),
(883,777,c),
(864,789,l),
(858,787,l)
);
},
{
closed = 1;
nodes = (
(765,597,l),
(765,316,ls),
(765,305,o),
(763,302,o),
(750,301,cs),
(736,300,o),
(699,300,o),
(644,301,c),
(649,292,o),
(655,281,o),
(657,272,c),
(716,272,o),
(752,272,o),
(770,278,cs),
(789,283,o),
(794,293,o),
(794,316,cs),
(794,597,l)
);
},
{
closed = 1;
nodes = (
(457,441,l),
(508,412,o),
(567,363,o),
(595,328,c),
(621,347,l),
(592,380,o),
(532,427,o),
(480,457,c)
);
},
{
closed = 1;
nodes = (
(554,752,l),
(609,718,o),
(675,668,o),
(710,636,c),
(731,657,l),
(697,689,o),
(629,737,o),
(575,769,c)
);
},
{
closed = 1;
nodes = (
(459,711,l),
(509,675,o),
(570,625,o),
(601,593,c),
(623,613,l),
(591,645,o),
(530,693,o),
(480,727,c)
);
},
{
closed = 1;
nodes = (
(117,805,l),
(117,613,l),
(317,613,l),
(317,642,l),
(146,642,l),
(146,805,l)
);
},
{
closed = 1;
nodes = (
(61,149,l),
(61,120,l),
(939,120,l),
(939,149,l)
);
},
{
closed = 1;
nodes = (
(482,278,l),
(482,-70,l),
(512,-70,l),
(512,278,l)
);
},
{
closed = 1;
nodes = (
(457,142,l),
(371,60,o),
(194,-6,o),
(44,-32,c),
(52,-39,o),
(60,-50,o),
(65,-59,c),
(212,-27,o),
(392,41,o),
(482,128,c)
);
},
{
closed = 1;
nodes = (
(517,127,l),
(608,44,o),
(788,-28,o),
(933,-60,c),
(938,-51,o),
(947,-40,o),
(955,-33,c),
(807,-6,o),
(629,63,o),
(542,141,c)
);
},
{
closed = 1;
nodes = (
(740,260,l),
(721,232,o),
(684,188,o),
(657,162,c),
(679,150,l),
(706,175,o),
(740,211,o),
(767,245,c)
);
},
{
closed = 1;
nodes = (
(242,244,l),
(273,215,o),
(304,175,o),
(318,146,c),
(343,161,l),
(328,190,o),
(295,229,o),
(263,257,c)
);
}
);
vertWidth = 1000;
width = 1000;
},
{
layerId = "94DDBC6A-1627-4027-9125-871D02041BCD";
shapes = (
{
closed = 1;
nodes = (
(253,855,l),
(253,270,l),
(381,270,l),
(381,855,l)
);
},
{
closed = 1;
nodes = (
(41,570,l),
(41,462,l),
(312,462,l),
(312,570,l)
);
},
{
closed = 1;
nodes = (
(402,534,l),
(402,435,l),
(961,435,l),
(961,534,l)
);
},
{
closed = 1;
nodes = (
(100,521,l),
(97,440,o),
(90,384,o),
(20,350,c),
(45,330,o),
(76,287,o),
(88,259,c),
(194,312,o),
(213,400,o),
(218,521,c)
);
},
{
closed = 1;
nodes = (
(611,856,l),
(566,808,o),
(486,765,o),
(370,735,c),
(394,718,o),
(429,679,o),
(445,653,c),
(574,698,o),
(662,753,o),
(730,832,c)
);
},
{
closed = 1;
nodes = (
(601,807,l),
(529,735,l),
(849,735,l),
(849,807,l)
);
},
{
closed = 1;
nodes = (
(807,807,l),
(807,793,l),
(747,679,o),
(590,627,o),
(399,611,c),
(418,588,o),
(442,548,o),
(453,520,c),
(673,549,o),
(846,611,o),
(929,778,c),
(853,811,l),
(831,807,l)
);
},
{
closed = 1;
nodes = (
(733,593,l),
(733,391,ls),
(733,381,o),
(729,378,o),
(718,378,cs),
(707,378,o),
(669,378,o),
(640,379,c),
(655,350,o),
(674,304,o),
(680,271,c),
(737,270,o),
(780,272,o),
(817,289,cs),
(854,306,o),
(863,333,o),
(863,387,cs),
(863,593,l)
);
},
{
closed = 1;
nodes = (
(447,394,l),
(484,367,o),
(529,322,o),
(551,290,c),
(647,358,l),
(625,388,o),
(580,428,o),
(539,454,c)
);
},
{
closed = 1;
nodes = (
(562,719,l),
(601,696,o),
(652,662,o),
(677,640,c),
(737,690,l),
(710,712,o),
(658,744,o),
(620,764,c)
);
},
{
closed = 1;
nodes = (
(462,676,l),
(497,651,o),
(542,614,o),
(563,591,c),
(625,638,l),
(602,662,o),
(556,696,o),
(522,719,c)
);
},
{
closed = 1;
nodes = (
(85,822,l),
(85,599,l),
(331,599,l),
(331,705,l),
(200,705,l),
(200,822,l)
);
},
{
closed = 1;
nodes = (
(51,178,l),
(51,78,l),
(952,78,l),
(952,178,l)
);
},
{
closed = 1;
nodes = (
(429,279,l),
(429,-95,l),
(568,-95,l),
(568,279,l)
);
},
{
closed = 1;
nodes = (
(404,137,l),
(326,77,o),
(172,34,o),
(22,17,c),
(47,-8,o),
(81,-56,o),
(98,-86,c),
(252,-57,o),
(405,8,o),
(495,99,c)
);
},
{
closed = 1;
nodes = (
(509,102,l),
(596,4,o),
(745,-58,o),
(904,-84,c),
(921,-51,o),
(955,-1,o),
(982,25,c),
(825,37,o),
(673,73,o),
(595,133,c)
);
},
{
closed = 1;
nodes = (
(694,277,l),
(681,251,o),
(657,214,o),
(637,187,c),
(732,158,l),
(756,180,o),
(786,211,o),
(817,246,c)
);
},
{
closed = 1;
nodes = (
(204,243,l),
(226,216,o),
(248,178,o),
(256,152,c),
(358,188,l),
(348,213,o),
(325,248,o),
(301,272,c)
);
}
);
vertWidth = 1000;
width = 1000;
}
);
note = cid06456;
unicode = 17058;
}
{
glyphname = uni44A2;
layers = (
{
layerId = m01;
shapes = (
{
closed = 1;
nodes = (
(69,744,l),
(69,715,l),
(938,715,l),
(938,744,l)
);
},
{
closed = 1;
nodes = (
(319,830,l),
(319,596,l),
(348,596,l),
(348,830,l)
);
},
{
closed = 1;
nodes = (
(646,830,l),
(646,596,l),
(675,596,l),
(675,830,l)
);
},
{
closed = 1;
nodes = (
(526,504,l),
(526,-69,l),
(556,-69,l),
(556,475,l),
(867,475,l),
(867,504,l)
);
},
{
closed = 1;
nodes = (
(852,504,l),
(852,105,ls),
(852,92,o),
(848,88,o),
(831,87,cs),
(815,86,o),
(761,86,o),
(689,87,c),
(694,78,o),
(699,67,o),
(701,59,c),
(784,59,o),
(830,58,o),
(853,64,cs),
(874,70,o),
(881,82,o),
(881,106,cs),
(881,504,l)
);
},
{
closed = 1;
nodes = (
(64,44,l),
(166,68,o),
(313,101,o),
(454,133,c),
(451,161,l),
(303,128,o),
(153,94,o),
(56,75,c)
);
},
{
closed = 1;
nodes = (
(135,485,l),
(135,78,l),
(165,78,l),
(165,476,l)
);
},
{
closed = 1;
nodes = (
(422,562,l),
(357,533,o),
(239,497,o),
(139,472,c),
(144,465,o),
(149,455,o),
(151,448,c),
(252,473,o),
(370,507,o),
(448,540,c)
);
}
);
vertWidth = 1000;
width = 1000;
},
{
layerId = "94DDBC6A-1627-4027-9125-871D02041BCD";
shapes = (
{
closed = 1;
nodes = (
(53,798,l),
(53,671,l),
(945,671,l),
(945,798,l)
);
},
{
closed = 1;
nodes = (
(262,855,l),
(262,598,l),
(405,598,l),
(405,855,l)
);
},
{
closed = 1;
nodes = (
(593,855,l),
(593,598,l),
(738,598,l),
(738,855,l)
);
},
{
closed = 1;
nodes = (
(495,538,l),
(495,-95,l),
(638,-95,l),
(638,407,l),
(843,407,l),
(843,538,l)
);
},
{
closed = 1;
nodes = (
(776,538,l),
(776,174,ls),
(776,162,o),
(771,159,o),
(757,159,cs),
(744,159,o),
(693,159,o),
(658,161,c),
(676,123,o),
(694,63,o),
(699,22,c),
(770,22,o),
(824,24,o),
(867,46,cs),
(910,68,o),
(922,106,o),
(922,171,cs),
(922,538,l)
);
},
{
closed = 1;
nodes = (
(64,-14,l),
(181,9,o),
(334,38,o),
(475,68,c),
(464,200,l),
(312,172,o),
(147,143,o),
(37,128,c)
);
},
{
closed = 1;
nodes = (
(103,513,l),
(103,100,l),
(247,100,l),
(247,491,l)
);
},
{
closed = 1;
nodes = (
(361,594,l),
(310,559,o),
(226,518,o),
(148,490,c),
(165,463,o),
(187,415,o),
(194,386,c),
(287,413,o),
(397,452,o),
(487,496,c)
);
}
);
vertWidth = 1000;
width = 1000;
}
);
note = cid07005;
unicode = 17570;
}
{
glyphname = uni453B;
layers = (
{
layerId = m01;
shapes = (
{
closed = 1;
nodes = (
(61,755,l),
(61,726,l),
(939,726,l),
(939,755,l)
);
},
{
closed = 1;
nodes = (
(314,830,l),
(314,640,l),
(343,640,l),
(343,830,l)
);
},
{
closed = 1;
nodes = (
(652,830,l),
(652,640,l),
(681,640,l),
(681,830,l)
);
},
{
closed = 1;
nodes = (
(284,625,l),
(284,538,l),
(313,538,l),
(313,625,l)
);
},
{
closed = 1;
nodes = (
(54,553,l),
(54,524,l),
(535,524,l),
(535,553,l)
);
},
{
closed = 1;
nodes = (
(128,472,l),
(128,318,l),
(455,318,l),
(455,472,l)
);
},
{
closed = 1;
nodes = (
(157,443,l),
(426,443,l),
(426,347,l),
(157,347,l)
);
},
{
closed = 1;
nodes = (
(104,266,l),
(104,237,l),
(438,237,l),
(438,266,l)
);
},
{
closed = 1;
nodes = (
(434,266,l),
(434,259,l),
(407,231,o),
(349,197,o),
(283,170,c),
(289,166,o),
(297,157,o),
(300,150,c),
(368,178,o),
(434,218,o),
(471,254,c),
(449,268,l),
(443,266,l)
);
},
{
closed = 1;
nodes = (
(276,175,l),
(276,-30,ls),
(276,-41,o),
(273,-44,o),
(260,-45,cs),
(248,-46,o),
(206,-46,o),
(152,-44,c),
(156,-53,o),
(161,-62,o),
(163,-71,c),
(228,-71,o),
(264,-71,o),
(283,-65,cs),
(300,-60,o),
(305,-51,o),
(305,-30,cs),
(305,175,l)
);
},
{
closed = 1;
nodes = (
(67,71,l),
(195,80,o),
(367,92,o),
(514,103,c),
(514,132,l),
(359,120,o),
(185,109,o),
(63,102,c)
);
},
{
closed = 1;
nodes = (
(625,488,l),
(625,459,l),
(939,459,l),
(939,488,l)
);
},
{
closed = 1;
nodes = (
(655,627,l),
(623,493,o),
(572,362,o),
(503,275,c),
(512,271,o),
(525,262,o),
(531,257,c),
(597,347,o),
(651,480,o),
(685,621,c)
);
},
{
closed = 1;
nodes = (
(857,481,l),
(803,225,o),
(682,50,o),
(491,-46,c),
(498,-53,o),
(508,-66,o),
(512,-73,c),
(709,36,o),
(833,218,o),
(886,475,c)
);
},
{
closed = 1;
nodes = (
(599,437,l),
(654,204,o),
(768,11,o),
(938,-72,c),
(944,-65,o),
(953,-54,o),
(961,-48,c),
(790,28,o),
(677,219,o),
(625,444,c)
);
}
);
vertWidth = 1000;
width = 1000;
},
{
layerId = "94DDBC6A-1627-4027-9125-871D02041BCD";
shapes = (
{
closed = 1;
nodes = (
(51,806,l),
(51,685,l),
(952,685,l),
(952,806,l)
);
},
{
closed = 1;
nodes = (
(262,855,l),
(262,639,l),
(406,639,l),
(406,855,l)
);
},
{
closed = 1;
nodes = (
(593,855,l),
(593,634,l),
(738,634,l),
(738,855,l)
);
},
{
closed = 1;
nodes = (
(224,632,l),
(224,533,l),
(353,533,l),
(353,632,l)
);
},
{
closed = 1;
nodes = (
(37,583,l),
(37,484,l),
(542,484,l),
(542,583,l)
);
},
{
closed = 1;
nodes = (
(99,462,l),
(99,296,l),
(474,296,l),
(474,462,l)
);
},
{
closed = 1;
nodes = (
(212,393,l),
(354,393,l),
(354,365,l),
(212,365,l)
);
},
{
closed = 1;
nodes = (
(99,274,l),
(99,186,l),
(397,186,l),
(397,274,l)
);
},
{
closed = 1;
nodes = (
(351,274,l),
(351,254,l),
(331,228,o),
(297,195,o),
(263,168,c),
(277,153,o),
(298,126,o),
(311,105,c),
(367,133,o),
(433,176,o),
(480,217,c),
(411,280,l),
(383,274,l)
);
},
{
closed = 1;
nodes = (
(223,171,l),
(223,13,ls),
(223,2,o),
(219,0,o),
(208,-1,cs),
(197,-1,o),
(157,-1,o),
(127,1,c),
(140,-27,o),
(155,-66,o),
(160,-97,c),
(221,-97,o),
(267,-97,o),
(303,-82,cs),
(340,-68,o),
(349,-44,o),
(349,8,cs),
(350,171,l)
);
},
{
closed = 1;
nodes = (
(61,30,l),
(159,34,o),
(335,44,o),
(516,55,c),
(517,149,l),
(320,140,o),
(141,133,o),
(52,131,c)
);
},
{
closed = 1;
nodes = (
(671,527,l),
(671,406,l),
(969,406,l),
(969,527,l)
);
},
{
closed = 1;
nodes = (
(634,633,l),
(604,509,o),
(547,387,o),
(476,312,c),
(504,291,o),
(555,244,o),
(576,219,c),
(651,308,o),
(723,456,o),
(762,603,c)
);
},
{
closed = 1;
nodes = (
(793,464,l),
(759,240,o),
(653,90,o),
(472,12,c),
(499,-12,o),
(544,-66,o),
(560,-92,c),
(754,6,o),
(875,184,o),
(924,445,c)
);
},
{
closed = 1;
nodes = (
(576,410,l),
(627,171,o),
(738,-10,o),
(886,-95,c),
(906,-58,o),
(948,-6,o),
(978,20,c),
(840,87,o),
(736,236,o),
(687,434,c)
);
}
);
vertWidth = 1000;
width = 1000;
}
);
note = cid07192;
unicode = 17723;
}
{
glyphname = uni4871;
layers = (
{
layerId = m01;
shapes = (
{
closed = 1;
nodes = (
(57,709,l),
(57,679,l),
(375,679,l),
(375,709,l)
);
},
{
closed = 1;
nodes = (
(48,150,l),
(48,121,l),
(383,121,l),
(383,150,l)
);
},
{
closed = 1;
nodes = (
(201,831,l),
(201,571,l),
(230,571,l),
(230,831,l)
);
},
{
closed = 1;
nodes = (
(201,572,l),
(201,268,l),
(201,268,l),
(201,-71,l),
(230,-71,l),
(230,268,l),
(230,268,l),
(230,572,l)
);
},
{
closed = 1;
nodes = (
(111,405,l),
(320,405,l),
(320,279,l),
(111,279,l)
);
},
{
closed = 1;
nodes = (
(111,558,l),
(320,558,l),
(320,434,l),
(111,434,l)
);
},
{
closed = 1;
nodes = (
(82,587,l),
(82,250,l),
(350,250,l),
(350,587,l)
);
},
{
closed = 1;
nodes = (
(411,766,l),
(411,-71,l),
(440,-71,l),
(440,737,l),
(929,737,l),
(929,766,l)
);
},
{
closed = 1;
nodes = (
(425,8,l),
(425,-21,l),
(952,-21,l),
(953,8,l)
);
},
{
closed = 1;
nodes = (
(567,644,l),
(567,423,l),
(832,423,l),
(832,644,l)
);
},
{
closed = 1;
nodes = (
(596,615,l),
(803,615,l),
(803,452,l),
(596,452,l)
);
},
{
closed = 1;
nodes = (
(493,345,l),
(493,106,l),
(673,106,l),
(673,345,l)
);
},
{
closed = 1;
nodes = (
(522,316,l),
(644,316,l),
(644,135,l),
(522,135,l)
);
},
{
closed = 1;
nodes = (
(734,345,l),
(734,106,l),
(917,106,l),
(917,345,l)
);
},
{
closed = 1;
nodes = (
(763,316,l),
(888,316,l),
(888,135,l),
(763,135,l)
);
}
);
vertWidth = 1000;
width = 1000;
},
{
layerId = "94DDBC6A-1627-4027-9125-871D02041BCD";
shapes = (
{
closed = 1;
nodes = (
(35,765,l),
(35,649,l),
(387,649,l),
(387,765,l)
);
},
{
closed = 1;
nodes = (
(25,174,l),
(25,57,l),
(386,57,l),
(386,174,l)
);
},
{
closed = 1;
nodes = (
(149,854,l),
(149,570,l),
(267,570,l),
(267,854,l)
);
},
{
closed = 1;
nodes = (
(162,560,l),
(162,250,l),
(149,250,l),
(149,-96,l),
(267,-96,l),
(267,250,l),
(254,250,l),
(254,560,l)
);
},
{
closed = 1;
nodes = (
(135,368,l),
(282,368,l),
(282,321,l),
(135,321,l)
);
},
{
closed = 1;
nodes = (
(135,507,l),
(282,507,l),
(282,461,l),
(135,461,l)
);
},
{
closed = 1;
nodes = (
(44,606,l),
(44,222,l),
(377,222,l),
(377,606,l)
);
},
{
closed = 1;
nodes = (
(409,815,l),
(409,-95,l),
(537,-95,l),
(537,684,l),
(962,684,l),
(962,815,l)
);
},
{
closed = 1;
nodes = (
(487,72,l),
(487,-59,l),
(977,-59,l),
(977,72,l)
);
},
{
closed = 1;
nodes = (
(605,654,l),
(605,409,l),
(904,409,l),
(904,654,l)
);
},
{
closed = 1;
nodes = (
(719,559,l),
(783,559,l),
(783,504,l),
(719,504,l)
);
},
{
closed = 1;
nodes = (
(562,374,l),
(562,104,l),
(739,104,l),
(739,374,l)
);
},
{
closed = 1;
nodes = (
(638,292,l),
(660,292,l),
(660,186,l),
(638,186,l)
);
},
{
closed = 1;
nodes = (
(765,374,l),
(765,104,l),
(946,104,l),
(946,374,l)
);
},
{
closed = 1;
nodes = (
(842,292,l),
(864,292,l),
(864,186,l),
(842,186,l)
);
}
);
vertWidth = 1000;
width = 1000;
}
);
note = cid08066;
unicode = 18545;
}
{
glyphname = uni491E;
layers = (
{
layerId = m01;
shapes = (
{
closed = 1;
nodes = (
(438,589,l),
(438,560,l),
(945,560,l),
(945,589,l)
);
},
{
closed = 1;
nodes = (
(651,468,l),
(651,14,ls),
(651,-39,o),
(667,-50,o),
(727,-50,cs),
(741,-50,o),
(857,-50,o),
(871,-50,cs),
(934,-50,o),
(944,-11,o),
(948,142,c),
(939,145,o),
(928,150,o),
(919,157,c),
(916,5,o),
(910,-21,o),
(870,-21,cs),
(844,-21,o),
(746,-21,o),
(727,-21,cs),
(688,-21,o),
(680,-15,o),
(680,14,cs),
(680,468,l)
);
},
{
closed = 1;
nodes = (
(648,829,l),
(647,543,o),
(645,129,o),
(370,-52,c),
(379,-56,o),
(391,-65,o),
(397,-71,c),
(672,119,o),
(675,530,o),
(677,829,c)
);
},
{
closed = 1;
nodes = (
(753,793,l),
(809,752,o),
(873,691,o),
(904,650,c),
(927,670,l),
(896,711,o),
(832,768,o),
(774,811,c)
);
},
{
closed = 1;
nodes = (
(120,584,l),
(120,555,l),
(412,555,l),
(412,584,l)
);
},
{
closed = 1;
nodes = (
(62,416,l),
(62,386,l),
(455,386,l),
(455,416,l)
);
},
{
closed = 1;
nodes = (
(96,304,l),
(121,240,o),
(139,159,o),
(142,105,c),
(172,112,l),
(168,165,o),
(149,247,o),
(124,310,c)
);
},
{
closed = 1;
nodes = (
(63,-31,l),
(167,-8,o),
(317,26,o),
(458,58,c),
(455,85,l),
(303,51,o),
(148,18,o),
(52,-3,c)
);
},
{
closed = 1;
nodes = (
(391,324,l),
(378,266,o),
(351,178,o),
(330,126,c),
(355,115,l),
(377,166,o),
(402,247,o),
(422,311,c)
);
},
{
closed = 1;
nodes = (
(250,569,l),
(250,22,l),
(280,25,l),
(280,569,l)
);
},
{
closed = 1;
nodes = (
(239,830,l),
(205,748,o),
(140,639,o),
(49,558,c),
(56,554,o),
(66,547,o),
(71,541,c),
(165,626,o),
(228,734,o),
(265,812,c),
(265,820,l),
(255,820,l),
(255,830,l)
);
},
{
closed = 1;
nodes = (
(248,830,l),
(248,809,l),
(256,809,l),
(325,751,o),
(402,666,o),
(442,613,c),
(466,635,l),
(427,687,o),
(344,771,o),
(276,830,c)
);
}
);
vertWidth = 1000;
width = 1000;
},
{
layerId = "94DDBC6A-1627-4027-9125-871D02041BCD";
shapes = (
{
closed = 1;
nodes = (
(440,626,l),
(440,488,l),
(972,488,l),
(972,626,l)
);
},
{
closed = 1;
nodes = (
(663,457,l),
(663,90,ls),
(663,-35,o),
(686,-78,o),
(788,-78,cs),
(807,-78,o),
(833,-78,o),
(853,-78,cs),
(936,-78,o),
(969,-29,o),
(981,134,c),
(944,143,o),
(886,166,o),
(859,189,c),
(856,71,o),
(853,50,o),
(838,50,cs),
(830,50,o),
(821,50,o),
(814,50,cs),
(802,50,o),
(800,54,o),
(800,91,cs),
(800,457,l)
);
},
{
closed = 1;
nodes = (
(594,855,l),
(592,533,o),
(602,210,o),
(395,16,c),
(434,-9,o),
(479,-53,o),
(504,-90,c),
(727,135,o),
(734,499,o),
(737,855,c)
);
},
{
closed = 1;
nodes = (
(748,789,l),
(791,742,o),
(839,676,o),
(859,633,c),
(971,701,l),
(948,744,o),
(901,803,o),
(855,847,c)
);
},
{
closed = 1;
nodes = (
(96,606,l),
(96,486,l),
(412,486,l),
(412,606,l)
);
},
{
closed = 1;
nodes = (
(57,431,l),
(57,309,l),
(431,309,l),
(431,431,l)
);
},
{
closed = 1;
nodes = (
(58,258,l),
(72,205,o),
(86,136,o),
(89,90,c),
(187,118,l),
(181,162,o),
(166,230,o),
(150,282,c)
);
},
{
closed = 1;
nodes = (
(68,-79,l),
(169,-63,o),
(300,-42,o),
(421,-20,c),
(413,102,l),
(281,82,o),
(137,63,o),
(40,51,c)
);
},
{
closed = 1;
nodes = (
(337,290,l),
(332,242,o),
(318,174,o),
(306,129,c),
(391,105,l),
(406,145,o),
(424,207,o),
(444,265,c)
);
},
{
closed = 1;
nodes = (
(183,556,l),
(183,-2,l),
(308,21,l),
(308,556,l)
);
},
{
closed = 1;
nodes = (
(186,855,l),
(153,778,o),
(94,688,o),
(7,619,c),
(35,599,o),
(76,551,o),
(95,521,c),
(200,612,o),
(264,714,o),
(306,790,c),
(306,829,l),
(264,829,l),
(264,855,l)
);
},
{
closed = 1;
nodes = (
(203,855,l),
(203,752,l),
(227,752,l),
(282,708,o),
(353,620,o),
(383,568,c),
(476,680,l),
(439,734,o),
(362,806,o),
(302,855,c)
);
}
);
vertWidth = 1000;
width = 1000;
}
);
note = cid08250;
unicode = 18718;
}
{
glyphname = uni4930;
layers = (
{
layerId = m01;
shapes = (
{
closed = 1;
nodes = (
(76,701,l),
(76,672,l),
(385,672,l),
(385,701,l)
);
},
{
closed = 1;
nodes = (
(219,815,l),
(219,483,l),
(248,492,l),
(248,815,l)
);
},
{
closed = 1;
nodes = (
(63,412,l),
(153,440,o),
(274,480,o),
(392,518,c),
(388,545,l),
(261,504,o),
(141,466,o),
(53,441,c)
);
},
{
closed = 1;
nodes = (
(501,830,l),
(468,741,o),
(412,660,o),
(346,604,c),
(354,599,o),
(367,589,o),
(371,584,c),
(437,644,o),
(496,731,o),
(531,823,c)
);
},
{
closed = 1;
nodes = (
(458,728,l),
(458,699,l),
(901,699,l),
(901,728,l)
);
},
{
closed = 1;
nodes = (
(889,728,l),
(889,722,l),
(869,675,o),
(842,622,o),
(817,584,c),
(843,572,l),
(868,609,o),
(896,669,o),
(922,721,c),
(902,730,l),
(896,728,l)
);
},
{
closed = 1;
nodes = (
(627,714,l),
(613,714,l),
(613,669,ls),
(613,632,o),
(611,475,o),
(302,409,c),
(308,402,o),
(317,391,o),
(320,386,c),
(564,438,o),
(619,552,o),
(628,609,c),
(640,552,o),
(704,437,o),
(934,386,c),
(938,392,o),
(948,404,o),
(953,410,c),
(660,473,o),
(642,634,o),
(642,669,cs),
(642,714,l)
);
},
{
closed = 1;
nodes = (
(614,297,o),
(793,234,o),
(944,206,c),
(947,212,o),
(955,226,o),
(960,233,c),
(809,258,o),
(628,319,o),
(512,399,c),
(485,399,l),
(396,326,o),
(227,251,o),
(47,208,c),
(52,202,o),
(58,192,o),
(61,185,c),
(240,231,o),
(406,302,o),
(501,374,c)
);
},
{
closed = 1;
nodes = (
(322,253,l),
(322,224,l),
(685,224,l),
(685,253,l)
);
},
{
closed = 1;
nodes = (
(192,143,l),
(192,114,l),
(813,114,l),
(813,143,l)
);
},
{
closed = 1;
nodes = (
(486,239,l),
(486,-27,l),
(515,-27,l),
(515,239,l)
);
},
{
closed = 1;
nodes = (
(290,90,l),
(314,61,o),
(338,19,o),
(349,-8,c),
(375,5,l),
(365,31,o),
(339,72,o),
(315,101,c)
);
},
{
closed = 1;
nodes = (
(694,105,l),
(678,76,o),
(646,30,o),
(623,3,c),
(646,-8,l),
(671,19,o),
(698,57,o),
(721,93,c)
);
},
{
closed = 1;
nodes = (
(59,-12,l),
(59,-41,l),
(941,-41,l),
(941,-12,l)
);
}
);
vertWidth = 1000;
width = 1000;
},
{
layerId = "94DDBC6A-1627-4027-9125-871D02041BCD";
shapes = (
{
closed = 1;
nodes = (
(54,761,l),
(54,645,l),
(401,645,l),
(401,761,l)
);
},
{
closed = 1;
nodes = (
(164,839,l),
(164,517,l),
(299,517,l),
(299,839,l)
);
},
{
closed = 1;
nodes = (
(62,386,l),
(162,408,o),
(287,436,o),
(405,465,c),
(396,576,l),
(274,554,o),
(137,531,o),
(39,517,c)
);
},
{
closed = 1;
nodes = (
(490,857,l),
(465,772,o),
(413,689,o),
(354,643,c),
(386,626,o),
(444,587,o),
(470,564,c),
(534,625,o),
(593,726,o),
(625,827,c)
);
},
{
closed = 1;
nodes = (
(460,765,l),
(460,660,l),
(861,660,l),
(861,765,l)
);
},
{
closed = 1;
nodes = (
(819,765,l),
(819,748,l),
(810,705,o),
(790,646,o),
(768,596,c),
(887,571,l),
(912,616,o),
(940,686,o),
(961,749,c),
(860,769,l),
(839,765,l)
);
},
{
closed = 1;
nodes = (
(657,718,l),
(587,718,l),
(587,663,ls),
(587,620,o),
(544,519,o),
(364,469,c),
(387,444,o),
(414,402,o),
(427,373,c),
(550,405,o),
(635,486,o),
(656,547,c),
(676,485,o),
(749,403,o),
(880,372,c),
(898,402,o),
(927,448,o),
(949,475,c),
(756,526,o),
(724,619,o),
(724,663,cs),
(724,718,l)
);
},
{
closed = 1;
nodes = (
(594,256,o),
(784,197,o),
(911,180,c),
(928,215,o),
(956,265,o),
(983,298,c),
(831,311,o),
(676,344,o),
(558,422,c),
(428,422,l),
(339,354,o),
(180,307,o),
(22,290,c),
(44,261,o),
(71,208,o),
(83,176,c),
(235,200,o),
(409,261,o),
(498,328,c)
);
},
{
closed = 1;
nodes = (
(308,283,l),
(308,202,l),
(700,202,l),
(700,283,l)
);
},
{
closed = 1;
nodes = (
(166,173,l),
(166,88,l),
(842,88,l),
(842,173,l)
);
},
{
closed = 1;
nodes = (
(428,242,l),
(428,-22,l),
(569,-22,l),
(569,242,l)
);
},
{
closed = 1;
nodes = (
(227,82,l),
(246,49,o),
(261,12,o),
(266,-15,c),
(380,24,l),
(373,50,o),
(356,86,o),
(336,116,c)
);
},
{
closed = 1;
nodes = (
(662,109,l),
(652,80,o),
(638,45,o),
(626,18,c),
(717,-9,l),
(733,12,o),
(759,47,o),
(784,81,c)
);
},
{
closed = 1;
nodes = (
(71,28,l),
(71,-67,l),
(931,-67,l),
(931,28,l)
);
}
);
vertWidth = 1000;
width = 1000;
}
);
note = cid08269;
unicode = 18736;
}
{
glyphname = uni4B70;
layers = (
{
layerId = m01;
shapes = (
{
closed = 1;
nodes = (
(392,811,l),
(322,782,o),
(179,758,o),
(64,744,c),
(69,736,o),
(73,726,o),
(75,720,c),
(191,733,o),
(333,757,o),
(416,789,c)
);
},
{
closed = 1;
nodes = (
(235,768,l),
(235,354,l),
(265,354,l),
(265,768,l)
);
},
{
closed = 1;
nodes = (
(60,628,l),
(60,599,l),
(435,599,l),
(435,628,l)
);
},
{
closed = 1;
nodes = (
(122,169,l),
(122,139,l),
(387,139,l),
(387,169,l)
);
},
{
closed = 1;
nodes = (
(122,9,l),
(122,-20,l),
(387,-20,l),
(387,9,l)
);
},
{
closed = 1;
nodes = (
(232,619,l),
(191,528,o),
(106,428,o),
(37,380,c),
(43,375,o),
(51,364,o),
(55,356,c),
(128,409,o),
(212,514,o),
(257,608,c)
);
},
{
closed = 1;
nodes = (
(244,564,l),
(289,530,o),
(355,475,o),
(393,439,c),
(414,461,l),
(374,495,o),
(308,547,o),
(265,580,c)
);
},
{
closed = 1;
nodes = (
(108,325,l),
(108,-65,l),
(137,-65,l),
(137,295,l),
(368,295,l),
(368,-58,l),
(397,-58,l),
(397,325,l)
);
},
{
closed = 1;
nodes = (
(440,726,l),
(440,697,l),
(930,697,l),
(930,726,l)
);
},
{
closed = 1;
nodes = (
(422,461,l),
(422,432,l),
(952,432,l),
(952,461,l)
);
},
{
closed = 1;
nodes = (
(456,145,l),
(456,116,l),
(936,116,l),
(936,145,l)
);
},
{
closed = 1;
nodes = (
(516,284,l),
(516,255,l),
(870,255,l),
(870,284,l)
);
},
{
closed = 1;
nodes = (
(471,599,l),
(471,570,l),
(908,570,l),
(908,599,l)
);
},
{
closed = 1;
nodes = (
(677,392,l),
(677,-71,l),
(706,-71,l),
(706,392,l)
);
},
{
closed = 1;
nodes = (
(735,574,l),
(781,423,o),
(854,301,o),
(938,235,c),
(943,243,o),
(952,254,o),
(960,259,c),
(876,317,o),
(806,433,o),
(761,583,c)
);
},
{
closed = 1;
nodes = (
(669,831,l),
(642,611,o),
(583,380,o),
(416,246,c),
(422,240,o),
(430,230,o),
(434,224,c),
(609,365,o),
(667,597,o),
(699,826,c)
);
}
);
vertWidth = 1000;
width = 1000;
},
{
layerId = "94DDBC6A-1627-4027-9125-871D02041BCD";
shapes = (
{
closed = 1;
nodes = (
(348,848,l),
(272,824,o),
(146,809,o),
(34,803,c),
(48,776,o),
(63,731,o),
(67,704,c),
(188,707,o),
(332,721,o),
(439,754,c)
);
},
{
closed = 1;
nodes = (
(177,752,l),
(177,351,l),
(299,351,l),
(299,752,l)
);
},
{
closed = 1;
nodes = (
(37,669,l),
(37,557,l),
(425,557,l),
(425,669,l)
);
},
{
closed = 1;
nodes = (
(113,186,l),
(113,90,l),
(352,90,l),
(352,186,l)
);
},
{
closed = 1;
nodes = (
(110,54,l),
(110,-53,l),
(349,-53,l),
(349,54,l)
);
},
{
closed = 1;
nodes = (
(176,605,l),
(144,543,o),
(79,475,o),
(15,440,c),
(32,407,o),
(55,356,o),
(64,322,c),
(146,372,o),
(213,475,o),
(255,568,c)
);
},
{
closed = 1;
nodes = (
(241,535,l),
(276,495,o),
(328,426,o),
(359,377,c),
(432,480,l),
(392,515,o),
(333,562,o),
(299,587,c)
);
},
{
closed = 1;
nodes = (
(74,327,l),
(74,-92,l),
(194,-92,l),
(194,220,l),
(279,220,l),
(279,-88,l),
(405,-88,l),
(405,327,l)
);
},
{
closed = 1;
nodes = (
(439,801,l),
(439,690,l),
(957,690,l),
(957,801,l)
);
},
{
closed = 1;
nodes = (
(419,536,l),
(419,421,l),
(973,421,l),
(973,536,l)
);
},
{
closed = 1;
nodes = (
(476,170,l),
(476,57,l),
(922,57,l),
(922,170,l)
);
},
{
closed = 1;
nodes = (
(534,331,l),
(534,219,l),
(850,219,l),
(850,331,l)
);
},
{
closed = 1;
nodes = (
(463,666,l),
(463,562,l),
(932,562,l),
(932,666,l)
);
},
{
closed = 1;
nodes = (
(634,392,l),
(634,-94,l),
(758,-94,l),
(758,392,l)
);
},
{
closed = 1;
nodes = (
(722,564,l),
(757,395,o),
(823,262,o),
(905,193,c),
(923,223,o),
(961,267,o),
(988,288,c),
(912,349,o),
(855,457,o),
(828,589,c)
);
},
{
closed = 1;
nodes = (
(602,856,l),
(587,649,o),
(544,402,o),
(389,276,c),
(414,256,o),
(455,214,o),
(473,189,c),
(646,334,o),
(702,606,o),
(728,844,c)
);
}
);
vertWidth = 1000;
width = 1000;
}
);
note = cid08871;
unicode = 19312;
}
{
glyphname = uni4C07;
layers = (
{
layerId = m01;
shapes = (
{
closed = 1;
nodes = (
(59,288,l),
(59,259,l),
(942,259,l),
(942,288,l)
);
},
{
closed = 1;
nodes = (
(169,392,l),
(169,363,l),
(726,363,l),
(726,392,l)
);
},
{
closed = 1;
nodes = (
(275,90,l),
(275,61,l),
(827,61,l),
(827,90,l)
);
},
{
closed = 1;
nodes = (
(275,-12,l),
(275,-41,l),
(823,-41,l),
(823,-12,l)
);
},
{
closed = 1;
nodes = (
(440,445,l),
(440,273,l),
(469,273,l),
(469,445,l)
);
},
{
closed = 1;
nodes = (
(258,188,l),
(258,-72,l),
(288,-72,l),
(288,159,l),
(812,159,l),
(812,-69,l),
(841,-69,l),
(841,188,l)
);
},
{
closed = 1;
nodes = (
(843,444,l),
(681,313,o),
(370,187,o),
(37,118,c),
(44,111,o),
(54,96,o),
(58,89,c),
(395,167,o),
(708,296,o),
(868,425,c)
);
},
{
closed = 1;
nodes = (
(170,732,l),
(170,703,l),
(488,703,l),
(488,732,l)
);
},
{
closed = 1;
nodes = (
(170,663,l),
(170,633,l),
(488,633,l),
(488,663,l)
);
},
{
closed = 1;
nodes = (
(59,593,l),
(59,564,l),
(563,564,l),
(563,593,l)
);
},
{
closed = 1;
nodes = (
(155,802,l),
(155,572,l),
(184,572,l),
(184,772,l),
(516,772,l),
(516,802,l)
);
},
{
closed = 1;
nodes = (
(203,588,l),
(191,562,o),
(169,520,o),
(151,494,c),
(179,483,l),
(196,510,o),
(215,542,o),
(232,577,c)
);
},
{
closed = 1;
nodes = (
(87,466,l),
(195,470,o),
(342,477,o),
(466,484,c),
(467,511,l),
(333,505,o),
(185,499,o),
(84,497,c)
);
},
{
closed = 1;
nodes = (
(385,537,l),
(429,514,o),
(478,476,o),
(505,446,c),
(527,466,l),
(502,495,o),
(451,532,o),
(406,556,c)
);
},
{
closed = 1;
nodes = (
(840,828,l),
(770,785,o),
(652,748,o),
(560,725,c),
(568,719,o),
(575,709,o),
(581,702,c),
(674,727,o),
(792,768,o),
(867,816,c)
);
},
{
closed = 1;
nodes = (
(880,732,l),
(815,682,o),
(697,641,o),
(594,618,c),
(602,611,o),
(610,601,o),
(616,594,c),
(720,620,o),
(838,666,o),
(908,719,c)
);
},
{
closed = 1;
nodes = (
(915,627,l),
(845,561,o),
(703,516,o),
(559,492,c),
(567,486,o),
(574,474,o),
(578,468,c),
(723,493,o),
(870,543,o),
(942,615,c)
);
},
{
closed = 1;
nodes = (
(651,247,l),
(692,232,o),
(746,203,o),
(774,182,c),
(790,205,l),
(764,225,o),
(710,252,o),
(667,266,c)
);
}
);
vertWidth = 1000;
width = 1000;
},
{
layerId = "94DDBC6A-1627-4027-9125-871D02041BCD";
shapes = (
{
closed = 1;
nodes = (
(51,327,l),
(51,233,l),
(947,233,l),
(947,327,l)
);
},
{
closed = 1;
nodes = (
(136,437,l),
(136,350,l),
(722,350,l),
(722,437,l)
);
},
{
closed = 1;
nodes = (
(291,90,l),
(291,25,l),
(776,25,l),
(776,90,l)
);
},
{
closed = 1;
nodes = (
(291,1,l),
(291,-76,l),
(776,-76,l),
(776,1,l)
);
},
{
closed = 1;
nodes = (
(362,468,l),
(362,263,l),
(500,263,l),
(500,468,l)
);
},
{
closed = 1;
nodes = (
(253,191,l),
(253,-96,l),
(385,-96,l),
(385,114,l),
(733,114,l),
(733,-96,l),
(872,-96,l),
(872,191,l)
);
},
{
closed = 1;
nodes = (
(822,470,l),
(650,310,o),
(329,207,o),
(19,160,c),
(37,136,o),
(64,84,o),
(75,58,c),
(385,119,o),
(717,228,o),
(916,410,c)
);
},
{
closed = 1;
nodes = (
(214,756,l),
(214,708,l),
(498,708,l),
(498,756,l)
);
},
{
closed = 1;
nodes = (
(214,689,l),
(214,641,l),
(498,641,l),
(498,689,l)
);
},
{
closed = 1;
nodes = (
(46,622,l),
(46,560,l),
(560,560,l),
(560,622,l)
);
},
{
closed = 1;
nodes = (
(120,836,l),
(120,584,l),
(247,584,l),
(247,775,l),
(522,775,l),
(522,836,l)
);
},
{
closed = 1;
nodes = (
(166,604,l),
(158,577,o),
(141,538,o),
(127,510,c),
(217,485,l),
(234,508,o),
(256,541,o),
(281,578,c)
);
},
{
closed = 1;
nodes = (
(76,455,l),
(183,461,o),
(316,469,o),
(451,480,c),
(452,536,l),
(311,532,o),
(169,529,o),
(70,528,c)
);
},
{
closed = 1;
nodes = (
(367,552,l),
(401,519,o),
(441,473,o),
(458,443,c),
(547,486,l),
(527,517,o),
(485,561,o),
(450,591,c)
);
},
{
closed = 1;
nodes = (
(805,852,l),
(741,818,o),
(615,785,o),
(526,770,c),
(552,749,o),
(580,717,o),
(596,695,c),
(692,716,o),
(816,753,o),
(900,802,c)
);
},
{
closed = 1;
nodes = (
(837,740,l),
(775,702,o),
(651,672,o),
(549,659,c),
(574,637,o),
(601,604,o),
(616,579,c),
(730,600,o),
(855,638,o),
(935,695,c)
);
},
{
closed = 1;
nodes = (
(861,619,l),
(799,575,o),
(671,549,o),
(547,539,c),
(570,516,o),
(596,479,o),
(609,452,c),
(754,474,o),
(886,509,o),
(966,580,c)
);
},
{
closed = 1;
nodes = (
(658,213,l),
(690,190,o),
(722,163,o),
(739,143,c),
(828,212,l),
(810,231,o),
(777,256,o),
(743,276,c)
);
}
);
vertWidth = 1000;
width = 1000;
}
);
note = cid09032;
unicode = 19463;
}
{
glyphname = uni4CB3;
layers = (
{
layerId = m01;
shapes = (
{
closed = 1;
nodes = (
(241,822,l),
(241,661,l),
(270,661,l),
(270,822,l)
);
},
{
closed = 1;
nodes = (
(132,526,l),
(132,292,ls),
(132,192,o),
(121,67,o),
(36,-24,c),
(43,-28,o),
(55,-37,o),
(59,-43,c),
(146,51,o),
(161,187,o),
(161,292,cs),
(161,526,l)
);
},
{
closed = 1;
nodes = (
(55,676,l),
(55,647,l),
(434,647,l),
(434,676,l)
);
},
{
closed = 1;
nodes = (
(328,526,l),
(328,160,ls),
(328,102,o),
(330,91,o),
(341,83,cs),
(350,75,o),
(365,72,o),
(378,72,cs),
(390,72,o),
(402,72,o),
(414,72,cs),
(426,72,o),
(439,75,o),
(447,80,cs),
(456,85,o),
(461,95,o),
(465,112,cs),
(468,126,o),
(470,178,o),
(471,221,c),
(462,223,o),
(453,227,o),
(445,233,c),
(445,184,o),
(444,148,o),
(441,131,cs),
(439,117,o),
(435,108,o),
(431,104,cs),
(426,100,o),
(418,99,o),
(409,99,cs),
(399,99,o),
(389,99,o),
(379,99,cs),
(373,99,o),
(367,100,o),
(363,103,cs),
(358,107,o),
(357,123,o),
(357,148,cs),
(357,526,l)
);
},
{
closed = 1;
nodes = (
(146,526,l),
(146,497,l),
(343,497,l),
(343,526,l)
);
},
{
closed = 1;
nodes = (
(675,831,l),
(667,803,o),
(648,758,o),
(633,729,c),
(658,719,l),
(672,745,o),
(689,783,o),
(705,818,c)
);
},
{
closed = 1;
nodes = (
(522,737,l),
(522,708,l),
(846,708,l),
(846,494,l),
(522,494,l),
(522,465,l),
(875,465,l),
(875,737,l)
);
},
{
closed = 1;
nodes = (
(523,617,l),
(523,587,l),
(859,587,l),
(859,617,l)
);
},
{
closed = 1;
nodes = (
(519,384,l),
(519,355,l),
(951,355,l),
(951,384,l)
);
},
{
closed = 1;
nodes = (
(502,737,l),
(502,256,l),
(531,256,l),
(531,737,l)
);
},
{
closed = 1;
nodes = (
(502,274,l),
(502,244,l),
(914,244,l),
(914,274,l)
);
},
{
closed = 1;
nodes = (
(906,274,l),
(906,267,l),
(891,63,o),
(877,-14,o),
(854,-36,cs),
(846,-44,o),
(837,-45,o),
(818,-45,cs),
(801,-45,o),
(747,-44,o),
(691,-39,c),
(696,-47,o),
(699,-59,o),
(700,-67,c),
(751,-71,o),
(801,-72,o),
(824,-72,cs),
(850,-72,o),
(865,-66,o),
(877,-54,cs),
(905,-26,o),
(919,46,o),
(934,254,cs),
(935,261,o),
(936,274,o),
(936,274,c)
);
},
{
closed = 1;
nodes = (
(502,179,l),
(492,104,o),
(472,24,o),
(427,-20,c),
(451,-38,l),
(499,10,o),
(519,95,o),
(529,172,c)
);
},
{
closed = 1;
nodes = (
(581,162,l),
(595,108,o),
(605,39,o),
(606,-5,c),
(634,-1,l),
(633,43,o),
(623,112,o),
(608,165,c)
);
},
{
closed = 1;
nodes = (
(671,172,l),
(694,127,o),
(718,66,o),
(726,27,c),
(754,35,l),
(745,74,o),
(721,133,o),
(696,179,c)
);
},
{
closed = 1;
nodes = (
(753,192,l),
(782,160,o),
(815,115,o),
(830,84,c),
(855,100,l),
(839,129,o),
(807,173,o),
(775,205,c)
);
}
);
vertWidth = 1000;
width = 1000;
},
{
layerId = "94DDBC6A-1627-4027-9125-871D02041BCD";
shapes = (
{
closed = 1;
nodes = (
(173,845,l),
(173,652,l),
(315,652,l),
(315,845,l)
);
},
{
closed = 1;
nodes = (
(86,533,l),
(86,353,ls),
(86,257,o),
(80,129,o),
(11,38,c),
(38,23,o),
(91,-23,o),
(111,-47,c),
(195,60,o),
(212,231,o),
(212,351,cs),
(212,533,l)
);
},
{
closed = 1;
nodes = (
(33,722,l),
(33,585,l),
(457,585,l),
(457,722,l)
);
},
{
closed = 1;
nodes = (
(252,533,l),
(252,195,ls),
(252,124,o),
(259,101,o),
(277,81,cs),
(294,63,o),
(322,54,o),
(347,54,cs),
(363,54,o),
(380,54,o),
(396,54,cs),
(415,54,o),
(437,59,o),
(451,69,cs),
(467,79,o),
(478,94,o),
(484,115,cs),
(491,136,o),
(496,187,o),
(497,231,c),
(469,240,o),
(432,259,o),
(412,277,c),
(411,237,o),
(410,205,o),
(409,191,cs),
(407,176,o),
(405,170,o),
(403,167,cs),
(401,164,o),
(398,163,o),
(395,163,cs),
(392,163,o),
(389,163,o),
(386,163,cs),
(383,163,o),
(380,165,o),
(378,168,c),
(377,172,o),
(377,182,o),
(377,201,cs),
(377,533,l)
);
},
{
closed = 1;
nodes = (
(152,533,l),
(152,404,l),
(317,404,l),
(317,533,l)
);
},
{
closed = 1;
nodes = (
(648,856,l),
(645,815,o),
(635,760,o),
(625,718,c),
(745,698,l),
(762,734,o),
(785,785,o),
(806,841,c)
);
},
{
closed = 1;
nodes = (
(568,783,l),
(568,688,l),
(809,688,l),
(809,541,l),
(568,541,l),
(568,446,l),
(938,446,l),
(938,783,l)
);
},
{
closed = 1;
nodes = (
(568,656,l),
(568,573,l),
(869,573,l),
(869,656,l)
);
},
{
closed = 1;
nodes = (
(568,418,l),
(568,320,l),
(975,320,l),
(975,418,l)
);
},
{
closed = 1;
nodes = (
(505,783,l),
(505,253,l),
(635,253,l),
(635,783,l)
);
},
{
closed = 1;
nodes = (
(505,288,l),
(505,186,l),
(903,186,l),
(903,288,l)
);
},
{
closed = 1;
nodes = (
(857,288,l),
(857,271,l),
(852,91,o),
(843,29,o),
(831,13,cs),
(824,4,o),
(817,2,o),
(806,2,cs),
(793,2,o),
(773,2,o),
(748,5,c),
(763,-22,o),
(774,-65,o),
(776,-96,c),
(812,-97,o),
(846,-96,o),
(867,-92,cs),
(892,-89,o),
(913,-80,o),
(931,-57,cs),
(954,-28,o),
(964,52,o),
(973,245,cs),
(974,259,o),
(974,288,o),
(974,288,c)
);
},
{
closed = 1;
nodes = (
(495,173,l),
(485,98,o),
(463,23,o),
(423,-24,c),
(519,-79,l),
(566,-24,o),
(585,62,o),
(597,145,c)
);
},
{
closed = 1;
nodes = (
(598,129,l),
(607,78,o),
(613,11,o),
(611,-32,c),
(692,-18,l),
(693,25,o),
(686,91,o),
(675,141,c)
);
},
{
closed = 1;
nodes = (
(688,138,l),
(701,97,o),
(713,44,o),
(716,9,c),
(789,29,l),
(785,63,o),
(772,115,o),
(757,155,c)
);
},
{
closed = 1;
nodes = (
(770,154,l),
(785,121,o),
(801,77,o),
(806,48,c),
(869,71,l),
(863,100,o),
(846,145,o),
(830,174,c)
);
}
);
vertWidth = 1000;
width = 1000;
}
);
note = cid09213;
unicode = 19635;
}
{
glyphname = uni4D91;
layers = (
{
layerId = m01;
shapes = (
{
closed = 1;
nodes = (
(93,308,l),
(397,308,l),
(397,250,l),
(93,250,l)
);
},
{
closed = 1;
nodes = (
(93,393,l),
(397,393,l),
(397,337,l),
(93,337,l)
);
},
{
closed = 1;
nodes = (
(63,423,l),
(63,221,l),
(426,221,l),
(426,423,l)
);
},
{
closed = 1;
nodes = (
(50,165,l),
(50,135,l),
(456,135,l),
(456,165,l)
);
},
{
closed = 1;
nodes = (
(231,411,l),
(231,234,l),
(260,234,l),
(260,411,l)
);
},
{
closed = 1;
nodes = (
(303,155,l),
(303,-70,l),
(332,-70,l),
(332,155,l)
);
},
{
closed = 1;
nodes = (
(128,643,l),
(365,643,l),
(365,590,l),
(128,590,l)
);
},
{
closed = 1;
nodes = (
(128,561,l),
(365,561,l),
(365,507,l),
(128,507,l)
);
},
{
closed = 1;
nodes = (
(128,723,l),
(365,723,l),
(365,672,l),
(128,672,l)
);
},
{
closed = 1;
nodes = (
(99,753,l),
(99,477,l),
(394,477,l),
(394,753,l)
);
},
{
closed = 1;
nodes = (
(158,157,l),
(151,56,o),
(127,-13,o),
(50,-51,c),
(57,-55,o),
(68,-66,o),
(72,-72,c),
(151,-29,o),
(180,46,o),
(188,157,c)
);
},
{
closed = 1;
nodes = (
(243,832,l),
(236,808,o),
(219,768,o),
(206,743,c),
(232,733,l),
(245,757,o),
(260,789,o),
(275,821,c)
);
},
{
closed = 1;
nodes = (
(461,755,l),
(461,725,l),
(930,725,l),
(930,755,l)
);
},
{
closed = 1;
nodes = (
(680,830,l),
(680,636,l),
(709,636,l),
(709,830,l)
);
},
{
closed = 1;
nodes = (
(434,651,l),
(434,533,l),
(463,533,l),
(463,622,l),
(922,622,l),
(922,533,l),
(951,533,l),
(951,651,l)
);
},
{
closed = 1;
nodes = (
(485,550,l),
(485,319,l),
(901,319,l),
(901,550,l)
);
},
{
closed = 1;
nodes = (
(514,521,l),
(872,521,l),
(872,450,l),
(514,450,l)
);
},
{
closed = 1;
nodes = (
(514,421,l),
(872,421,l),
(872,348,l),
(514,348,l)
);
},
{
closed = 1;
nodes = (
(679,536,l),
(679,333,l),
(708,333,l),
(708,536,l)
);
},
{
closed = 1;
nodes = (
(630,341,l),
(606,300,o),
(574,255,o),
(545,223,c),
(568,210,l),
(597,241,o),
(630,286,o),
(656,327,c)
);
},
{
closed = 1;
nodes = (
(459,199,l),
(576,201,o),
(739,205,o),
(881,209,c),
(883,236,l),
(728,232,o),
(564,230,o),
(457,230,c)
);
},
{
closed = 1;
nodes = (
(774,296,l),
(828,259,o),
(887,205,o),
(919,166,c),
(943,184,l),
(913,220,o),
(850,274,o),
(797,310,c)
);
},
{
closed = 1;
nodes = (
(680,219,l),
(680,-36,l),
(709,-36,l),
(709,219,l)
);
},
{
closed = 1;
nodes = (
(694,120,l),
(694,90,l),
(868,90,l),
(868,120,l)
);
},
{
closed = 1;
nodes = (
(517,185,l),
(503,75,o),
(459,-1,o),
(381,-49,c),
(388,-55,o),
(400,-66,o),
(405,-72,c),
(487,-15,o),
(534,69,o),
(548,182,c)
);
},
{
closed = 1;
nodes = (
(502,83,l),
(547,-33,o),
(626,-53,o),
(755,-53,cs),
(894,-53,l),
(940,-53,l),
(941,-45,o),
(947,-31,o),
(953,-22,c),
(926,-22,o),
(768,-22,o),
(755,-22,cs),
(645,-22,o),
(567,-10,o),
(526,94,c)
);
}
);
vertWidth = 1000;
width = 1000;
},
{
layerId = "94DDBC6A-1627-4027-9125-871D02041BCD";
shapes = (
{
closed = 1;
nodes = (
(148,304,l),
(348,304,l),
(348,280,l),
(148,280,l)
);
},
{
closed = 1;
nodes = (
(148,388,l),
(348,388,l),
(348,365,l),
(148,365,l)
);
},
{
closed = 1;
nodes = (
(45,452,l),
(45,216,l),
(456,216,l),
(456,452,l)
);
},
{
closed = 1;
nodes = (
(22,195,l),
(22,90,l),
(468,90,l),
(468,195,l)
);
},
{
closed = 1;
nodes = (
(201,422,l),
(201,242,l),
(305,242,l),
(305,422,l)
);
},
{
closed = 1;
nodes = (
(280,153,l),
(280,-95,l),
(401,-95,l),
(401,153,l)
);
},
{
closed = 1;
nodes = (
(192,642,l),
(300,642,l),
(300,619,l),
(192,619,l)
);
},
{
closed = 1;
nodes = (
(192,559,l),
(300,559,l),
(300,535,l),
(192,535,l)
);
},
{
closed = 1;
nodes = (
(192,724,l),
(300,724,l),
(300,702,l),
(192,702,l)
);
},
{
closed = 1;
nodes = (
(81,787,l),
(81,472,l),
(416,472,l),
(416,787,l)
);
},
{
closed = 1;
nodes = (
(118,151,l),
(112,76,o),
(99,22,o),
(11,-12,c),
(36,-33,o),
(68,-78,o),
(81,-107,c),
(203,-53,o),
(228,34,o),
(237,151,c)
);
},
{
closed = 1;
nodes = (
(189,857,l),
(187,831,o),
(180,797,o),
(174,767,c),
(281,752,l),
(295,777,o),
(317,812,o),
(334,852,c)
);
},
{
closed = 1;
nodes = (
(470,795,l),
(470,700,l),
(952,700,l),
(952,795,l)
);
},
{
closed = 1;
nodes = (
(637,855,l),
(637,630,l),
(774,630,l),
(774,855,l)
);
},
{
closed = 1;
nodes = (
(438,670,l),
(438,515,l),
(548,515,l),
(548,579,l),
(865,579,l),
(865,515,l),
(981,515,l),
(981,670,l)
);
},
{
closed = 1;
nodes = (
(495,552,l),
(495,304,l),
(938,304,l),
(938,552,l)
);
},
{
closed = 1;
nodes = (
(602,484,l),
(826,484,l),
(826,461,l),
(602,461,l)
);
},
{
closed = 1;
nodes = (
(602,396,l),
(826,396,l),
(826,373,l),
(602,373,l)
);
},
{
closed = 1;
nodes = (
(653,514,l),
(653,343,l),
(769,343,l),
(769,514,l)
);
},
{
closed = 1;
nodes = (
(581,360,l),
(566,319,o),
(542,271,o),
(518,234,c),
(610,199,l),
(635,232,o),
(667,279,o),
(694,321,c)
);
},
{
closed = 1;
nodes = (
(479,168,l),
(581,171,o),
(749,175,o),
(886,179,c),
(889,271,l),
(730,269,o),
(569,268,o),
(472,268,c)
);
},
{
closed = 1;
nodes = (
(778,286,l),
(822,250,o),
(866,201,o),
(892,160,c),
(988,214,l),
(963,252,o),
(917,298,o),
(869,333,c)
);
},
{
closed = 1;
nodes = (
(652,220,l),
(652,-20,l),
(773,-20,l),
(773,220,l)
);
},
{
closed = 1;
nodes = (
(723,147,l),
(723,53,l),
(905,53,l),
(905,147,l)
);
},
{
closed = 1;
nodes = (
(494,169,l),
(485,94,o),
(459,30,o),
(392,-7,c),
(420,-31,o),
(457,-70,o),
(476,-95,c),
(552,-45,o),
(598,39,o),
(615,158,c)
);
},
{
closed = 1;
nodes = (
(498,83,l),
(545,-58,o),
(626,-86,o),
(761,-86,cs),
(893,-86,l),
(948,-86,l),
(952,-55,o),
(967,-4,o),
(981,21,c),
(931,19,o),
(808,19,o),
(769,19,cs),
(678,19,o),
(617,28,o),
(587,108,c)
);
}
);
vertWidth = 1000;
width = 1000;
}
);
note = cid09443;
unicode = 19857;
}
{
glyphname = uni4E2B;
layers = (
{
layerId = m01;
shapes = (
{
closed = 1;
nodes = (
(485,508,l),
(485,-70,l),
(515,-70,l),
(515,508,l)
);
},
{
closed = 1;
nodes = (
(176,794,l),
(283,713,o),
(386,618,o),
(442,548,c),
(464,570,l),
(408,639,o),
(305,733,o),
(196,812,c)
);
},
{
closed = 1;
nodes = (
(814,813,l),
(722,693,o),
(597,572,o),
(492,497,c),
(512,477,l),
(617,555,o),
(744,678,o),
(841,796,c)
);
}
);
vertWidth = 1000;
width = 1000;
},
{
layerId = "94DDBC6A-1627-4027-9125-871D02041BCD";
shapes = (
{
closed = 1;
nodes = (
(422,502,l),
(422,-95,l),
(577,-95,l),
(577,502,l)
);
},
{
closed = 1;
nodes = (
(98,766,l),
(192,687,o),
(277,580,o),
(320,488,c),
(452,577,l),
(408,659,o),
(318,762,o),
(219,844,c)
);
},
{
closed = 1;
nodes = (
(755,843,l),
(682,704,o),
(565,564,o),
(452,479,c),
(555,369,l),
(670,463,o),
(804,615,o),
(901,765,c)
);
}
);
vertWidth = 1000;
width = 1000;
}
);
note = cid09542;
unicode = 20011;
}
{
glyphname = uni4E3D;
layers = (
{
layerId = m01;
shapes = (
{
closed = 1;
nodes = (
(112,600,l),
(112,-69,l),
(141,-69,l),
(141,571,l),
(421,571,l),
(421,600,l)
);
},
{
closed = 1;
nodes = (
(77,767,l),
(77,738,l),
(453,738,l),
(453,767,l)
);
},
{
closed = 1;
nodes = (
(552,600,l),
(552,-69,l),
(581,-69,l),
(581,571,l),
(865,571,l),
(865,600,l)
);
},
{
closed = 1;
nodes = (
(530,767,l),
(530,738,l),
(923,738,l),
(923,767,l)
);
},
{
closed = 1;
nodes = (
(261,458,l),
(261,103,l),
(290,103,l),
(290,458,l)
);
},
{
closed = 1;
nodes = (
(705,458,l),
(705,103,l),
(734,103,l),
(734,458,l)
);
},
{
closed = 1;
nodes = (
(410,600,l),
(410,-27,ls),
(410,-39,o),
(405,-43,o),
(393,-43,cs),
(382,-44,o),
(341,-44,o),
(291,-43,c),
(296,-52,o),
(302,-63,o),
(304,-70,c),
(364,-71,o),
(397,-71,o),
(415,-65,cs),
(432,-59,o),
(439,-50,o),
(439,-26,cs),
(439,600,l)
);
},
{
closed = 1;
nodes = (
(859,600,l),
(859,-26,ls),
(859,-39,o),
(854,-43,o),
(841,-43,cs),
(830,-44,o),
(787,-44,o),
(735,-43,c),
(740,-52,o),
(745,-63,o),
(747,-70,c),
(811,-71,o),
(845,-71,o),
(864,-65,cs),
(881,-60,o),
(888,-50,o),
(888,-26,cs),
(888,600,l)
);
}
);
width = 1000;
},
{
layerId = "94DDBC6A-1627-4027-9125-871D02041BCD";
shapes = (
{
closed = 1;
nodes = (
(71,596,l),
(71,-91,l),
(201,-91,l),
(201,464,l),
(456,464,l),
(456,596,l)
);
},
{
closed = 1;
nodes = (
(57,801,l),
(57,669,l),
(478,669,l),
(478,801,l)
);
},
{
closed = 1;
nodes = (
(525,596,l),
(525,-91,l),
(655,-91,l),
(655,464,l),
(913,464,l),
(913,596,l)
);
},
{
closed = 1;
nodes = (
(519,801,l),
(519,669,l),
(947,669,l),
(947,801,l)
);
},
{
closed = 1;
nodes = (
(219,399,l),
(219,108,l),
(324,108,l),
(324,399,l)
);
},
{
closed = 1;
nodes = (
(673,399,l),
(673,108,l),
(779,108,l),
(779,399,l)
);
},
{
closed = 1;
nodes = (
(341,596,l),
(341,59,ls),
(341,47,o),
(332,44,o),
(321,44,cs),
(310,43,o),
(280,43,o),
(253,45,c),
(271,7,o),
(287,-55,o),
(290,-95,c),
(343,-95,o),
(390,-92,o),
(428,-69,cs),
(466,-46,o),
(475,-7,o),
(475,56,cs),
(475,596,l)
);
},
{
closed = 1;
nodes = (
(796,596,l),
(796,63,ls),
(796,52,o),
(787,48,o),
(775,48,cs),
(763,48,o),
(730,47,o),
(701,49,c),
(718,12,o),
(733,-48,o),
(737,-88,c),
(794,-88,o),
(844,-86,o),
(883,-64,cs),
(922,-41,o),
(932,-4,o),
(932,61,cs),
(932,596,l)
);
}
);
width = 1000;
}
);
unicode = 20029;
}
{
glyphname = uni4E49;
layers = (
{
layerId = m01;
shapes = (
{
closed = 1;
nodes = (
(212,732,l),
(323,298,o),
(560,32,o),
(926,-70,c),
(931,-62,o),
(939,-52,o),
(946,-47,c),
(583,51,o),
(348,312,o),
(239,738,c)
);
},
{
closed = 1;
nodes = (
(773,756,l),
(673,319,o),
(462,74,o),
(78,-48,c),
(85,-53,o),
(95,-65,o),
(99,-72,c),
(482,55,o),
(696,305,o),
(801,749,c)
);
},
{
closed = 1;
nodes = (
(392,796,l),
(461,738,o),
(525,668,o),
(559,615,c),
(580,637,l),
(547,689,o),
(481,757,o),
(411,814,c)
);
}
);
vertWidth = 1000;
width = 1000;
},
{
layerId = "94DDBC6A-1627-4027-9125-871D02041BCD";
shapes = (
{
closed = 1;
nodes = (
(145,718,l),
(268,280,o),
(510,12,o),
(873,-93,c),
(895,-54,o),
(942,13,o),
(976,43,c),
(622,143,o),
(396,379,o),
(294,757,c)
);
},
{
closed = 1;
nodes = (
(732,778,l),
(646,372,o),
(414,126,o),
(33,36,c),
(64,3,o),
(115,-64,o),
(133,-99,c),
(535,18,o),
(784,297,o),
(887,743,c)
);
},
{
closed = 1;
nodes = (
(378,784,l),
(427,726,o),
(487,647,o),
(511,596,c),
(631,675,l),
(603,727,o),
(540,801,o),
(490,855,c)
);
}
);
vertWidth = 1000;
width = 1000;
}
);
note = cid09580;
unicode = 20041;
}
{
glyphname = uni4E60;
layers = (
{
layerId = m01;
shapes = (
{
closed = 1;
nodes = (
(131,744,l),
(131,716,l),
(860,716,l),
(860,744,l)
);
},
{
closed = 1;
nodes = (
(246,589,l),
(322,518,o),
(391,431,o),
(426,365,c),
(451,384,l),
(414,449,o),
(345,535,o),
(271,605,c)
);
},
{
closed = 1;
nodes = (
(842,744,l),
(842,735,l),
(834,195,o),
(823,15,o),
(793,-21,cs),
(783,-34,o),
(772,-37,o),
(755,-36,cs),
(734,-36,o),
(673,-36,o),
(609,-31,c),
(615,-39,o),
(617,-51,o),
(618,-61,c),
(671,-65,o),
(726,-66,o),
(758,-65,cs),
(787,-65,o),
(805,-58,o),
(820,-36,c),
(856,9,o),
(863,176,o),
(870,720,cs),
(870,726,o),
(870,744,o),
(870,744,c)
);
},
{
closed = 1;
nodes = (
(129,81,l),
(280,131,o),
(516,209,o),
(730,281,c),
(725,311,l),
(500,236,o),
(260,157,o),
(117,111,c)
);
}
);
vertWidth = 1000;
width = 1000;
},
{
layerId = "94DDBC6A-1627-4027-9125-871D02041BCD";
shapes = (
{
closed = 1;
nodes = (
(99,804,l),
(99,664,l),
(809,664,l),
(809,804,l)
);
},
{
closed = 1;
nodes = (
(212,544,l),
(270,483,o),
(325,406,o),
(355,344,c),
(482,427,l),
(451,482,o),
(394,555,o),
(333,616,c)
);
},
{
closed = 1;
nodes = (
(768,804,l),
(768,774,l),
(764,326,o),
(760,108,o),
(722,71,c),
(711,58,o),
(699,53,o),
(677,53,cs),
(642,53,o),
(578,53,o),
(498,58,c),
(524,19,o),
(546,-42,o),
(547,-80,c),
(613,-82,o),
(693,-84,o),
(743,-76,cs),
(792,-68,o),
(826,-51,o),
(860,0,cs),
(902,61,o),
(911,233,o),
(917,731,cs),
(917,750,o),
(917,804,o),
(917,804,c)
);
},
{
closed = 1;
nodes = (
(131,24,l),
(290,82,o),
(503,159,o),
(696,234,c),
(669,367,l),
(461,292,o),
(227,212,o),
(82,171,c)
);
}
);
vertWidth = 1000;
width = 1000;
}
);
note = cid09610;
unicode = 20064;
}
{
glyphname = uni4E6A;
layers = (
{
layerId = m01;
shapes = (
{
closed = 1;
nodes = (
(63,753,l),
(63,723,l),
(364,723,l),
(364,753,l)
);
},
{
closed = 1;
nodes = (
(354,753,l),
(80,159,o),
(67,95,o),
(67,44,cs),
(67,-13,o),
(113,-44,o),
(200,-44,cs),
(805,-44,ls),
(904,-44,o),
(923,-8,o),
(933,146,c),
(923,148,o),
(911,151,o),
(902,157,c),
(896,16,o),
(881,-16,o),
(808,-16,cs),
(193,-15,ls),
(137,-15,o),
(97,3,o),
(97,44,cs),
(97,89,o),
(112,149,o),
(381,737,c),
(382,741,o),
(384,745,o),
(385,749,c),
(367,754,l),
(359,753,l)
);
},
{
closed = 1;
nodes = (
(631,750,l),
(631,149,l),
(661,149,l),
(661,750,l)
);
},
{
closed = 1;
nodes = (
(433,764,l),
(433,136,l),
(863,136,l),
(863,764,l)
);
},
{
closed = 1;
nodes = (
(463,734,l),
(833,734,l),
(833,165,l),
(463,165,l)
);
},
{
closed = 1;
nodes = (
(449,469,l),
(449,440,l),
(842,440,l),
(842,469,l)
);
}
);
vertWidth = 1000;
width = 1000;
},
{
layerId = "94DDBC6A-1627-4027-9125-871D02041BCD";
shapes = (
{
closed = 1;
nodes = (
(71,797,l),
(71,657,l),
(333,657,l),
(333,797,l)
);
},
{
closed = 1;
nodes = (
(280,797,l),
(56,252,o),
(46,179,o),
(46,103,cs),
(46,4,o),
(117,-67,o),
(300,-67,cs),
(720,-67,ls),
(898,-67,o),
(956,-28,o),
(974,141,c),
(933,148,o),
(872,168,o),
(831,191,c),
(825,90,o),
(801,76,o),
(737,76,cs),
(274,76,ls),
(222,76,o),
(195,91,o),
(195,130,cs),
(195,187,o),
(207,251,o),
(422,746,c),
(426,753,o),
(429,766,o),
(431,773,c),
(350,799,l),
(316,797,l)
);
},
{
closed = 1;
nodes = (
(614,739,l),
(614,207,l),
(723,207,l),
(723,739,l)
);
},
{
closed = 1;
nodes = (
(440,794,l),
(440,175,l),
(908,175,l),
(908,794,l)
);
},
{
closed = 1;
nodes = (
(565,668,l),
(777,668,l),
(777,293,l),
(565,293,l)
);
},
{
closed = 1;
nodes = (
(497,539,l),
(497,422,l),
(853,422,l),
(853,539,l)
);
}
);
vertWidth = 1000;
width = 1000;
}
);
note = cid09622;
unicode = 20074;
}
{
glyphname = uni4EC5;
layers = (
{
layerId = m01;
shapes = (
{
closed = 1;
nodes = (
(363,715,l),
(363,686,l),
(874,686,l),
(874,715,l)
);
},
{
closed = 1;
nodes = (
(416,665,l),
(490,346,o),
(640,52,o),
(938,-70,c),
(943,-61,o),
(952,-50,o),
(959,-44,c),
(661,70,o),
(515,364,o),
(444,671,c)
);
},
{
closed = 1;
nodes = (
(860,715,l),
(860,708,l),
(782,301,o),
(540,50,o),
(303,-45,c),
(309,-51,o),
(318,-63,o),
(322,-71,c),
(564,32,o),
(807,284,o),
(890,710,c),
(871,717,l),
(865,715,l)
);
},
{
closed = 1;
nodes = (
(205,580,l),
(205,-69,l),
(234,-69,l),
(234,609,l),
(234,610,l)
);
},
{
closed = 1;
nodes = (
(322,823,l),
(257,657,o),
(151,497,o),
(37,393,c),
(44,387,o),
(55,375,o),
(59,369,c),
(174,480,o),
(280,643,o),
(351,815,c)
);
}
);
vertWidth = 1000;
width = 1000;
},
{
layerId = "94DDBC6A-1627-4027-9125-871D02041BCD";
shapes = (
{
closed = 1;
nodes = (
(380,753,l),
(380,618,l),
(853,618,l),
(853,753,l)
);
},
{
closed = 1;
nodes = (
(402,594,l),
(482,232,o),
(645,4,o),
(895,-94,c),
(916,-57,o),
(960,2,o),
(992,30,c),
(758,115,o),
(609,312,o),
(544,623,c)
);
},
{
closed = 1;
nodes = (
(802,753,l),
(802,722,l),
(747,386,o),
(571,136,o),
(310,26,c),
(341,-1,o),
(381,-56,o),
(401,-94,c),
(701,49,o),
(883,319,o),
(949,723,c),
(851,759,l),
(827,753,l)
);
},
{
closed = 1;
nodes = (
(156,549,l),
(156,-93,l),
(300,-93,l),
(300,689,l),
(298,691,l)
);
},
{
closed = 1;
nodes = (
(250,850,l),
(196,706,o),
(103,564,o),
(6,475,c),
(32,438,o),
(75,356,o),
(90,319,c),
(209,436,o),
(325,627,o),
(395,803,c)
);
}
);
vertWidth = 1000;
width = 1000;
}
);
note = cid09762;
unicode = 20165;
}
{
glyphname = uni4F18;
layers = (
{
layerId = m01;
shapes = (
{
closed = 1;
nodes = (
(596,457,l),
(596,29,ls),
(596,-26,o),
(615,-38,o),
(685,-38,cs),
(704,-38,o),
(847,-38,o),
(867,-38,cs),
(936,-38,o),
(946,-3,o),
(951,131,c),
(942,134,o),
(931,139,o),
(922,145,c),
(918,15,o),
(911,-9,o),
(867,-9,cs),
(847,-9,o),
(703,-9,o),
(683,-9,cs),
(635,-9,o),
(625,-1,o),
(625,29,cs),
(625,457,l)
);
},
{
closed = 1;
nodes = (
(303,585,l),
(303,556,l),
(939,556,l),
(939,585,l)
);
},
{
closed = 1;
nodes = (
(588,820,l),
(588,720,ls),
(588,282,o),
(513,68,o),
(283,-53,c),
(289,-57,o),
(298,-64,o),
(303,-69,c),
(535,52,o),
(617,269,o),
(617,720,cs),
(617,820,l)
);
},
{
closed = 1;
nodes = (
(722,789,l),
(781,748,o),
(848,688,o),
(880,648,c),
(901,664,l),
(869,706,o),
(802,764,o),
(743,804,c)
);
},
{
closed = 1;
nodes = (
(283,821,l),
(226,657,o),
(133,491,o),
(42,391,c),
(50,386,o),
(62,376,o),
(67,371,c),
(156,475,o),
(250,646,o),
(311,814,c)
);
},
{
closed = 1;
nodes = (
(190,590,l),
(190,-70,l),
(219,-70,l),
(219,617,l),
(217,618,l)
);
}
);
vertWidth = 1000;
width = 1000;
},
{
layerId = "94DDBC6A-1627-4027-9125-871D02041BCD";
shapes = (
{
closed = 1;
nodes = (
(593,443,l),
(593,98,ls),
(593,-35,o),
(622,-79,o),
(739,-79,cs),
(759,-79,o),
(812,-79,o),
(832,-79,cs),
(932,-79,o),
(967,-27,o),
(980,151,c),
(942,161,o),
(880,185,o),
(851,210,c),
(847,77,o),
(842,55,o),
(818,55,cs),
(808,55,o),
(774,55,o),
(764,55,cs),
(740,55,o),
(737,60,o),
(737,98,cs),
(737,443,l)
);
},
{
closed = 1;
nodes = (
(325,630,l),
(325,493,l),
(956,493,l),
(956,630,l)
);
},
{
closed = 1;
nodes = (
(536,844,l),
(536,709,ls),
(536,319,o),
(482,150,o),
(287,18,c),
(326,-11,o),
(370,-61,o),
(392,-100,c),
(599,45,o),
(681,270,o),
(681,709,cs),
(681,844,l)
);
},
{
closed = 1;
nodes = (
(701,759,l),
(761,708,o),
(813,654,o),
(836,617,c),
(942,700,l),
(912,739,o),
(857,791,o),
(799,834,c)
);
},
{
closed = 1;
nodes = (
(237,853,l),
(191,716,o),
(103,570,o),
(10,474,c),
(34,437,o),
(73,356,o),
(86,321,c),
(194,437,o),
(305,626,o),
(373,810,c)
);
},
{
closed = 1;
nodes = (
(147,563,l),
(147,-95,l),
(288,-95,l),
(288,700,l),
(288,701,l)
);
}
);
vertWidth = 1000;
width = 1000;
}
);
note = cid09885;
unicode = 20248;
}
{
glyphname = uni4F41;
layers = (
{
layerId = m01;
shapes = (
{
closed = 1;
nodes = (
(291,827,l),
(234,667,o),
(142,509,o),
(43,405,c),
(50,399,o),
(61,387,o),
(65,381,c),
(166,492,o),
(258,651,o),
(320,819,c)
);
},
{
closed = 1;
nodes = (
(180,588,l),
(180,-68,l),
(209,-68,l),
(209,615,l),
(207,616,l)
);
},
{
closed = 1;
nodes = (
(407,4,l),
(407,-25,l),
(849,-25,l),
(849,4,l)
);
},
{
closed = 1;
nodes = (
(390,316,l),
(390,-73,l),
(420,-73,l),
(420,286,l),
(834,286,l),
(834,-70,l),
(864,-70,l),
(864,316,l)
);
},
{
closed = 1;
nodes = (
(307,428,l),
(451,434,o),
(673,444,o),
(886,454,c),
(887,481,l),
(668,472,o),
(442,463,o),
(303,459,c)
);
},
{
closed = 1;
nodes = (
(709,655,l),
(791,569,o),
(885,449,o),
(929,372,c),
(955,388,l),
(913,464,o),
(818,582,o),
(733,669,c)
);
},
{
closed = 1;
nodes = (
(556,831,l),
(518,719,o),
(448,552,o),
(393,454,c),
(420,443,l),
(475,542,o),
(541,703,o),
(587,820,c)
);
}
);
vertWidth = 1000;
width = 1000;
},
{
layerId = "94DDBC6A-1627-4027-9125-871D02041BCD";
shapes = (
{
closed = 1;
nodes = (
(228,851,l),
(181,713,o),
(100,576,o),
(15,488,c),
(39,452,o),
(78,371,o),
(91,335,c),
(199,451,o),
(302,638,o),
(365,808,c)
);
},
{
closed = 1;
nodes = (
(130,564,l),
(130,-94,l),
(268,-94,l),
(268,701,l),
(268,702,l)
);
},
{
closed = 1;
nodes = (
(447,78,l),
(447,-55,l),
(821,-55,l),
(821,78,l)
);
},
{
closed = 1;
nodes = (
(380,333,l),
(380,-94,l),
(521,-94,l),
(521,200,l),
(745,200,l),
(745,-90,l),
(893,-90,l),
(893,333,l)
);
},
{
closed = 1;
nodes = (
(316,387,l),
(466,399,o),
(675,414,o),
(869,432,c),
(870,566,l),
(668,553,o),
(445,539,o),
(299,533,c)
);
},
{
closed = 1;
nodes = (
(664,654,l),
(738,561,o),
(818,431,o),
(849,345,c),
(985,420,l),
(948,505,o),
(870,626,o),
(792,717,c)
);
},
{
closed = 1;
nodes = (
(504,857,l),
(477,739,o),
(424,588,o),
(373,487,c),
(503,450,l),
(556,544,o),
(622,687,o),
(673,821,c)
);
}
);
vertWidth = 1000;
width = 1000;
}
);
note = cid09940;
unicode = 20289;
}
{
glyphname = uni4F62;
layers = (
{
layerId = m01;
shapes = (
{
closed = 1;
nodes = (
(322,823,l),
(260,660,o),
(152,497,o),
(41,402,c),
(48,396,o),
(59,383,o),
(63,377,c),
(177,483,o),
(288,652,o),
(350,815,c)
);
},
{
closed = 1;
nodes = (
(205,578,l),
(205,-69,l),
(234,-69,l),
(234,605,l),
(232,606,l)
);
},
{
closed = 1;
nodes = (
(436,529,l),
(436,500,l),
(874,500,l),
(874,267,l),
(436,267,l),
(436,238,l),
(903,238,l),
(903,529,l)
);
},
{
closed = 1;
nodes = (
(421,768,l),
(421,-69,l),
(450,-69,l),
(450,739,l),
(932,739,l),
(932,768,l)
);
},
{
closed = 1;
nodes = (
(436,27,l),
(436,-2,l),
(951,-2,l),
(951,27,l)
);
}
);
vertWidth = 1000;
width = 1000;
},
{
layerId = "94DDBC6A-1627-4027-9125-871D02041BCD";
shapes = (
{
closed = 1;
nodes = (
(250,850,l),
(197,709,o),
(103,564,o),
(6,475,c),
(32,438,o),
(75,356,o),
(90,319,c),
(205,433,o),
(322,619,o),
(395,803,c)
);
},
{
closed = 1;
nodes = (
(151,544,l),
(151,-93,l),
(295,-93,l),
(295,701,l),
(290,704,l)
);
},
{
closed = 1;
nodes = (
(490,579,l),
(490,438,l),
(775,438,l),
(775,322,l),
(490,322,l),
(490,181,l),
(925,181,l),
(925,579,l)
);
},
{
closed = 1;
nodes = (
(400,801,l),
(400,-96,l),
(552,-96,l),
(552,659,l),
(960,659,l),
(960,801,l)
);
},
{
closed = 1;
nodes = (
(490,90,l),
(490,-52,l),
(973,-52,l),
(973,90,l)
);
}
);
vertWidth = 1000;
width = 1000;
}
);
note = cid09989;
unicode = 20322;
}
{
glyphname = uni4FD6;
layers = (
{
layerId = m01;
shapes = (
{
closed = 1;
nodes = (
(329,742,l),
(329,713,l),
(934,713,l),
(934,742,l)
);
},
{
closed = 1;
nodes = (
(290,822,l),
(235,658,o),
(145,502,o),
(42,400,c),
(49,395,o),
(60,382,o),
(64,377,c),
(168,485,o),
(259,644,o),
(318,816,c)
);
},
{
closed = 1;
nodes = (
(196,591,l),
(196,-71,l),
(225,-71,l),
(225,619,l),
(224,621,l)
);
},
{
closed = 1;
nodes = (
(698,738,l),
(604,608,o),
(443,495,o),
(289,426,c),
(297,420,o),
(308,407,o),
(312,400,c),
(465,475,o),
(625,590,o),
(726,726,c)
);
},
{
closed = 1;
nodes = (
(599,614,l),
(599,322,l),
(628,322,l),
(628,628,l),
(618,633,l)
);
},
{
closed = 1;
nodes = (
(414,16,l),
(414,-13,l),
(860,-13,l),
(860,16,l)
);
},
{
closed = 1;
nodes = (
(395,301,l),
(395,-71,l),
(424,-71,l),
(424,272,l),
(842,272,l),
(842,-68,l),
(871,-68,l),
(871,301,l)
);
},
{
closed = 1;
nodes = (
(699,578,l),
(785,531,o),
(886,459,o),
(937,408,c),
(952,432,l),
(903,481,o),
(802,551,o),
(715,598,c)
);
}
);
vertWidth = 1000;
width = 1000;
},
{
layerId = "94DDBC6A-1627-4027-9125-871D02041BCD";
shapes = (
{
closed = 1;
nodes = (
(363,788,l),
(363,647,l),
(953,647,l),
(953,788,l)
);
},
{
closed = 1;
nodes = (
(239,850,l),
(189,707,o),
(103,564,o),
(12,475,c),
(38,438,o),
(82,356,o),
(97,319,c),
(210,437,o),
(319,629,o),
(385,805,c)
);
},
{
closed = 1;
nodes = (
(151,547,l),
(151,-95,l),
(295,-95,l),
(295,687,l),
(293,689,l)
);
},
{
closed = 1;
nodes = (
(661,761,l),
(587,635,o),
(447,530,o),
(298,470,c),
(327,442,o),
(374,379,o),
(394,348,c),
(551,426,o),
(706,556,o),
(800,711,c)
);
},
{
closed = 1;
nodes = (
(571,555,l),
(571,314,l),
(715,314,l),
(715,639,l),
(670,654,l)
);
},
{
closed = 1;
nodes = (
(464,76,l),
(464,-57,l),
(834,-57,l),
(834,76,l)
);
},
{
closed = 1;
nodes = (
(384,294,l),
(384,-91,l),
(529,-91,l),
(529,159,l),
(764,159,l),
(764,-87,l),
(917,-87,l),
(917,294,l)
);
},
{
closed = 1;
nodes = (
(693,508,l),
(763,464,o),
(855,398,o),
(896,352,c),
(986,465,l),
(941,509,o),
(845,570,o),
(777,609,c)
);
}
);
vertWidth = 1000;
width = 1000;
}
);
note = cid10176;
unicode = 20438;
}
{
glyphname = uni4FF7;
layers = (
{
layerId = m01;
shapes = (
{
closed = 1;
nodes = (
(247,822,l),
(200,664,o),
(124,508,o),
(36,404,c),
(43,399,o),
(54,386,o),
(58,380,c),
(146,491,o),
(225,650,o),
(276,816,c)
);
},
{
closed = 1;
nodes = (
(172,615,l),
(172,-70,l),
(201,-70,l),
(201,641,l),
(200,643,l)
);
},
{
closed = 1;
nodes = (
(341,775,l),
(341,746,l),
(510,746,l),
(510,775,l)
);
},
{
closed = 1;
nodes = (
(323,775,l),
(323,427,ls),
(323,284,o),
(318,87,o),
(260,-56,c),
(268,-58,o),
(280,-65,o),
(285,-70,c),
(344,75,o),
(352,281,o),
(352,427,cs),
(352,775,l)
);
},
{
closed = 1;
nodes = (
(497,775,l),
(497,-25,ls),
(497,-38,o),
(492,-41,o),
(481,-42,cs),
(471,-42,o),
(434,-43,o),
(389,-42,c),
(394,-50,o),
(400,-63,o),
(402,-70,c),
(456,-70,o),
(485,-70,o),
(503,-65,cs),
(520,-60,o),
(526,-49,o),
(526,-25,cs),
(526,775,l)
);
},
{
closed = 1;
nodes = (
(614,766,l),
(614,736,l),
(887,736,l),
(887,299,l),
(917,299,l),
(917,766,l)
);
},
{
closed = 1;
nodes = (
(602,766,l),
(602,22,ls),
(602,-46,o),
(622,-61,o),
(690,-61,cs),
(705,-61,o),
(845,-61,o),
(862,-61,cs),
(932,-61,o),
(941,-17,o),
(946,126,c),
(937,129,o),
(926,133,o),
(917,140,c),
(913,1,o),
(907,-33,o),
(863,-33,cs),
(832,-33,o),
(711,-33,o),
(688,-33,cs),
(641,-33,o),
(631,-22,o),
(631,21,cs),
(631,766,l)
);
},
{
closed = 1;
nodes = (
(618,387,l),
(618,358,l),
(901,358,l),
(901,387,l)
);
},
{
closed = 1;
nodes = (
(746,749,l),
(746,370,l),
(775,370,l),
(775,749,l)
);
},
{
closed = 1;
nodes = (
(341,543,l),
(341,514,l),
(510,514,l),
(510,543,l)
);
},
{
closed = 1;
nodes = (
(341,311,l),
(341,282,l),
(510,282,l),
(510,311,l)
);
}
);
vertWidth = 1000;
width = 1000;
},
{
layerId = "94DDBC6A-1627-4027-9125-871D02041BCD";
shapes = (
{
closed = 1;
nodes = (
(173,853,l),
(138,721,o),
(78,589,o),
(11,502,c),
(32,464,o),
(65,378,o),
(74,343,c),
(168,460,o),
(252,648,o),
(302,815,c)
);
},
{
closed = 1;
nodes = (
(109,560,l),
(109,-98,l),
(238,-98,l),
(238,688,l),
(238,689,l)
);
},
{
closed = 1;
nodes = (
(334,805,l),
(334,680,l),
(506,680,l),
(506,805,l)
);
},
{
closed = 1;
nodes = (
(284,805,l),
(284,443,ls),
(284,299,o),
(281,99,o),
(234,-38,c),
(261,-49,o),
(311,-79,o),
(332,-97,c),
(386,52,o),
(395,286,o),
(395,444,cs),
(395,805,l)
);
},
{
closed = 1;
nodes = (
(433,805,l),
(433,51,ls),
(433,40,o),
(430,37,o),
(422,37,cs),
(413,36,o),
(387,36,o),
(364,38,c),
(380,3,o),
(393,-59,o),
(395,-94,c),
(446,-94,o),
(480,-90,o),
(510,-68,cs),
(539,-45,o),
(544,-5,o),
(544,48,cs),
(544,805,l)
);
},
{
closed = 1;
nodes = (
(640,801,l),
(640,675,l),
(842,675,l),
(842,295,l),
(950,295,l),
(950,801,l)
);
},
{
closed = 1;
nodes = (
(579,801,l),
(579,95,ls),
(579,-53,o),
(614,-86,o),
(716,-86,cs),
(739,-86,o),
(821,-86,o),
(846,-86,cs),
(938,-86,o),
(971,-30,o),
(986,113,c),
(950,120,o),
(902,142,o),
(875,162,c),
(870,65,o),
(864,39,o),
(834,39,cs),
(819,39,o),
(751,39,o),
(735,39,cs),
(702,39,o),
(698,45,o),
(698,95,cs),
(698,801,l)
);
},
{
closed = 1;
nodes = (
(639,463,l),
(639,336,l),
(905,336,l),
(905,463,l)
);
},
{
closed = 1;
nodes = (
(723,740,l),
(723,402,l),
(811,402,l),
(811,740,l)
);
},
{
closed = 1;
nodes = (
(334,580,l),
(334,449,l),
(506,449,l),
(506,580,l)
);
},
{
closed = 1;
nodes = (
(334,351,l),
(334,217,l),
(506,217,l),
(506,351,l)
);
}
);
vertWidth = 1000;
width = 1000;
}
);
note = cid10225;
unicode = 20471;
}
{
glyphname = uni505D;
layers = (
{
layerId = m01;
shapes = (
{
closed = 1;
nodes = (
(316,718,l),
(316,689,l),
(524,689,l),
(524,718,l)
);
},
{
closed = 1;
nodes = (
(314,490,l),
(383,507,o),
(465,528,o),
(529,545,c),
(526,571,l),
(459,554,o),
(375,534,o),
(304,519,c)
);
},
{
closed = 1;
nodes = (
(511,831,l),
(511,482,l),
(540,482,l),
(540,831,l)
);
},
{
closed = 1;
nodes = (
(678,831,l),
(678,540,ls),
(678,495,o),
(693,486,o),
(751,486,cs),
(763,486,o),
(878,486,o),
(891,486,cs),
(938,486,o),
(948,507,o),
(952,592,c),
(943,595,o),
(931,599,o),
(923,605,c),
(921,525,o),
(917,515,o),
(888,515,cs),
(865,515,o),
(767,515,o),
(750,515,cs),
(713,515,o),
(707,519,o),
(707,540,cs),
(707,831,l)
);
},
{
closed = 1;
nodes = (
(816,415,l),
(816,-30,ls),
(816,-42,o),
(812,-46,o),
(798,-46,cs),
(785,-47,o),
(741,-47,o),
(686,-46,c),
(691,-54,o),
(695,-65,o),
(697,-72,c),
(766,-73,o),
(802,-73,o),
(821,-67,cs),
(840,-61,o),
(845,-52,o),
(845,-29,cs),
(845,415,l)
);
},
{
closed = 1;
nodes = (
(277,822,l),
(222,672,o),
(134,525,o),
(40,428,c),
(47,423,o),
(57,410,o),
(61,404,c),
(156,506,o),
(250,664,o),
(305,814,c)
);
},
{
closed = 1;
nodes = (
(180,608,l),
(180,-71,l),
(209,-71,l),
(209,635,l),
(207,636,l)
);
},
{
closed = 1;
nodes = (
(421,415,l),
(421,386,l),
(831,386,l),
(831,415,l)
);
},
{
closed = 1;
nodes = (
(407,415,l),
(407,-73,l),
(436,-73,l),
(436,415,l)
);
},
{
closed = 1;
nodes = (
(421,275,l),
(421,246,l),
(831,246,l),
(831,275,l)
);
},
{
closed = 1;
nodes = (
(421,132,l),
(421,103,l),
(831,103,l),
(831,132,l)
);
},
{
closed = 1;
nodes = (
(901,767,l),
(860,740,o),
(779,705,o),
(684,674,c),
(689,668,o),
(695,656,o),
(697,650,c),
(794,680,o),
(883,716,o),
(927,743,c)
);
}
);
vertWidth = 1000;
width = 1000;
},
{
layerId = "94DDBC6A-1627-4027-9125-871D02041BCD";
shapes = (
{
closed = 1;
nodes = (
(320,775,l),
(320,653,l),
(541,653,l),
(541,775,l)
);
},
{
closed = 1;
nodes = (
(323,466,l),
(396,481,o),
(481,501,o),
(543,518,c),
(536,632,l),
(466,617,o),
(373,600,o),
(294,588,c)
);
},
{
closed = 1;
nodes = (
(461,855,l),
(461,450,l),
(601,450,l),
(601,855,l)
);
},
{
closed = 1;
nodes = (
(639,855,l),
(639,613,ls),
(639,492,o),
(662,451,o),
(775,451,cs),
(800,451,o),
(826,451,o),
(851,451,cs),
(932,451,o),
(968,484,o),
(983,600,c),
(944,609,o),
(886,631,o),
(859,652,c),
(856,590,o),
(852,579,o),
(836,579,cs),
(824,579,o),
(813,579,o),
(801,579,cs),
(784,579,o),
(782,582,o),
(782,614,cs),
(782,855,l)
);
},
{
closed = 1;
nodes = (
(740,433,l),
(740,34,ls),
(740,22,o),
(736,18,o),
(723,18,cs),
(712,18,o),
(669,18,o),
(640,20,c),
(656,-12,o),
(674,-62,o),
(680,-98,c),
(743,-98,o),
(793,-96,o),
(832,-77,cs),
(871,-58,o),
(882,-27,o),
(882,33,cs),
(882,433,l)
);
},
{
closed = 1;
nodes = (
(217,853,l),
(171,716,o),
(91,578,o),
(8,490,c),
(31,454,o),
(69,372,o),
(81,336,c),
(181,443,o),
(285,626,o),
(351,811,c)
);
},
{
closed = 1;
nodes = (
(132,564,l),
(132,-98,l),
(273,-98,l),
(273,703,l),
(272,704,l)
);
},
{
closed = 1;
nodes = (
(442,433,l),
(442,315,l),
(830,315,l),
(830,433,l)
);
},
{
closed = 1;
nodes = (
(390,433,l),
(390,-94,l),
(528,-94,l),
(528,433,l)
);
},
{
closed = 1;
nodes = (
(443,289,l),
(443,185,l),
(831,185,l),
(831,289,l)
);
},
{
closed = 1;
nodes = (
(444,159,l),
(444,55,l),
(832,55,l),
(832,159,l)
);
},
{
closed = 1;
nodes = (
(878,820,l),
(820,777,o),
(743,739,o),
(664,716,c),
(679,684,o),
(694,644,o),
(702,610,c),
(795,632,o),
(901,672,o),
(978,712,c)
);
}
);
vertWidth = 1000;
width = 1000;
}
);
note = cid10408;
unicode = 20573;
}
{
glyphname = uni506E;
layers = (
{
layerId = m01;
shapes = (
{
closed = 1;
nodes = (
(281,830,l),
(225,678,o),
(132,523,o),
(40,428,c),
(47,423,o),
(57,410,o),
(61,404,c),
(154,500,o),
(249,661,o),
(309,822,c)
);
},
{
closed = 1;
nodes = (
(184,607,l),
(184,-71,l),
(214,-71,l),
(214,634,l),
(212,635,l)
);
},
{
closed = 1;
nodes = (
(429,767,l),
(813,767,l),
(813,601,l),
(429,601,l)
);
},
{
closed = 1;
nodes = (
(400,796,l),
(400,571,l),
(842,571,l),
(842,796,l)
);
},
{
closed = 1;
nodes = (
(307,487,l),
(307,458,l),
(938,458,l),
(938,487,l)
);
},
{
closed = 1;
nodes = (
(418,480,l),
(418,57,l),
(447,62,l),
(447,480,l)
);
},
{
closed = 1;
nodes = (
(427,356,l),
(427,327,l),
(812,327,l),
(812,356,l)
);
},
{
closed = 1;
nodes = (
(427,224,l),
(427,195,l),
(812,195,l),
(812,224,l)
);
},
{
closed = 1;
nodes = (
(795,480,l),
(795,-69,l),
(824,-69,l),
(824,480,l)
);
},
{
closed = 1;
nodes = (
(287,39,l),
(464,47,o),
(719,59,o),
(949,72,c),
(950,100,l),
(719,88,o),
(464,77,o),
(285,71,c)
);
}
);
vertWidth = 1000;
width = 1000;
},
{
layerId = "94DDBC6A-1627-4027-9125-871D02041BCD";
shapes = (
{
closed = 1;
nodes = (
(221,851,l),
(174,713,o),
(93,576,o),
(8,488,c),
(32,452,o),
(71,371,o),
(84,335,c),
(192,451,o),
(295,638,o),
(358,808,c)
);
},
{
closed = 1;
nodes = (
(132,564,l),
(132,-98,l),
(273,-98,l),
(273,705,l),
(273,706,l)
);
},
{
closed = 1;
nodes = (
(516,717,l),
(744,717,l),
(744,674,l),
(516,674,l)
);
},
{
closed = 1;
nodes = (
(380,831,l),
(380,560,l),
(884,560,l),
(884,831,l)
);
},
{
closed = 1;
nodes = (
(317,528,l),
(317,408,l),
(949,408,l),
(949,528,l)
);
},
{
closed = 1;
nodes = (
(403,446,l),
(403,47,l),
(536,55,l),
(536,446,l)
);
},
{
closed = 1;
nodes = (
(475,377,l),
(475,281,l),
(759,281,l),
(759,377,l)
);
},
{
closed = 1;
nodes = (
(475,250,l),
(475,154,l),
(764,154,l),
(764,250,l)
);
},
{
closed = 1;
nodes = (
(727,443,l),
(727,-93,l),
(861,-93,l),
(861,443,l)
);
},
{
closed = 1;
nodes = (
(303,-12,l),
(448,-7,o),
(704,5,o),
(967,21,c),
(971,136,l),
(705,125,o),
(443,116,o),
(293,113,c)
);
}
);
vertWidth = 1000;
width = 1000;
}
);
note = cid10438;
unicode = 20590;
}
{
glyphname = uni507A;
layers = (
{
layerId = m01;
shapes = (
{
closed = 1;
nodes = (
(249,823,l),
(203,660,o),
(127,502,o),
(37,397,c),
(44,391,o),
(55,379,o),
(59,374,c),
(150,485,o),
(228,646,o),
(278,817,c)
);
},
{
closed = 1;
nodes = (
(171,587,l),
(171,-70,l),
(200,-70,l),
(200,616,l),
(200,617,l)
);
},
{
closed = 1;
nodes = (
(367,673,l),
(442,410,o),
(588,356,o),
(793,356,cs),
(912,356,l),
(947,356,l),
(948,364,o),
(954,376,o),
(960,384,c),
(934,384,o),
(811,384,o),
(793,384,cs),
(605,384,o),
(460,435,o),
(393,687,c)
);
},
{
closed = 1;
nodes = (
(434,830,l),
(397,722,o),
(334,622,o),
(261,555,c),
(269,550,o),
(282,540,o),
(287,535,c),
(359,606,o),
(425,710,o),
(465,823,c)
);
},
{
closed = 1;
nodes = (
(408,729,l),
(393,700,l),
(589,700,l),
(589,729,l)
);
},
{
closed = 1;
nodes = (
(575,729,l),
(575,721,l),
(529,527,o),
(412,399,o),
(274,332,c),
(280,327,o),
(290,316,o),
(295,309,c),
(435,380,o),
(556,512,o),
(608,721,c),
(589,731,l),
(582,729,l)
);
},
{
closed = 1;
nodes = (
(387,302,l),
(387,-70,l),
(417,-70,l),
(417,273,l),
(819,273,l),
(819,-67,l),
(849,-67,l),
(849,302,l)
);
},
{
closed = 1;
nodes = (
(403,-4,l),
(403,-33,l),
(836,-33,l),
(836,-4,l)
);
},
{
closed = 1;
nodes = (
(402,150,l),
(402,121,l),
(835,121,l),
(835,150,l)
);
},
{
closed = 1;
nodes = (
(734,643,l),
(795,574,o),
(853,492,o),
(883,430,c),
(906,451,l),
(874,512,o),
(817,592,o),
(757,658,c)
);
},
{
closed = 1;
nodes = (
(765,815,l),
(746,656,o),
(696,536,o),
(609,453,c),
(616,447,o),
(625,434,o),
(629,428,c),
(719,517,o),
(774,644,o),
(795,810,c)
);
}
);
vertWidth = 1000;
width = 1000;
},
{
layerId = "94DDBC6A-1627-4027-9125-871D02041BCD";
shapes = (
{
closed = 1;
nodes = (
(176,853,l),
(140,712,o),
(78,570,o),
(8,477,c),
(29,439,o),
(62,354,o),
(71,318,c),
(168,442,o),
(254,640,o),
(305,816,c)
);
},
{
closed = 1;
nodes = (
(108,544,l),
(108,-94,l),
(234,-94,l),
(234,666,l),
(232,668,l)
);
},
{
closed = 1;
nodes = (
(329,633,l),
(432,378,o),
(617,319,o),
(824,319,cs),
(912,319,l),
(941,319,l),
(947,354,o),
(965,414,o),
(982,443,c),
(945,442,o),
(862,442,o),
(834,442,cs),
(672,443,o),
(505,482,o),
(424,674,c)
);
},
{
closed = 1;
nodes = (
(399,852,l),
(363,750,o),
(296,653,o),
(217,593,c),
(245,572,o),
(293,526,o),
(313,503,c),
(398,576,o),
(477,695,o),
(523,820,c)
);
},
{
closed = 1;
nodes = (
(424,761,l),
(374,661,l),
(569,661,l),
(569,761,l)
);
},
{
closed = 1;
nodes = (
(539,761,l),
(539,740,l),
(499,571,o),
(387,452,o),
(241,393,c),
(267,373,o),
(309,321,o),
(325,292,c),
(481,365,o),
(608,510,o),
(664,730,c),
(586,765,l),
(564,761,l)
);
},
{
closed = 1;
nodes = (
(349,321,l),
(349,-93,l),
(482,-93,l),
(482,209,l),
(740,209,l),
(740,-89,l),
(879,-89,l),
(879,321,l)
);
},
{
closed = 1;
nodes = (
(419,48,l),
(419,-63,l),
(798,-63,l),
(798,48,l)
);
},
{
closed = 1;
nodes = (
(438,177,l),
(438,81,l),
(790,81,l),
(790,177,l)
);
},
{
closed = 1;
nodes = (
(720,642,l),
(785,579,o),
(846,500,o),
(879,437,c),
(962,510,l),
(929,567,o),
(866,642,o),
(798,705,c)
);
},
{
closed = 1;
nodes = (
(745,848,l),
(723,718,o),
(675,604,o),
(595,534,c),
(617,511,o),
(653,458,o),
(666,433,c),
(767,523,o),
(828,666,o),
(860,829,c)
);
}
);
vertWidth = 1000;
width = 1000;
}
);
note = cid10459;
unicode = 20602;
}
{
glyphname = uni507B;
layers = (
{
layerId = m01;
shapes = (
{
closed = 1;
nodes = (
(293,821,l),
(235,656,o),
(142,497,o),
(40,391,c),
(47,385,o),
(58,373,o),
(62,367,c),
(162,476,o),
(262,648,o),
(321,813,c)
);
},
{
closed = 1;
nodes = (
(190,586,l),
(190,-70,l),
(219,-70,l),
(219,613,l),
(217,614,l)
);
},
{
closed = 1;
nodes = (
(328,621,l),
(328,591,l),
(941,591,l),
(941,621,l)
);
},
{
closed = 1;
nodes = (
(841,817,l),
(815,771,o),
(767,705,o),
(730,665,c),
(754,650,l),
(791,690,o),
(836,749,o),
(869,801,c)
);
},
{
closed = 1;
nodes = (
(616,831,l),
(616,376,l),
(645,376,l),
(645,831,l)
);
},
{
closed = 1;
nodes = (
(402,793,l),
(439,751,o),
(477,693,o),
(493,655,c),
(519,670,l),
(503,708,o),
(464,765,o),
(427,806,c)
);
},
{
closed = 1;
nodes = (
(602,613,l),
(547,522,o),
(434,429,o),
(330,389,c),
(338,383,o),
(346,373,o),
(350,364,c),
(455,411,o),
(568,506,o),
(625,599,c)
);
},
{
closed = 1;
nodes = (
(638,593,l),
(705,511,o),
(832,421,o),
(929,378,c),
(935,386,o),
(944,397,o),
(952,403,c),
(852,440,o),
(725,526,o),
(662,606,c)
);
},
{
closed = 1;
nodes = (
(441,119,l),
(621,66,o),
(799,-6,o),
(901,-69,c),
(921,-46,l),
(818,18,o),
(639,90,o),
(457,140,c)
);
},
{
closed = 1;
nodes = (
(571,374,l),
(522,281,o),
(459,171,o),
(407,89,c),
(437,81,l),
(488,161,o),
(550,271,o),
(600,366,c)
);
},
{
closed = 1;
nodes = (
(307,285,l),
(307,256,l),
(952,256,l),
(952,285,l)
);
},
{
closed = 1;
nodes = (
(784,275,l),
(740,88,o),
(602,-8,o),
(331,-40,c),
(338,-49,o),
(345,-61,o),
(348,-69,c),
(629,-29,o),
(771,73,o),
(815,265,c)
);
}
);
vertWidth = 1000;
width = 1000;
},
{
layerId = "94DDBC6A-1627-4027-9125-871D02041BCD";
shapes = (
{
closed = 1;
nodes = (
(237,853,l),
(187,709,o),
(100,565,o),
(10,474,c),
(34,437,o),
(73,356,o),
(86,321,c),
(193,434,o),
(304,623,o),
(373,810,c)
);
},
{
closed = 1;
nodes = (
(147,563,l),
(147,-95,l),
(288,-95,l),
(288,700,l),
(287,701,l)
);
},
{
closed = 1;
nodes = (
(327,675,l),
(327,557,l),
(953,557,l),
(953,675,l)
);
},
{
closed = 1;
nodes = (
(785,846,l),
(771,808,o),
(744,757,o),
(721,722,c),
(831,682,l),
(858,711,o),
(891,755,o),
(927,802,c)
);
},
{
closed = 1;
nodes = (
(562,856,l),
(562,388,l),
(703,388,l),
(703,856,l)
);
},
{
closed = 1;
nodes = (
(371,803,l),
(397,764,o),
(418,711,o),
(422,676,c),
(545,723,l),
(539,760,o),
(514,809,o),
(486,847,c)
);
},
{
closed = 1;
nodes = (
(537,616,l),
(489,552,o),
(391,488,o),
(304,459,c),
(331,432,o),
(362,384,o),
(377,352,c),
(469,397,o),
(575,480,o),
(631,557,c)
);
},
{
closed = 1;
nodes = (
(629,594,l),
(687,492,o),
(784,401,o),
(892,354,c),
(911,386,o),
(949,433,o),
(977,458,c),
(874,490,o),
(774,555,o),
(723,627,c)
);
},
{
closed = 1;
nodes = (
(470,88,l),
(609,45,o),
(758,-25,o),
(857,-95,c),
(960,16,l),
(853,82,o),
(697,149,o),
(556,190,c)
);
},
{
closed = 1;
nodes = (
(534,403,l),
(487,307,o),
(421,190,o),
(361,99,c),
(498,62,l),
(555,150,o),
(623,270,o),
(676,372,c)
);
},
{
closed = 1;
nodes = (
(322,330,l),
(322,210,l),
(966,210,l),
(966,330,l)
);
},
{
closed = 1;
nodes = (
(715,254,l),
(671,100,o),
(576,43,o),
(334,25,c),
(356,-3,o),
(379,-52,o),
(388,-91,c),
(678,-48,o),
(792,32,o),
(843,227,c)
);
}
);
vertWidth = 1000;
width = 1000;
}
);
note = cid10460;
unicode = 20603;
}
{
glyphname = uni5087;
layers = (
{
layerId = m01;
shapes = (
{
closed = 1;
nodes = (
(277,822,l),
(222,672,o),
(134,525,o),
(40,428,c),
(47,423,o),
(57,411,o),
(61,405,c),
(155,505,o),
(249,663,o),
(305,814,c)
);
},
{
closed = 1;
nodes = (
(180,603,l),
(180,-70,l),
(209,-70,l),
(209,625,l),
(204,627,l)
);
},
{
closed = 1;
nodes = (
(320,545,l),
(320,516,l),
(938,516,l),
(938,545,l)
);
},
{
closed = 1;
nodes = (
(492,831,l),
(492,593,l),
(521,593,l),
(521,831,l)
);
},
{
closed = 1;
nodes = (
(761,831,l),
(761,593,l),
(790,593,l),
(790,831,l)
);
},
{
closed = 1;
nodes = (
(324,721,l),
(324,692,l),
(937,692,l),
(937,721,l)
);
},
{
closed = 1;
nodes = (
(449,394,l),
(449,365,l),
(815,365,l),
(815,394,l)
);
},
{
closed = 1;
nodes = (
(449,241,l),
(449,212,l),
(815,212,l),
(815,241,l)
);
},
{
closed = 1;
nodes = (
(435,532,l),
(435,63,l),
(464,63,l),
(464,532,l)
);
},
{
closed = 1;
nodes = (
(800,532,l),
(800,-71,l),
(829,-71,l),
(829,532,l)
);
},
{
closed = 1;
nodes = (
(314,39,l),
(525,55,o),
(736,72,o),
(947,90,c),
(947,117,l),
(735,100,o),
(522,84,o),
(310,69,c)
);
}
);
vertWidth = 1000;
width = 1000;
},
{
layerId = "94DDBC6A-1627-4027-9125-871D02041BCD";
shapes = (
{
closed = 1;
nodes = (
(217,853,l),
(171,716,o),
(91,578,o),
(8,490,c),
(31,454,o),
(69,372,o),
(81,336,c),
(182,445,o),
(286,628,o),
(351,811,c)
);
},
{
closed = 1;
nodes = (
(132,560,l),
(132,-98,l),
(273,-98,l),
(273,686,l),
(263,691,l)
);
},
{
closed = 1;
nodes = (
(331,579,l),
(331,457,l),
(962,457,l),
(962,579,l)
);
},
{
closed = 1;
nodes = (
(452,854,l),
(452,593,l),
(587,593,l),
(587,854,l)
);
},
{
closed = 1;
nodes = (
(705,854,l),
(705,593,l),
(842,593,l),
(842,854,l)
);
},
{
closed = 1;
nodes = (
(342,772,l),
(342,650,l),
(959,650,l),
(959,772,l)
);
},
{
closed = 1;
nodes = (
(451,415,l),
(451,310,l),
(844,310,l),
(844,415,l)
);
},
{
closed = 1;
nodes = (
(451,270,l),
(451,165,l),
(844,165,l),
(844,270,l)
);
},
{
closed = 1;
nodes = (
(409,532,l),
(409,86,l),
(544,86,l),
(544,532,l)
);
},
{
closed = 1;
nodes = (
(742,532,l),
(742,-94,l),
(879,-94,l),
(879,532,l)
);
},
{
closed = 1;
nodes = (
(326,-11,l),
(541,-1,o),
(757,9,o),
(972,21,c),
(976,138,l),
(755,129,o),
(535,122,o),
(314,115,c)
);
}
);
vertWidth = 1000;
width = 1000;
}
);
note = cid10479;
unicode = 20615;
}
{
glyphname = uni50BC;
layers = (
{
layerId = m01;
shapes = (
{
closed = 1;
nodes = (
(264,822,l),
(213,661,o),
(132,502,o),
(39,396,c),
(47,390,o),
(58,378,o),
(62,373,c),
(154,485,o),
(237,646,o),
(292,816,c)
);
},
{
closed = 1;
nodes = (
(175,594,l),
(175,-70,l),
(204,-70,l),
(204,617,l),
(199,619,l)
);
},
{
closed = 1;
nodes = (
(299,740,l),
(299,711,l),
(939,711,l),
(939,740,l)
);
},
{
closed = 1;
nodes = (
(332,267,l),
(332,237,l),
(898,237,l),
(898,267,l)
);
},
{
closed = 1;
nodes = (
(294,154,l),
(294,125,l),
(925,125,l),
(925,154,l)
);
},
{
closed = 1;
nodes = (
(452,828,l),
(452,585,l),
(785,585,l),
(785,828,l),
(756,828,l),
(756,615,l),
(481,615,l),
(481,828,l)
);
},
{
closed = 1;
nodes = (
(381,495,l),
(850,495,l),
(850,371,l),
(381,371,l)
);
},
{
closed = 1;
nodes = (
(352,524,l),
(352,341,l),
(879,341,l),
(879,524,l)
);
},
{
closed = 1;
nodes = (
(599,603,l),
(599,267,ls),
(599,118,o),
(561,15,o),
(290,-45,c),
(297,-51,o),
(306,-62,o),
(309,-69,c),
(586,-7,o),
(629,104,o),
(629,267,cs),
(629,603,l)
);
},
{
closed = 1;
nodes = (
(615,130,l),
(663,28,o),
(776,-44,o),
(929,-72,c),
(933,-62,o),
(942,-50,o),
(950,-44,c),
(801,-23,o),
(690,43,o),
(642,139,c)
);
}
);
vertWidth = 1000;
width = 1000;
},
{
layerId = "94DDBC6A-1627-4027-9125-871D02041BCD";
shapes = (
{
closed = 1;
nodes = (
(199,848,l),
(158,714,o),
(88,580,o),
(11,493,c),
(34,455,o),
(69,370,o),
(79,334,c),
(182,450,o),
(276,638,o),
(332,807,c)
);
},
{
closed = 1;
nodes = (
(123,563,l),
(123,-95,l),
(261,-95,l),
(261,691,l),
(254,694,l)
);
},
{
closed = 1;
nodes = (
(332,792,l),
(332,684,l),
(963,684,l),
(963,792,l)
);
},
{
closed = 1;
nodes = (
(343,303,l),
(343,207,l),
(942,207,l),
(942,303,l)
);
},
{
closed = 1;
nodes = (
(320,185,l),
(320,87,l),
(964,87,l),
(964,185,l)
);
},
{
closed = 1;
nodes = (
(429,854,l),
(429,566,l),
(858,566,l),
(858,854,l),
(715,854,l),
(715,657,l),
(566,657,l),
(566,854,l)
);
},
{
closed = 1;
nodes = (
(485,452,l),
(798,452,l),
(798,418,l),
(485,418,l)
);
},
{
closed = 1;
nodes = (
(354,544,l),
(354,325,l),
(936,325,l),
(936,544,l)
);
},
{
closed = 1;
nodes = (
(574,614,l),
(574,285,ls),
(574,157,o),
(539,58,o),
(300,14,c),
(323,-11,o),
(356,-68,o),
(368,-99,c),
(658,-39,o),
(704,102,o),
(704,284,cs),
(704,614,l)
);
},
{
closed = 1;
nodes = (
(602,133,l),
(650,13,o),
(759,-70,o),
(907,-99,c),
(926,-62,o),
(965,-6,o),
(995,23,c),
(854,36,o),
(752,84,o),
(710,157,c)
);
}
);
vertWidth = 1000;
width = 1000;
}
);
note = cid10586;
unicode = 20668;
}
{
glyphname = uni50C1;
layers = (
{
layerId = m01;
shapes = (
{
closed = 1;
nodes = (
(269,822,l),
(217,659,o),
(134,498,o),
(41,392,c),
(48,386,o),
(58,375,o),
(63,368,c),
(157,482,o),
(241,644,o),
(297,815,c)
);
},
{
closed = 1;
nodes = (
(175,583,l),
(175,-69,l),
(204,-69,l),
(204,612,l),
(204,613,l)
);
},
{
closed = 1;
nodes = (
(293,558,l),
(293,529,l),
(938,529,l),
(938,558,l)
);
},
{
closed = 1;
nodes = (
(599,758,l),
(599,317,l),
(628,317,l),
(628,758,l)
);
},
{
closed = 1;
nodes = (
(874,808,l),
(756,783,o),
(522,766,o),
(335,759,c),
(339,751,o),
(343,740,o),
(344,732,c),
(533,738,o),
(765,756,o),
(899,783,c)
);
},
{
closed = 1;
nodes = (
(576,554,l),
(510,452,o),
(381,346,o),
(278,298,c),
(285,292,o),
(294,281,o),
(300,274,c),
(403,327,o),
(533,435,o),
(603,541,c)
);
},
{
closed = 1;
nodes = (
(813,726,l),
(792,683,o),
(751,617,o),
(720,578,c),
(743,566,l),
(774,603,o),
(812,662,o),
(840,711,c)
);
},
{
closed = 1;
nodes = (
(397,703,l),
(429,661,o),
(461,605,o),
(472,567,c),
(498,577,l),
(487,616,o),
(456,671,o),
(423,713,c)
);
},
{
closed = 1;
nodes = (
(374,200,l),
(359,123,o),
(328,32,o),
(274,-18,c),
(297,-37,l),
(354,17,o),
(385,112,o),
(400,192,c)
);
},
{
closed = 1;
nodes = (
(482,218,l),
(482,-3,ls),
(482,-49,o),
(500,-58,o),
(566,-58,cs),
(739,-58,ls),
(797,-58,o),
(807,-35,o),
(812,67,c),
(802,70,o),
(791,74,o),
(783,81,c),
(780,-16,o),
(774,-29,o),
(736,-29,cs),
(565,-29,ls),
(519,-29,o),
(511,-24,o),
(511,-3,cs),
(511,218,l)
);
},
{
closed = 1;
nodes = (
(522,274,l),
(585,244,o),
(659,195,o),
(697,159,c),
(718,183,l),
(681,218,o),
(606,265,o),
(543,295,c)
);
},
{
closed = 1;
nodes = (
(784,194,l),
(844,127,o),
(905,34,o),
(929,-27,c),
(954,-11,l),
(932,49,o),
(870,141,o),
(808,207,c)
);
},
{
closed = 1;
nodes = (
(621,541,l),
(695,440,o),
(816,342,o),
(934,287,c),
(940,296,o),
(948,306,o),
(955,312,c),
(839,361,o),
(719,455,o),
(645,554,c)
);
}
);
vertWidth = 1000;
width = 1000;
},
{
layerId = "94DDBC6A-1627-4027-9125-871D02041BCD";
shapes = (
{
closed = 1;
nodes = (
(190,853,l),
(148,720,o),
(76,588,o),
(-1,503,c),
(21,464,o),
(55,379,o),
(66,343,c),
(170,458,o),
(266,644,o),
(323,811,c)
);
},
{
closed = 1;
nodes = (
(107,544,l),
(107,-94,l),
(244,-94,l),
(244,677,l),
(242,679,l)
);
},
{
closed = 1;
nodes = (
(298,580,l),
(298,466,l),
(960,466,l),
(960,580,l)
);
},
{
closed = 1;
nodes = (
(556,725,l),
(556,311,l),
(695,311,l),
(695,725,l)
);
},
{
closed = 1;
nodes = (
(833,840,l),
(708,812,o),
(507,795,o),
(329,790,c),
(342,762,o),
(357,714,o),
(361,685,c),
(544,688,o),
(762,703,o),
(922,739,c)
);
},
{
closed = 1;
nodes = (
(507,526,l),
(460,455,o),
(368,385,o),
(275,348,c),
(304,323,o),
(346,274,o),
(366,243,c),
(468,293,o),
(565,385,o),
(624,482,c)
);
},
{
closed = 1;
nodes = (
(776,716,l),
(766,677,o),
(746,624,o),
(729,588,c),
(842,558,l),
(862,590,o),
(886,636,o),
(912,685,c)
);
},
{
closed = 1;
nodes = (
(350,663,l),
(371,627,o),
(394,578,o),
(401,548,c),
(528,587,l),
(518,619,o),
(492,665,o),
(469,699,c)
);
},
{
closed = 1;
nodes = (
(338,204,l),
(327,126,o),
(302,51,o),
(260,3,c),
(372,-71,l),
(414,-26,o),
(447,66,o),
(458,169,c)
);
},
{
closed = 1;
nodes = (
(451,211,l),
(451,65,ls),
(451,-46,o),
(477,-84,o),
(594,-84,cs),
(694,-84,ls),
(782,-84,o),
(816,-53,o),
(829,74,c),
(794,82,o),
(737,102,o),
(711,123,c),
(708,46,o),
(703,35,o),
(680,35,cs),
(616,35,ls),
(590,35,o),
(586,38,o),
(586,67,cs),
(586,211,l)
);
},
{
closed = 1;
nodes = (
(500,248,l),
(565,217,o),
(638,170,o),
(675,133,c),
(765,229,l),
(728,262,o),
(653,306,o),
(584,335,c)
);
},
{
closed = 1;
nodes = (
(747,177,l),
(803,94,o),
(845,-1,o),
(858,-68,c),
(988,-9,l),
(973,62,o),
(922,157,o),
(867,230,c)
);
},
{
closed = 1;
nodes = (
(637,486,l),
(682,389,o),
(777,296,o),
(883,245,c),
(904,280,o),
(946,332,o),
(977,358,c),
(877,392,o),
(783,458,o),
(735,528,c)
);
}
);
vertWidth = 1000;
width = 1000;
}
);
note = cid10594;
unicode = 20673;
}
{
glyphname = uni50D7;
layers = (
{
layerId = m01;
shapes = (
{
closed = 1;
nodes = (
(299,443,l),
(299,291,l),
(328,291,l),
(328,414,l),
(905,414,l),
(905,291,l),
(934,291,l),
(934,443,l)
);
},
{
closed = 1;
nodes = (
(591,775,l),
(574,743,o),
(543,692,o),
(520,661,c),
(543,650,l),
(567,679,o),
(596,722,o),
(619,761,c)
);
},
{
closed = 1;
nodes = (
(443,624,l),
(496,584,o),
(549,540,o),
(581,510,c),
(605,528,l),
(569,561,o),
(515,604,o),
(466,640,c)
);
},
{
closed = 1;
nodes = (
(360,264,l),
(360,235,l),
(859,235,l),
(859,264,l)
);
},
{
closed = 1;
nodes = (
(467,830,l),
(460,642,o),
(432,548,o),
(293,495,c),
(300,490,o),
(310,478,o),
(313,471,c),
(442,526,o),
(489,605,o),
(496,830,c)
);
},
{
closed = 1;
nodes = (
(845,264,l),
(845,257,l),
(834,51,o),
(822,-14,o),
(804,-34,cs),
(797,-42,o),
(788,-43,o),
(772,-43,cs),
(756,-43,o),
(703,-42,o),
(649,-37,c),
(655,-46,o),
(658,-57,o),
(659,-65,c),
(707,-69,o),
(752,-69,o),
(777,-69,cs),
(802,-69,o),
(816,-64,o),
(829,-52,cs),
(852,-27,o),
(862,42,o),
(873,245,c),
(874,252,o),
(874,263,o),
(874,264,c)
);
},
{
closed = 1;
nodes = (
(597,376,l),
(582,112,o),
(511,13,o),
(299,-45,c),
(306,-51,o),
(315,-63,o),
(318,-70,c),
(536,-8,o),
(611,102,o),
(627,376,c)
);
},
{
closed = 1;
nodes = (
(918,778,l),
(901,742,o),
(869,685,o),
(846,651,c),
(868,639,l),
(892,671,o),
(921,720,o),
(945,763,c)
);
},
{
closed = 1;
nodes = (
(755,620,l),
(826,569,o),
(893,517,o),
(928,485,c),
(950,507,l),
(910,541,o),
(844,590,o),
(777,635,c)
);
},
{
closed = 1;
nodes = (
(782,830,l),
(775,647,o),
(747,555,o),
(612,503,c),
(618,498,o),
(628,487,o),
(632,480,c),
(762,534,o),
(805,620,o),
(811,830,c)
);
},
{
closed = 1;
nodes = (
(247,821,l),
(201,663,o),
(126,507,o),
(41,403,c),
(48,398,o),
(58,386,o),
(62,380,c),
(146,485,o),
(228,653,o),
(275,814,c)
);
},
{
closed = 1;
nodes = (
(172,606,l),
(172,-71,l),
(201,-71,l),
(201,632,l),
(200,634,l)
);
},
{
closed = 1;
nodes = (
(368,775,l),
(360,728,o),
(342,675,o),
(313,646,c),
(338,630,l),
(367,663,o),
(384,718,o),
(394,767,c)
);
},
{
closed = 1;
nodes = (
(678,775,l),
(671,730,o),
(655,678,o),
(631,650,c),
(656,634,l),
(682,666,o),
(695,720,o),
(703,767,c)
);
}
);
vertWidth = 1000;
width = 1000;
},
{
layerId = "94DDBC6A-1627-4027-9125-871D02041BCD";
shapes = (
{
closed = 1;
nodes = (
(293,498,l),
(293,296,l),
(427,296,l),
(427,382,l),
(816,382,l),
(816,296,l),
(957,296,l),
(957,498,l)
);
},
{
closed = 1;
nodes = (
(565,808,l),
(552,773,o),
(531,731,o),
(512,698,c),
(579,676,l),
(599,704,o),
(622,743,o),
(646,784,c)
);
},
{
closed = 1;
nodes = (
(432,610,l),
(474,582,o),
(523,545,o),
(557,515,c),
(638,595,l),
(596,627,o),
(545,661,o),
(507,684,c)
);
},
{
closed = 1;
nodes = (
(351,303,l),
(351,183,l),
(793,183,l),
(793,303,l)
);
},
{
closed = 1;
nodes = (
(434,856,l),
(430,700,o),
(418,623,o),
(280,577,c),
(304,555,o),
(327,522,o),
(338,493,c),
(508,553,o),
(533,663,o),
(538,856,c)
);
},
{
closed = 1;
nodes = (
(765,303,l),
(765,284,l),
(761,96,o),
(745,49,o),
(734,36,cs),
(725,26,o),
(716,24,o),
(701,24,cs),
(684,24,o),
(651,25,o),
(616,28,c),
(636,-5,o),
(651,-57,o),
(653,-94,c),
(701,-95,o),
(747,-94,o),
(775,-90,cs),
(803,-86,o),
(831,-77,o),
(854,-49,cs),
(882,-16,o),
(895,66,o),
(906,253,c),
(907,269,o),
(908,303,o),
(908,303,c)
);
},
{
closed = 1;
nodes = (
(536,366,l),
(531,136,o),
(492,71,o),
(277,21,c),
(304,-6,o),
(339,-59,o),
(351,-94,c),
(601,-28,o),
(668,76,o),
(675,366,c)
);
},
{
closed = 1;
nodes = (
(893,808,l),
(875,770,o),
(849,726,o),
(825,695,c),
(901,669,l),
(926,698,o),
(954,739,o),
(982,782,c)
);
},
{
closed = 1;
nodes = (
(742,606,l),
(804,568,o),
(865,527,o),
(899,500,c),
(977,580,l),
(941,605,o),
(880,643,o),
(816,678,c)
);
},
{
closed = 1;
nodes = (
(755,856,l),
(750,676,o),
(716,621,o),
(602,577,c),
(626,554,o),
(649,522,o),
(661,495,c),
(799,549,o),
(853,640,o),
(858,856,c)
);
},
{
closed = 1;
nodes = (
(173,853,l),
(138,721,o),
(78,589,o),
(11,502,c),
(32,464,o),
(65,378,o),
(74,343,c),
(156,442,o),
(244,624,o),
(302,815,c)
);
},
{
closed = 1;
nodes = (
(109,564,l),
(109,-98,l),
(238,-98,l),
(238,696,l),
(234,698,l)
);
},
{
closed = 1;
nodes = (
(339,810,l),
(333,767,o),
(317,719,o),
(293,691,c),
(363,649,l),
(392,684,o),
(405,736,o),
(413,787,c)
);
},
{
closed = 1;
nodes = (
(657,808,l),
(651,764,o),
(635,715,o),
(611,686,c),
(678,647,l),
(707,682,o),
(720,735,o),
(728,786,c)
);
}
);
vertWidth = 1000;
width = 1000;
}
);
note = cid10634;
unicode = 20695;
}
{
glyphname = uni50E0;
layers = (
{
layerId = m01;
shapes = (
{
closed = 1;
nodes = (
(277,822,l),
(222,672,o),
(134,525,o),
(40,428,c),
(47,423,o),
(57,410,o),
(61,404,c),
(155,504,o),
(249,662,o),
(305,814,c)
);
},
{
closed = 1;
nodes = (
(180,598,l),
(180,-71,l),
(209,-71,l),
(209,625,l),
(207,626,l)
);
},
{
closed = 1;
nodes = (
(288,569,l),
(288,540,l),
(940,540,l),
(940,569,l)
);
},
{
closed = 1;
nodes = (
(385,166,l),
(385,137,l),
(847,137,l),
(847,166,l)
);
},
{
closed = 1;
nodes = (
(385,3,l),
(385,-26,l),
(847,-26,l),
(847,3,l)
);
},
{
closed = 1;
nodes = (
(596,777,l),
(596,345,l),
(625,345,l),
(625,777,l)
);
},
{
closed = 1;
nodes = (
(596,307,l),
(596,-16,l),
(625,-16,l),
(625,307,l)
);
},
{
closed = 1;
nodes = (
(853,823,l),
(741,795,o),
(509,777,o),
(329,770,c),
(332,762,o),
(337,752,o),
(338,745,c),
(557,750,o),
(751,769,o),
(879,799,c)
);
},
{
closed = 1;
nodes = (
(397,710,l),
(424,674,o),
(451,625,o),
(463,593,c),
(488,606,l),
(476,638,o),
(448,686,o),
(421,721,c)
);
},
{
closed = 1;
nodes = (
(807,743,l),
(788,704,o),
(751,644,o),
(722,607,c),
(746,595,l),
(774,629,o),
(808,682,o),
(836,728,c)
);
},
{
closed = 1;
nodes = (
(371,321,l),
(371,-64,l),
(400,-64,l),
(400,292,l),
(832,292,l),
(832,-60,l),
(861,-60,l),
(861,321,l)
);
},
{
closed = 1;
nodes = (
(570,561,l),
(505,462,o),
(387,365,o),
(264,309,c),
(272,304,o),
(281,294,o),
(286,286,c),
(409,347,o),
(528,448,o),
(595,549,c)
);
},
{
closed = 1;
nodes = (
(626,549,l),
(701,447,o),
(822,351,o),
(940,301,c),
(945,308,o),
(955,319,o),
(962,325,c),
(844,370,o),
(723,461,o),
(649,561,c)
);
}
);
vertWidth = 1000;
width = 1000;
},
{
layerId = "94DDBC6A-1627-4027-9125-871D02041BCD";
shapes = (
{
closed = 1;
nodes = (
(217,853,l),
(171,716,o),
(91,578,o),
(8,490,c),
(31,454,o),
(69,372,o),
(81,336,c),
(183,447,o),
(287,630,o),
(351,811,c)
);
},
{
closed = 1;
nodes = (
(132,560,l),
(132,-98,l),
(273,-98,l),
(273,697,l),
(270,698,l)
);
},
{
closed = 1;
nodes = (
(315,608,l),
(315,489,l),
(959,489,l),
(959,608,l)
);
},
{
closed = 1;
nodes = (
(436,180,l),
(436,82,l),
(842,82,l),
(842,180,l)
);
},
{
closed = 1;
nodes = (
(436,44,l),
(436,-62,l),
(842,-62,l),
(842,44,l)
);
},
{
closed = 1;
nodes = (
(567,761,l),
(567,337,l),
(700,337,l),
(700,761,l)
);
},
{
closed = 1;
nodes = (
(570,269,l),
(570,-22,l),
(703,-22,l),
(703,269,l)
);
},
{
closed = 1;
nodes = (
(837,859,l),
(716,834,o),
(519,820,o),
(346,817,c),
(362,782,o),
(373,741,o),
(377,714,c),
(562,714,o),
(776,728,o),
(923,760,c)
);
},
{
closed = 1;
nodes = (
(376,694,l),
(399,657,o),
(418,612,o),
(426,579,c),
(537,621,l),
(529,653,o),
(507,698,o),
(484,731,c)
);
},
{
closed = 1;
nodes = (
(780,738,l),
(768,705,o),
(747,656,o),
(730,623,c),
(829,589,l),
(849,617,o),
(874,658,o),
(900,701,c)
);
},
{
closed = 1;
nodes = (
(369,324,l),
(369,-95,l),
(503,-95,l),
(503,215,l),
(772,215,l),
(772,-91,l),
(913,-91,l),
(913,324,l)
);
},
{
closed = 1;
nodes = (
(501,540,l),
(452,468,o),
(367,404,o),
(284,370,c),
(314,343,o),
(348,304,o),
(371,268,c),
(467,316,o),
(551,405,o),
(608,499,c)
);
},
{
closed = 1;
nodes = (
(652,506,l),
(711,415,o),
(806,328,o),
(898,280,c),
(921,318,o),
(957,360,o),
(990,389,c),
(894,422,o),
(797,484,o),
(738,549,c)
);
}
);
vertWidth = 1000;
width = 1000;
}
);
note = cid10652;
unicode = 20704;
}
{
glyphname = uni50FD;
layers = (
{
layerId = m01;
shapes = (
{
closed = 1;
nodes = (
(269,822,l),
(217,658,o),
(134,498,o),
(41,392,c),
(48,386,o),
(58,375,o),
(63,368,c),
(156,481,o),
(240,641,o),
(297,815,c)
);
},
{
closed = 1;
nodes = (
(175,587,l),
(175,-71,l),
(204,-71,l),
(204,616,l),
(204,617,l)
);
},
{
closed = 1;
nodes = (
(466,218,l),
(466,-3,ls),
(466,-49,o),
(484,-58,o),
(550,-58,cs),
(608,-58,o),
(666,-58,o),
(724,-58,cs),
(782,-58,o),
(792,-35,o),
(797,67,c),
(787,70,o),
(776,74,o),
(768,81,c),
(765,-16,o),
(759,-29,o),
(721,-29,cs),
(664,-29,o),
(606,-29,o),
(549,-29,cs),
(503,-29,o),
(495,-24,o),
(495,-3,cs),
(495,218,l)
);
},
{
closed = 1;
nodes = (
(364,194,l),
(349,118,o),
(318,29,o),
(264,-18,c),
(287,-37,l),
(345,15,o),
(374,107,o),
(391,185,c)
);
},
{
closed = 1;
nodes = (
(527,247,l),
(585,209,o),
(649,153,o),
(681,113,c),
(702,132,l),
(671,171,o),
(605,226,o),
(547,262,c)
);
},
{
closed = 1;
nodes = (
(784,193,l),
(845,127,o),
(907,35,o),
(930,-26,c),
(957,-10,l),
(932,50,o),
(871,142,o),
(809,207,c)
);
},
{
closed = 1;
nodes = (
(925,706,l),
(904,658,o),
(865,586,o),
(835,542,c),
(859,528,l),
(890,573,o),
(926,637,o),
(953,692,c)
);
},
{
closed = 1;
nodes = (
(759,827,l),
(746,827,l),
(746,599,ls),
(746,560,o),
(733,385,o),
(569,295,c),
(575,289,o),
(583,280,o),
(587,274,c),
(715,347,o),
(752,473,o),
(759,521,c),
(765,473,o),
(806,345,o),
(943,274,c),
(946,281,o),
(955,292,o),
(960,298,c),
(786,381,o),
(771,560,o),
(771,599,cs),
(771,827,l)
);
},
{
closed = 1;
nodes = (
(633,700,l),
(628,637,o),
(611,565,o),
(582,522,c),
(606,508,l),
(639,554,o),
(655,632,o),
(659,695,c)
);
},
{
closed = 1;
nodes = (
(430,761,l),
(430,262,l),
(459,262,l),
(459,761,l)
);
},
{
closed = 1;
nodes = (
(276,628,l),
(276,599,l),
(581,599,l),
(581,628,l)
);
},
{
closed = 1;
nodes = (
(427,620,l),
(390,529,o),
(316,422,o),
(256,369,c),
(262,364,o),
(271,353,o),
(276,346,c),
(338,403,o),
(411,516,o),
(451,611,c)
);
},
{
closed = 1;
nodes = (
(547,810,l),
(492,787,o),
(383,764,o),
(293,751,c),
(297,744,o),
(302,734,o),
(304,727,c),
(397,740,o),
(508,762,o),
(576,789,c)
);
},
{
closed = 1;
nodes = (
(436,531,l),
(461,510,o),
(531,439,o),
(550,415,c),
(572,440,l),
(555,459,o),
(476,529,o),
(454,546,c)
);
}
);
vertWidth = 1000;
width = 1000;
},
{
layerId = "94DDBC6A-1627-4027-9125-871D02041BCD";
shapes = (
{
closed = 1;
nodes = (
(190,853,l),
(148,720,o),
(76,588,o),
(-1,503,c),
(21,464,o),
(55,379,o),
(66,343,c),
(170,458,o),
(266,644,o),
(323,811,c)
);
},
{
closed = 1;
nodes = (
(107,544,l),
(107,-94,l),
(244,-94,l),
(244,677,l),
(242,679,l)
);
},
{
closed = 1;
nodes = (
(443,199,l),
(443,64,ls),
(443,-46,o),
(468,-84,o),
(588,-84,cs),
(610,-84,o),
(665,-84,o),
(689,-84,cs),
(776,-84,o),
(810,-52,o),
(825,74,c),
(789,82,o),
(732,103,o),
(707,123,c),
(703,46,o),
(698,35,o),
(674,35,cs),
(660,35,o),
(620,35,o),
(609,35,cs),
(582,35,o),
(578,38,o),
(578,66,cs),
(578,199,l)
);
},
{
closed = 1;
nodes = (
(331,201,l),
(320,129,o),
(294,59,o),
(253,15,c),
(364,-60,l),
(416,-4,o),
(438,81,o),
(452,165,c)
);
},
{
closed = 1;
nodes = (
(493,231,l),
(550,195,o),
(618,139,o),
(647,99,c),
(740,179,l),
(706,220,o),
(636,271,o),
(579,304,c)
);
},
{
closed = 1;
nodes = (
(753,176,l),
(802,104,o),
(846,10,o),
(857,-53,c),
(987,5,l),
(973,72,o),
(924,160,o),
(873,229,c)
);
},
{
closed = 1;
nodes = (
(870,749,l),
(855,693,o),
(825,616,o),
(799,566,c),
(896,540,l),
(922,586,o),
(954,656,o),
(983,722,c)
);
},
{
closed = 1;
nodes = (
(776,840,l),
(717,840,l),
(717,605,ls),
(717,545,o),
(693,429,o),
(574,361,c),
(594,337,o),
(622,289,o),
(634,262,c),
(718,310,o),
(764,406,o),
(775,461,c),
(788,407,o),
(836,307,o),
(921,262,c),
(936,290,o),
(966,337,o),
(987,363,c),
(859,430,o),
(833,544,o),
(833,605,cs),
(833,840,l)
);
},
{
closed = 1;
nodes = (
(609,742,l),
(607,678,o),
(593,602,o),
(568,559,c),
(662,523,l),
(691,576,o),
(705,659,o),
(705,727,c)
);
},
{
closed = 1;
nodes = (
(401,759,l),
(401,268,l),
(516,268,l),
(516,759,l)
);
},
{
closed = 1;
nodes = (
(287,666,l),
(287,548,l),
(585,548,l),
(585,666,l)
);
},
{
closed = 1;
nodes = (
(385,607,l),
(362,531,o),
(313,447,o),
(258,401,c),
(276,366,o),
(301,310,o),
(310,273,c),
(381,338,o),
(432,466,o),
(460,577,c)
);
},
{
closed = 1;
nodes = (
(520,859,l),
(463,837,o),
(372,816,o),
(285,804,c),
(298,777,o),
(315,732,o),
(320,705,c),
(422,713,o),
(534,734,o),
(611,760,c)
);
},
{
closed = 1;
nodes = (
(455,516,l),
(481,483,o),
(529,409,o),
(548,370,c),
(616,463,l),
(600,481,o),
(529,546,o),
(508,562,c)
);
}
);
vertWidth = 1000;
width = 1000;
}
);
note = cid10707;
unicode = 20733;
}
{
glyphname = uni512E;
layers = (
{
layerId = m01;
shapes = (
{
closed = 1;
nodes = (
(247,822,l),
(201,663,o),
(126,507,o),
(41,403,c),
(48,399,o),
(58,386,o),
(62,380,c),
(149,491,o),
(231,659,o),
(276,815,c)
);
},
{
closed = 1;
nodes = (
(172,607,l),
(172,-70,l),
(201,-70,l),
(201,633,l),
(200,635,l)
);
},
{
closed = 1;
nodes = (
(335,784,l),
(335,755,l),
(939,755,l),
(939,784,l)
);
},
{
closed = 1;
nodes = (
(399,560,l),
(399,531,l),
(630,531,l),
(630,560,l)
);
},
{
closed = 1;
nodes = (
(680,172,l),
(680,143,l),
(894,143,l),
(894,172,l)
);
},
{
closed = 1;
nodes = (
(361,-12,l),
(361,-41,l),
(935,-41,l),
(935,-12,l)
);
},
{
closed = 1;
nodes = (
(523,674,l),
(523,286,l),
(552,286,l),
(552,674,l)
);
},
{
closed = 1;
nodes = (
(321,784,l),
(321,431,ls),
(321,289,o),
(313,101,o),
(229,-34,c),
(235,-37,o),
(248,-46,o),
(253,-52,c),
(339,87,o),
(350,285,o),
(350,431,cs),
(350,784,l)
);
},
{
closed = 1;
nodes = (
(666,290,l),
(666,-27,l),
(695,-27,l),
(695,290,l)
);
},
{
closed = 1;
nodes = (
(493,223,l),
(493,-27,l),
(522,-27,l),
(522,223,l)
);
},
{
closed = 1;
nodes = (
(528,552,l),
(493,473,o),
(440,396,o),
(389,352,c),
(395,346,o),
(404,334,o),
(409,327,c),
(461,376,o),
(515,459,o),
(550,543,c)
);
},
{
closed = 1;
nodes = (
(662,560,l),
(662,531,l),
(936,531,l),
(936,560,l)
);
},
{
closed = 1;
nodes = (
(779,674,l),
(779,286,l),
(808,286,l),
(808,674,l)
);
},
{
closed = 1;
nodes = (
(774,542,l),
(739,457,o),
(686,379,o),
(635,341,c),
(642,336,o),
(651,326,o),
(657,319,c),
(710,364,o),
(764,446,o),
(797,532,c)
);
},
{
closed = 1;
nodes = (
(796,532,l),
(831,445,o),
(881,366,o),
(926,327,c),
(931,334,o),
(941,344,o),
(948,349,c),
(901,388,o),
(850,463,o),
(816,542,c)
);
},
{
closed = 1;
nodes = (
(526,488,l),
(563,456,o),
(600,419,o),
(623,392,c),
(643,414,l),
(618,438,o),
(580,472,o),
(545,501,c)
);
},
{
closed = 1;
nodes = (
(605,714,l),
(562,693,o),
(479,672,o),
(409,659,c),
(413,653,o),
(419,642,o),
(421,636,c),
(497,648,o),
(579,669,o),
(634,692,c)
);
},
{
closed = 1;
nodes = (
(876,714,l),
(832,691,o),
(746,666,o),
(675,651,c),
(680,644,o),
(684,634,o),
(686,627,c),
(771,644,o),
(855,669,o),
(904,692,c)
);
}
);
vertWidth = 1000;
width = 1000;
},
{
layerId = "94DDBC6A-1627-4027-9125-871D02041BCD";
shapes = (
{
closed = 1;
nodes = (
(173,853,l),
(138,721,o),
(78,589,o),
(11,502,c),
(32,464,o),
(65,378,o),
(74,343,c),
(157,444,o),
(245,626,o),
(302,815,c)
);
},
{
closed = 1;
nodes = (
(109,560,l),
(109,-98,l),
(238,-98,l),
(238,692,l),
(234,694,l)
);
},
{
closed = 1;
nodes = (
(365,816,l),
(365,694,l),
(963,694,l),
(963,816,l)
);
},
{
closed = 1;
nodes = (
(448,564,l),
(448,474,l),
(678,474,l),
(678,564,l)
);
},
{
closed = 1;
nodes = (
(695,202,l),
(695,99,l),
(916,99,l),
(916,202,l)
);
},
{
closed = 1;
nodes = (
(405,44,l),
(405,-69,l),
(959,-69,l),
(959,44,l)
);
},
{
closed = 1;
nodes = (
(534,644,l),
(534,274,l),
(628,274,l),
(628,644,l)
);
},
{
closed = 1;
nodes = (
(308,816,l),
(308,457,ls),
(308,318,o),
(303,114,o),
(223,-18,c),
(260,-39,o),
(307,-74,o),
(326,-95,c),
(416,52,o),
(431,294,o),
(431,457,cs),
(431,816,l)
);
},
{
closed = 1;
nodes = (
(656,272,l),
(656,-21,l),
(770,-21,l),
(770,272,l)
);
},
{
closed = 1;
nodes = (
(492,216,l),
(492,-21,l),
(600,-21,l),
(600,216,l)
);
},
{
closed = 1;
nodes = (
(517,506,l),
(495,459,o),
(462,414,o),
(432,389,c),
(445,362,o),
(463,317,o),
(470,288,c),
(514,330,o),
(554,403,o),
(573,475,c)
);
},
{
closed = 1;
nodes = (
(696,564,l),
(696,474,l),
(949,474,l),
(949,564,l)
);
},
{
closed = 1;
nodes = (
(776,644,l),
(776,274,l),
(871,274,l),
(871,644,l)
);
},
{
closed = 1;
nodes = (
(774,515,l),
(751,448,o),
(713,386,o),
(676,354,c),
(693,341,o),
(716,316,o),
(729,299,c),
(768,336,o),
(806,410,o),
(828,491,c)
);
},
{
closed = 1;
nodes = (
(816,491,l),
(843,414,o),
(880,341,o),
(911,303,c),
(925,322,o),
(951,349,o),
(970,363,c),
(936,392,o),
(897,450,o),
(869,514,c)
);
},
{
closed = 1;
nodes = (
(574,441,l),
(600,418,o),
(628,388,o),
(645,364,c),
(691,425,l),
(674,439,o),
(646,459,o),
(617,479,c)
);
},
{
closed = 1;
nodes = (
(620,700,l),
(577,681,o),
(507,665,o),
(445,656,c),
(456,634,o),
(469,600,o),
(473,579,c),
(543,583,o),
(626,600,o),
(688,622,c)
);
},
{
closed = 1;
nodes = (
(884,701,l),
(838,682,o),
(762,669,o),
(696,661,c),
(708,639,o),
(720,604,o),
(724,583,c),
(802,587,o),
(890,603,o),
(951,623,c)
);
}
);
vertWidth = 1000;
width = 1000;
}
);
note = cid10797;
unicode = 20782;
}
{
glyphname = uni515D;
layers = (
{
layerId = m01;
shapes = (
{
closed = 1;
nodes = (
(50,710,l),
(50,681,l),
(503,681,l),
(503,710,l)
);
},
{
closed = 1;
nodes = (
(269,831,l),
(269,544,l),
(298,544,l),
(298,831,l)
);
},
{
closed = 1;
nodes = (
(116,524,l),
(440,524,l),
(440,335,l),
(116,335,l)
);
},
{
closed = 1;
nodes = (
(87,554,l),
(87,306,l),
(469,306,l),
(469,554,l)
);
},
{
closed = 1;
nodes = (
(345,322,l),
(345,21,ls),
(345,-43,o),
(377,-55,o),
(486,-55,cs),
(510,-55,o),
(803,-55,o),
(828,-55,cs),
(928,-55,o),
(943,-25,o),
(951,98,c),
(942,100,o),
(930,105,o),
(921,111,c),
(915,-5,o),
(903,-26,o),
(830,-26,cs),
(770,-26,o),
(523,-26,o),
(480,-26,cs),
(391,-26,o),
(374,-16,o),
(374,20,cs),
(374,322,l)
);
},
{
closed = 1;
nodes = (
(192,322,l),
(192,260,ls),
(192,170,o),
(172,45,o),
(45,-53,c),
(53,-58,o),
(62,-65,o),
(69,-72,c),
(198,29,o),
(221,161,o),
(221,260,cs),
(221,322,l)
);
},
{
closed = 1;
nodes = (
(558,480,l),
(558,451,l),
(841,451,l),
(841,480,l)
);
},
{
closed = 1;
nodes = (
(827,480,l),
(827,473,l),
(820,218,o),
(811,130,o),
(795,109,cs),
(788,100,o),
(782,99,o),
(769,99,cs),
(757,99,o),
(721,100,o),
(683,103,c),
(688,95,o),
(691,83,o),
(692,74,c),
(723,72,o),
(757,71,o),
(775,72,cs),
(796,73,o),
(810,78,o),
(820,91,cs),
(841,117,o),
(848,198,o),
(856,461,cs),
(856,467,o),
(856,480,o),
(856,480,c)
);
},
{
closed = 1;
nodes = (
(648,474,l),
(648,435,ls),
(648,346,o),
(634,196,o),
(469,85,c),
(477,79,o),
(487,71,o),
(492,65,c),
(661,183,o),
(677,335,o),
(677,435,cs),
(677,474,l)
);
},
{
closed = 1;
nodes = (
(624,783,l),
(624,754,l),
(793,754,l),
(793,783,l)
);
},
{
closed = 1;
nodes = (
(602,697,l),
(580,605,o),
(540,523,o),
(483,466,c),
(491,463,o),
(503,453,o),
(507,448,c),
(563,506,o),
(609,594,o),
(632,693,c)
);
},
{
closed = 1;
nodes = (
(774,783,l),
(774,763,l),
(787,763,l),
(811,629,o),
(868,517,o),
(938,457,c),
(944,464,o),
(954,473,o),
(962,478,c),
(893,534,o),
(833,649,o),
(812,783,c)
);
}
);
vertWidth = 1000;
width = 1000;
},
{
layerId = "94DDBC6A-1627-4027-9125-871D02041BCD";
shapes = (
{
closed = 1;
nodes = (
(37,777,l),
(37,651,l),
(528,651,l),
(528,777,l)
);
},
{
closed = 1;
nodes = (
(217,855,l),
(217,531,l),
(352,531,l),
(352,855,l)
);
},
{
closed = 1;
nodes = (
(206,475,l),
(360,475,l),
(360,411,l),
(206,411,l)
);
},
{
closed = 1;
nodes = (
(75,595,l),
(75,290,l),
(500,290,l),
(500,595,l)
);
},
{
closed = 1;
nodes = (
(311,321,l),
(311,82,ls),
(311,-46,o),
(359,-83,o),
(535,-83,cs),
(572,-83,o),
(742,-83,o),
(782,-83,cs),
(925,-83,o),
(966,-45,o),
(985,103,c),
(948,110,o),
(890,130,o),
(859,151,c),
(851,54,o),
(840,38,o),
(773,38,cs),
(727,38,o),
(580,38,o),
(542,38,cs),
(460,38,o),
(446,44,o),
(446,83,cs),
(446,321,l)
);
},
{
closed = 1;
nodes = (
(133,335,l),
(133,293,ls),
(133,221,o),
(120,92,o),
(12,8,c),
(42,-16,o),
(88,-66,o),
(107,-97,c),
(246,14,o),
(266,196,o),
(266,287,cs),
(266,335,l)
);
},
{
closed = 1;
nodes = (
(542,524,l),
(542,406,l),
(862,406,l),
(862,524,l)
);
},
{
closed = 1;
nodes = (
(798,524,l),
(798,504,l),
(795,318,o),
(793,247,o),
(782,231,cs),
(775,221,o),
(767,219,o),
(756,219,cs),
(742,219,o),
(720,219,o),
(693,222,c),
(711,191,o),
(724,141,o),
(726,105,c),
(766,104,o),
(802,105,o),
(826,110,cs),
(853,115,o),
(874,124,o),
(893,150,cs),
(915,180,o),
(920,269,o),
(924,478,cs),
(924,493,o),
(925,524,o),
(925,524,c)
);
},
{
closed = 1;
nodes = (
(632,485,l),
(632,446,ls),
(632,326,o),
(589,245,o),
(490,177,c),
(521,156,o),
(565,120,o),
(586,96,c),
(695,169,o),
(750,276,o),
(750,441,cs),
(750,485,l)
);
},
{
closed = 1;
nodes = (
(627,832,l),
(627,709,l),
(838,709,l),
(838,832,l)
);
},
{
closed = 1;
nodes = (
(575,721,l),
(559,640,o),
(519,575,o),
(485,550,c),
(513,521,o),
(546,483,o),
(571,451,c),
(626,495,o),
(677,589,o),
(702,695,c)
);
},
{
closed = 1;
nodes = (
(735,832,l),
(735,774,l),
(756,774,l),
(774,654,o),
(817,530,o),
(882,447,c),
(904,476,o),
(952,522,o),
(982,542,c),
(922,606,o),
(883,719,o),
(867,832,c)
);
}
);
vertWidth = 1000;
width = 1000;
}
);
note = cid10880;
unicode = 20829;
}
{
glyphname = uni516C;
layers = (
{
layerId = m01;
shapes = (
{
closed = 1;
nodes = (
(442,480,l),
(391,336,o),
(298,124,o),
(227,-6,c),
(255,-16,l),
(327,115,o),
(414,322,o),
(474,472,c)
);
},
{
closed = 1;
nodes = (
(103,-28,l),
(278,-19,o),
(568,-4,o),
(841,11,c),
(843,40,l),
(559,25,o),
(267,10,o),
(98,3,c)
);
},
{
closed = 1;
nodes = (
(640,252,l),
(733,151,o),
(844,11,o),
(897,-76,c),
(923,-60,l),
(871,26,o),
(761,163,o),
(666,265,c)
);
},
{
closed = 1;
nodes = (
(353,792,l),
(353,763,l),
(660,763,l),
(660,792,l)
);
},
{
closed = 1;
nodes = (
(632,792,l),
(632,771,l),
(647,771,l),
(696,625,o),
(806,473,o),
(934,376,c),
(940,383,o),
(951,391,o),
(959,396,c),
(828,493,o),
(716,646,o),
(669,792,c)
);
},
{
closed = 1;
nodes = (
(289,720,l),
(249,598,o),
(158,470,o),
(53,389,c),
(60,385,o),
(70,376,o),
(75,371,c),
(177,449,o),
(272,580,o),
(320,711,c)
);
}
);
vertWidth = 1000;
width = 1000;
},
{
layerId = "94DDBC6A-1627-4027-9125-871D02041BCD";
shapes = (
{
closed = 1;
nodes = (
(394,491,l),
(356,355,o),
(284,185,o),
(216,70,c),
(350,28,l),
(419,134,o),
(504,296,o),
(569,449,c)
);
},
{
closed = 1;
nodes = (
(101,-52,l),
(283,-46,o),
(546,-36,o),
(789,-24,c),
(795,118,l),
(547,110,o),
(268,103,o),
(85,100,c)
);
},
{
closed = 1;
nodes = (
(596,265,l),
(683,154,o),
(778,-1,o),
(816,-102,c),
(964,-24,l),
(918,77,o),
(826,220,o),
(734,329,c)
);
},
{
closed = 1;
nodes = (
(340,837,l),
(340,695,l),
(672,695,l),
(672,837,l)
);
},
{
closed = 1;
nodes = (
(545,837,l),
(545,760,l),
(575,760,l),
(622,615,o),
(738,456,o),
(876,348,c),
(903,395,o),
(947,445,o),
(992,477,c),
(859,551,o),
(753,690,o),
(716,837,c)
);
},
{
closed = 1;
nodes = (
(207,726,l),
(176,617,o),
(105,508,o),
(23,443,c),
(61,415,o),
(106,374,o),
(138,339,c),
(226,410,o),
(313,541,o),
(364,679,c)
);
}
);
vertWidth = 1000;
width = 1000;
}
);
note = cid62102;
unicode = 20844;
}
{
glyphname = uni5170;
layers = (
{
layerId = m01;
shapes = (
{
closed = 1;
nodes = (
(245,805,l),
(291,746,o),
(333,672,o),
(355,613,c),
(381,628,l),
(360,686,o),
(316,759,o),
(268,817,c)
);
},
{
closed = 1;
nodes = (
(729,828,l),
(697,754,o),
(654,673,o),
(616,619,c),
(639,607,l),
(676,660,o),
(722,740,o),
(758,816,c)
);
},
{
closed = 1;
nodes = (
(191,319,l),
(191,290,l),
(799,290,l),
(799,319,l)
);
},
{
closed = 1;
nodes = (
(65,22,l),
(65,-7,l),
(935,-7,l),
(935,22,l)
);
},
{
closed = 1;
nodes = (
(125,593,l),
(125,564,l),
(875,564,l),
(875,593,l)
);
}
);
vertWidth = 1000;
width = 1000;
},
{
layerId = "94DDBC6A-1627-4027-9125-871D02041BCD";
shapes = (
{
closed = 1;
nodes = (
(197,796,l),
(242,736,o),
(283,662,o),
(302,603,c),
(429,672,l),
(408,728,o),
(365,799,o),
(317,856,c)
);
},
{
closed = 1;
nodes = (
(666,856,l),
(641,787,o),
(606,714,o),
(575,667,c),
(696,621,l),
(729,665,o),
(777,736,o),
(820,805,c)
);
},
{
closed = 1;
nodes = (
(190,368,l),
(190,224,l),
(802,224,l),
(802,368,l)
);
},
{
closed = 1;
nodes = (
(63,80,l),
(63,-64,l),
(937,-64,l),
(937,80,l)
);
},
{
closed = 1;
nodes = (
(117,648,l),
(117,504,l),
(883,504,l),
(883,648,l)
);
}
);
vertWidth = 1000;
width = 1000;
}
);
note = cid10917;
unicode = 20848;
}
{
glyphname = uni5173;
layers = (
{
layerId = m01;
shapes = (
{
closed = 1;
nodes = (
(244,810,l),
(284,758,o),
(323,689,o),
(344,633,c),
(370,648,l),
(349,703,o),
(310,770,o),
(267,822,c)
);
},
{
closed = 1;
nodes = (
(728,828,l),
(704,772,o),
(659,688,o),
(625,639,c),
(648,627,l),
(683,676,o),
(726,754,o),
(757,816,c)
);
},
{
closed = 1;
nodes = (
(130,607,l),
(130,577,l),
(871,577,l),
(871,607,l)
);
},
{
closed = 1;
nodes = (
(81,356,l),
(81,327,l),
(920,327,l),
(920,356,l)
);
},
{
closed = 1;
nodes = (
(497,336,l),
(570,140,o),
(724,-6,o),
(920,-69,c),
(925,-60,o),
(934,-49,o),
(941,-43,c),
(745,13,o),
(592,157,o),
(523,345,c)
);
},
{
closed = 1;
nodes = (
(483,594,l),
(483,420,ls),
(483,273,o),
(418,84,o),
(61,-45,c),
(68,-51,o),
(77,-63,o),
(80,-69,c),
(442,66,o),
(513,263,o),
(513,420,cs),
(513,594,l)
);
}
);
vertWidth = 1000;
width = 1000;
},
{
layerId = "94DDBC6A-1627-4027-9125-871D02041BCD";
shapes = (
{
closed = 1;
nodes = (
(197,796,l),
(238,742,o),
(281,667,o),
(297,618,c),
(424,687,l),
(404,736,o),
(361,805,o),
(317,856,c)
);
},
{
closed = 1;
nodes = (
(666,856,l),
(644,796,o),
(611,729,o),
(580,682,c),
(701,636,l),
(734,676,o),
(780,741,o),
(820,805,c)
);
},
{
closed = 1;
nodes = (
(116,650,l),
(116,506,l),
(886,506,l),
(886,650,l)
);
},
{
closed = 1;
nodes = (
(65,405,l),
(65,261,l),
(937,261,l),
(937,405,l)
);
},
{
closed = 1;
nodes = (
(437,323,l),
(496,114,o),
(648,-36,o),
(860,-95,c),
(882,-51,o),
(928,17,o),
(963,52,c),
(759,93,o),
(619,202,o),
(571,357,c)
);
},
{
closed = 1;
nodes = (
(415,609,l),
(415,384,ls),
(415,260,o),
(364,127,o),
(39,37,c),
(77,3,o),
(125,-60,o),
(144,-95,c),
(510,16,o),
(587,205,o),
(587,381,cs),
(587,609,l)
);
}
);
vertWidth = 1000;
width = 1000;
}
);
note = cid10921;
unicode = 20851;
}
{
glyphname = uni5241;
layers = (
{
layerId = m01;
shapes = (
{
closed = 1;
nodes = (
(56,313,l),
(56,283,l),
(559,283,l),
(559,313,l)
);
},
{
closed = 1;
nodes = (
(298,451,l),
(298,-70,l),
(327,-70,l),
(327,451,l)
);
},
{
closed = 1;
nodes = (
(295,307,l),
(243,183,o),
(147,61,o),
(45,-9,c),
(53,-16,o),
(61,-26,o),
(65,-34,c),
(170,40,o),
(268,167,o),
(320,296,c)
);
},
{
closed = 1;
nodes = (
(641,718,l),
(641,166,l),
(671,166,l),
(671,718,l)
);
},
{
closed = 1;
nodes = (
(871,815,l),
(871,-18,ls),
(871,-35,o),
(865,-40,o),
(848,-41,cs),
(833,-42,o),
(780,-42,o),
(715,-40,c),
(721,-49,o),
(725,-63,o),
(728,-69,c),
(808,-70,o),
(848,-70,o),
(869,-65,cs),
(890,-59,o),
(902,-48,o),
(902,-17,cs),
(902,815,l)
);
},
{
closed = 1;
nodes = (
(201,795,l),
(201,766,l),
(411,766,l),
(411,795,l)
);
},
{
closed = 1;
nodes = (
(187,795,l),
(187,697,ls),
(187,607,o),
(174,509,o),
(58,434,c),
(65,430,o),
(74,419,o),
(77,411,c),
(200,492,o),
(217,599,o),
(217,697,cs),
(217,795,l)
);
},
{
closed = 1;
nodes = (
(302,220,l),
(377,173,o),
(470,101,o),
(541,33,c),
(561,56,l),
(487,124,o),
(394,194,o),
(322,239,c)
);
},
{
closed = 1;
nodes = (
(398,795,l),
(398,508,ls),
(398,463,o),
(412,455,o),
(460,455,cs),
(468,455,o),
(495,455,o),
(503,455,cs),
(552,455,o),
(561,485,o),
(563,577,c),
(554,580,o),
(543,584,o),
(534,591,c),
(532,500,o),
(528,485,o),
(500,485,cs),
(492,485,o),
(469,485,o),
(461,485,cs),
(432,485,o),
(427,489,o),
(427,508,cs),
(427,795,l)
);
}
);
vertWidth = 1000;
width = 1000;
},
{
layerId = "94DDBC6A-1627-4027-9125-871D02041BCD";
shapes = (
{
closed = 1;
nodes = (
(40,345,l),
(40,221,l),
(569,221,l),
(569,345,l)
);
},
{
closed = 1;
nodes = (
(240,447,l),
(240,-95,l),
(379,-95,l),
(379,447,l)
);
},
{
closed = 1;
nodes = (
(247,289,l),
(206,211,o),
(120,131,o),
(24,80,c),
(46,42,o),
(77,-21,o),
(89,-63,c),
(194,6,o),
(292,122,o),
(343,238,c)
);
},
{
closed = 1;
nodes = (
(599,746,l),
(599,179,l),
(734,179,l),
(734,746,l)
);
},
{
closed = 1;
nodes = (
(802,832,l),
(802,72,ls),
(802,55,o),
(796,50,o),
(779,50,cs),
(760,50,o),
(705,50,o),
(652,53,c),
(671,11,o),
(692,-55,o),
(697,-96,c),
(781,-96,o),
(845,-91,o),
(887,-67,cs),
(930,-43,o),
(943,-4,o),
(943,71,cs),
(943,832,l)
);
},
{
closed = 1;
nodes = (
(215,822,l),
(215,689,l),
(405,689,l),
(405,822,l)
);
},
{
closed = 1;
nodes = (
(135,822,l),
(135,700,ls),
(135,631,o),
(123,552,o),
(25,495,c),
(48,472,o),
(94,408,o),
(107,378,c),
(246,464,o),
(262,593,o),
(262,697,cs),
(262,822,l)
);
},
{
closed = 1;
nodes = (
(283,136,l),
(354,84,o),
(437,17,o),
(498,-39,c),
(584,76,l),
(512,122,o),
(428,173,o),
(364,207,c)
);
},
{
closed = 1;
nodes = (
(336,822,l),
(336,605,ls),
(336,487,o),
(367,450,o),
(460,450,cs),
(470,450,o),
(481,450,o),
(491,450,cs),
(548,450,o),
(573,490,o),
(581,633,c),
(552,640,o),
(518,661,o),
(493,687,c),
(491,588,o),
(488,573,o),
(478,573,cs),
(477,573,o),
(474,573,o),
(473,573,cs),
(466,573,o),
(462,577,o),
(462,607,cs),
(462,822,l)
);
}
);
vertWidth = 1000;
width = 1000;
}
);
note = cid11222;
unicode = 21057;
}
{
glyphname = uni524E;
layers = (
{
layerId = m01;
shapes = (
{
closed = 1;
nodes = (
(312,311,l),
(249,205,o),
(147,102,o),
(47,44,c),
(53,38,o),
(62,27,o),
(66,19,c),
(170,84,o),
(274,192,o),
(336,300,c)
);
},
{
closed = 1;
nodes = (
(319,486,l),
(319,-70,l),
(348,-70,l),
(348,486,l)
);
},
{
closed = 1;
nodes = (
(325,243,l),
(397,192,o),
(478,127,o),
(536,74,c),
(556,99,l),
(495,148,o),
(412,211,o),
(341,262,c)
);
},
{
closed = 1;
nodes = (
(61,332,l),
(61,303,l),
(556,303,l),
(556,332,l)
);
},
{
closed = 1;
nodes = (
(408,468,l),
(447,443,o),
(491,405,o),
(513,379,c),
(533,396,l),
(512,422,o),
(467,459,o),
(428,483,c)
);
},
{
closed = 1;
nodes = (
(482,802,l),
(387,661,o),
(217,548,o),
(61,483,c),
(68,477,o),
(78,464,o),
(82,458,c),
(240,531,o),
(414,652,o),
(509,792,c)
);
},
{
closed = 1;
nodes = (
(99,735,l),
(215,692,o),
(434,592,o),
(533,518,c),
(553,544,l),
(458,611,o),
(240,714,o),
(118,756,c)
);
},
{
closed = 1;
nodes = (
(661,713,l),
(661,170,l),
(690,170,l),
(690,713,l)
);
},
{
closed = 1;
nodes = (
(873,810,l),
(873,-17,ls),
(873,-36,o),
(866,-41,o),
(848,-42,cs),
(833,-43,o),
(776,-43,o),
(707,-42,c),
(712,-50,o),
(717,-62,o),
(720,-70,c),
(804,-70,o),
(846,-70,o),
(869,-64,cs),
(890,-59,o),
(902,-48,o),
(902,-17,cs),
(902,810,l)
);
}
);
width = 1000;
},
{
layerId = "94DDBC6A-1627-4027-9125-871D02041BCD";
shapes = (
{
closed = 1;
nodes = (
(247,283,l),
(191,200,o),
(103,119,o),
(19,74,c),
(44,44,o),
(76,-10,o),
(92,-45,c),
(187,20,o),
(286,127,o),
(349,232,c)
);
},
{
closed = 1;
nodes = (
(257,479,l),
(257,-93,l),
(388,-93,l),
(388,479,l)
);
},
{
closed = 1;
nodes = (
(294,181,l),
(351,136,o),
(427,66,o),
(491,-1,c),
(566,113,l),
(503,160,o),
(425,212,o),
(364,250,c)
);
},
{
closed = 1;
nodes = (
(40,365,l),
(40,244,l),
(558,244,l),
(558,365,l)
);
},
{
closed = 1;
nodes = (
(386,447,l),
(425,413,o),
(461,374,o),
(479,346,c),
(573,417,l),
(553,445,o),
(516,481,o),
(476,511,c)
);
},
{
closed = 1;
nodes = (
(429,829,l),
(356,714,o),
(200,605,o),
(25,547,c),
(52,521,o),
(98,466,o),
(117,437,c),
(297,512,o),
(466,645,o),
(557,781,c)
);
},
{
closed = 1;
nodes = (
(56,718,l),
(180,656,o),
(328,562,o),
(439,474,c),
(539,570,l),
(425,652,o),
(275,741,o),
(148,801,c)
);
},
{
closed = 1;
nodes = (
(611,746,l),
(611,179,l),
(745,179,l),
(745,746,l)
);
},
{
closed = 1;
nodes = (
(808,836,l),
(808,71,ls),
(808,55,o),
(802,50,o),
(786,50,cs),
(769,50,o),
(718,50,o),
(671,52,c),
(689,12,o),
(708,-51,o),
(713,-90,c),
(793,-90,o),
(852,-85,o),
(893,-62,cs),
(933,-40,o),
(945,-2,o),
(945,70,cs),
(945,836,l)
);
}
);
width = 1000;
}
);
unicode = 21070;
}
{
glyphname = uni5262;
layers = (
{
layerId = m01;
shapes = (
{
closed = 1;
nodes = (
(81,750,l),
(81,721,l),
(585,721,l),
(585,750,l)
);
},
{
closed = 1;
nodes = (
(268,601,l),
(467,396,o),
(450,41,o),
(370,-20,cs),
(348,-37,o),
(327,-39,o),
(298,-39,cs),
(279,-39,o),
(242,-38,o),
(206,-35,c),
(210,-44,o),
(213,-56,o),
(214,-66,c),
(248,-68,o),
(284,-69,o),
(304,-69,cs),
(344,-69,o),
(366,-62,o),
(394,-40,cs),
(487,33,o),
(497,410,o),
(290,616,c)
);
},
{
closed = 1;
nodes = (
(347,513,l),
(279,415,o),
(150,312,o),
(45,265,c),
(52,259,o),
(61,248,o),
(66,240,c),
(170,292,o),
(303,398,o),
(371,501,c)
);
},
{
closed = 1;
nodes = (
(407,377,l),
(315,243,o),
(175,113,o),
(44,40,c),
(52,34,o),
(61,24,o),
(67,16,c),
(198,95,o),
(339,229,o),
(431,363,c)
);
},
{
closed = 1;
nodes = (
(562,562,l),
(522,509,o),
(453,435,o),
(402,388,c),
(424,370,l),
(475,417,o),
(540,484,o),
(587,545,c)
);
},
{
closed = 1;
nodes = (
(384,745,l),
(321,642,o),
(194,539,o),
(54,475,c),
(60,468,o),
(70,453,o),
(73,447,c),
(217,520,o),
(348,631,o),
(412,735,c)
);
},
{
closed = 1;
nodes = (
(403,371,l),
(470,302,o),
(539,214,o),
(580,147,c),
(599,166,l),
(561,230,o),
(493,314,o),
(422,386,c)
);
},
{
closed = 1;
nodes = (
(661,713,l),
(661,170,l),
(690,170,l),
(690,713,l)
);
},
{
closed = 1;
nodes = (
(873,809,l),
(873,-18,ls),
(873,-37,o),
(866,-42,o),
(848,-43,cs),
(833,-44,o),
(776,-44,o),
(707,-43,c),
(712,-51,o),
(717,-63,o),
(720,-71,c),
(804,-71,o),
(846,-71,o),
(869,-65,cs),
(890,-60,o),
(902,-49,o),
(902,-18,cs),
(902,809,l)
);
},
{
closed = 1;
nodes = (
(132,425,l),
(190,376,o),
(245,315,o),
(275,266,c),
(294,286,l),
(265,333,o),
(210,392,o),
(151,441,c)
);
}
);
vertWidth = 1000;
width = 1000;
},
{
layerId = "94DDBC6A-1627-4027-9125-871D02041BCD";
shapes = (
{
closed = 1;
nodes = (
(75,796,l),
(75,678,l),
(584,678,l),
(584,796,l)
);
},
{
closed = 1;
nodes = (
(213,554,l),
(345,418,o),
(375,132,o),
(328,66,cs),
(310,41,o),
(281,38,o),
(258,38,cs),
(246,38,o),
(209,39,o),
(179,43,c),
(200,5,o),
(210,-52,o),
(211,-92,c),
(241,-94,o),
(270,-93,o),
(299,-93,cs),
(365,-92,o),
(414,-66,o),
(447,-23,cs),
(536,93,o),
(495,460,o),
(312,629,c)
);
},
{
closed = 1;
nodes = (
(290,530,l),
(235,439,o),
(127,349,o),
(19,302,c),
(45,280,o),
(82,236,o),
(100,208,c),
(215,268,o),
(327,375,o),
(394,491,c)
);
},
{
closed = 1;
nodes = (
(350,390,l),
(284,272,o),
(154,155,o),
(11,87,c),
(38,64,o),
(77,18,o),
(96,-11,c),
(241,68,o),
(380,206,o),
(457,347,c)
);
},
{
closed = 1;
nodes = (
(495,579,l),
(457,526,o),
(392,458,o),
(344,417,c),
(436,348,l),
(485,387,o),
(549,447,o),
(602,504,c)
);
},
{
closed = 1;
nodes = (
(341,753,l),
(279,656,o),
(157,577,o),
(30,532,c),
(56,508,o),
(98,454,o),
(116,427,c),
(249,488,o),
(385,588,o),
(464,711,c)
);
},
{
closed = 1;
nodes = (
(362,304,l),
(427,245,o),
(501,161,o),
(531,102,c),
(616,193,l),
(584,251,o),
(506,329,o),
(440,384,c)
);
},
{
closed = 1;
nodes = (
(613,746,l),
(613,179,l),
(747,179,l),
(747,746,l)
);
},
{
closed = 1;
nodes = (
(808,836,l),
(808,71,ls),
(808,55,o),
(802,50,o),
(786,50,cs),
(769,50,o),
(718,50,o),
(671,52,c),
(689,12,o),
(708,-51,o),
(713,-90,c),
(793,-90,o),
(852,-85,o),
(893,-62,cs),
(933,-40,o),
(945,-2,o),
(945,70,cs),
(945,836,l)
);
},
{
closed = 1;
nodes = (
(83,389,l),
(134,330,o),
(174,265,o),
(187,220,c),
(283,291,l),
(268,335,o),
(225,398,o),
(172,453,c)
);
}
);
vertWidth = 1000;
width = 1000;
}
);
note = cid11272;
unicode = 21090;
}
{
glyphname = uni529E;
layers = (
{
layerId = m01;
shapes = (
{
closed = 1;
nodes = (
(95,633,l),
(95,604,l),
(716,604,l),
(716,633,l)
);
},
{
closed = 1;
nodes = (
(705,633,l),
(705,625,l),
(688,180,o),
(670,11,o),
(634,-26,cs),
(623,-38,o),
(612,-40,o),
(590,-40,cs),
(567,-40,o),
(498,-39,o),
(425,-32,c),
(430,-41,o),
(433,-53,o),
(434,-63,c),
(496,-67,o),
(561,-70,o),
(594,-69,cs),
(625,-68,o),
(644,-62,o),
(661,-42,cs),
(701,2,o),
(717,165,o),
(734,611,cs),
(734,617,o),
(734,633,o),
(734,633,c)
);
},
{
closed = 1;
nodes = (
(417,831,l),
(417,690,ls),
(417,448,o),
(398,146,o),
(51,-49,c),
(58,-55,o),
(68,-65,o),
(72,-71,c),
(423,129,o),
(446,441,o),
(446,690,cs),
(446,831,l)
);
},
{
closed = 1;
nodes = (
(186,489,l),
(166,369,o),
(117,269,o),
(50,211,c),
(72,192,l),
(142,255,o),
(192,358,o),
(212,481,c)
);
},
{
closed = 1;
nodes = (
(806,484,l),
(861,386,o),
(905,272,o),
(920,190,c),
(950,199,l),
(934,281,o),
(889,394,o),
(834,493,c)
);
}
);
vertWidth = 1000;
width = 1000;
},
{
layerId = "94DDBC6A-1627-4027-9125-871D02041BCD";
shapes = (
{
closed = 1;
nodes = (
(78,691,l),
(78,544,l),
(685,544,l),
(685,691,l)
);
},
{
closed = 1;
nodes = (
(608,691,l),
(608,659,l),
(604,288,o),
(591,107,o),
(561,75,cs),
(548,61,o),
(537,57,o),
(518,57,cs),
(490,57,o),
(439,57,o),
(382,62,c),
(409,18,o),
(431,-50,o),
(433,-94,c),
(493,-95,o),
(556,-96,o),
(596,-88,cs),
(642,-80,o),
(674,-66,o),
(707,-20,cs),
(747,34,o),
(758,208,o),
(766,619,cs),
(766,639,o),
(767,691,o),
(767,691,c)
);
},
{
closed = 1;
nodes = (
(330,852,l),
(330,625,ls),
(330,421,o),
(303,160,o),
(25,25,c),
(62,-3,o),
(113,-59,o),
(141,-102,c),
(450,73,o),
(490,380,o),
(490,624,cs),
(490,852,l)
);
},
{
closed = 1;
nodes = (
(140,508,l),
(121,398,o),
(71,307,o),
(9,254,c),
(135,169,l),
(197,236,o),
(253,344,o),
(280,471,c)
);
},
{
closed = 1;
nodes = (
(753,474,l),
(799,370,o),
(835,249,o),
(847,161,c),
(991,219,l),
(977,300,o),
(937,417,o),
(888,521,c)
);
}
);
vertWidth = 1000;
width = 1000;
}
);
note = cid11380;
unicode = 21150;
}
{
glyphname = uni52A8;
layers = (
{
layerId = m01;
shapes = (
{
closed = 1;
nodes = (
(85,744,l),
(85,715,l),
(442,715,l),
(442,744,l)
);
},
{
closed = 1;
nodes = (
(50,500,l),
(50,471,l),
(467,471,l),
(467,500,l)
);
},
{
closed = 1;
nodes = (
(212,489,l),
(188,357,o),
(154,209,o),
(123,105,c),
(151,97,l),
(183,202,o),
(219,350,o),
(244,481,c)
);
},
{
closed = 1;
nodes = (
(57,71,l),
(158,91,o),
(306,122,o),
(441,151,c),
(439,178,l),
(296,148,o),
(144,118,o),
(44,100,c)
);
},
{
closed = 1;
nodes = (
(336,354,l),
(389,262,o),
(435,148,o),
(454,59,c),
(483,70,l),
(464,159,o),
(417,272,o),
(363,364,c)
);
},
{
closed = 1;
nodes = (
(479,596,l),
(479,567,l),
(919,567,l),
(919,596,l)
);
},
{
closed = 1;
nodes = (
(908,596,l),
(908,587,l),
(895,161,o),
(879,13,o),
(849,-20,c),
(840,-32,o),
(829,-34,o),
(811,-33,cs),
(791,-33,o),
(735,-33,o),
(674,-28,c),
(679,-36,o),
(682,-49,o),
(683,-58,c),
(734,-62,o),
(787,-64,o),
(816,-63,cs),
(844,-62,o),
(861,-56,o),
(875,-37,c),
(911,4,o),
(922,141,o),
(937,573,c),
(937,579,o),
(937,596,o),
(937,596,c)
);
},
{
closed = 1;
nodes = (
(661,829,l),
(661,552,ls),
(661,353,o),
(636,121,o),
(405,-52,c),
(413,-58,o),
(423,-66,o),
(429,-72,c),
(662,107,o),
(691,339,o),
(691,552,cs),
(691,829,l)
);
}
);
vertWidth = 1000;
width = 1000;
},
{
layerId = "94DDBC6A-1627-4027-9125-871D02041BCD";
shapes = (
{
closed = 1;
nodes = (
(66,780,l),
(66,647,l),
(430,647,l),
(430,780,l)
);
},
{
closed = 1;
nodes = (
(36,553,l),
(36,418,l),
(455,418,l),
(455,553,l)
);
},
{
closed = 1;
nodes = (
(133,478,l),
(119,367,o),
(95,239,o),
(69,147,c),
(189,121,l),
(220,214,o),
(254,342,o),
(278,454,c)
);
},
{
closed = 1;
nodes = (
(56,29,l),
(161,51,o),
(313,86,o),
(451,119,c),
(439,247,l),
(284,215,o),
(120,185,o),
(13,168,c)
);
},
{
closed = 1;
nodes = (
(277,338,l),
(319,246,o),
(352,136,o),
(363,54,c),
(495,97,l),
(480,179,o),
(443,287,o),
(398,375,c)
);
},
{
closed = 1;
nodes = (
(472,664,l),
(472,522,l),
(872,522,l),
(872,664,l)
);
},
{
closed = 1;
nodes = (
(817,664,l),
(817,633,l),
(809,246,o),
(798,97,o),
(773,67,c),
(763,52,o),
(753,48,o),
(737,48,cs),
(715,48,o),
(678,48,o),
(635,52,c),
(659,12,o),
(676,-50,o),
(678,-90,c),
(729,-91,o),
(778,-91,o),
(812,-84,cs),
(850,-76,o),
(876,-63,o),
(903,-23,cs),
(938,27,o),
(950,182,o),
(961,599,c),
(962,617,o),
(962,664,o),
(962,664,c)
);
},
{
closed = 1;
nodes = (
(583,848,l),
(583,530,ls),
(583,362,o),
(557,163,o),
(358,5,c),
(396,-21,o),
(446,-61,o),
(473,-95,c),
(692,78,o),
(731,315,o),
(731,530,cs),
(731,848,l)
);
}
);
vertWidth = 1000;
width = 1000;
}
);
note = cid11393;
unicode = 21160;
}
{
glyphname = uni535F;
layers = (
{
layerId = m01;
shapes = (
{
closed = 1;
nodes = (
(121,716,l),
(121,687,l),
(373,687,l),
(373,248,l),
(121,248,l),
(121,219,l),
(402,219,l),
(402,716,l)
);
},
{
closed = 1;
nodes = (
(107,716,l),
(107,126,l),
(136,126,l),
(136,716,l)
);
},
{
closed = 1;
nodes = (
(578,831,l),
(578,-68,l),
(607,-68,l),
(607,831,l)
);
},
{
closed = 1;
nodes = (
(585,492,l),
(714,423,o),
(847,340,o),
(930,278,c),
(949,303,l),
(863,366,o),
(730,447,o),
(604,513,c)
);
}
);
vertWidth = 1000;
width = 1000;
},
{
layerId = "94DDBC6A-1627-4027-9125-871D02041BCD";
shapes = (
{
closed = 1;
nodes = (
(119,750,l),
(119,607,l),
(285,607,l),
(285,311,l),
(119,311,l),
(119,168,l),
(435,168,l),
(435,750,l)
);
},
{
closed = 1;
nodes = (
(61,750,l),
(61,97,l),
(212,97,l),
(212,750,l)
);
},
{
closed = 1;
nodes = (
(529,842,l),
(529,-94,l),
(681,-94,l),
(681,842,l)
);
},
{
closed = 1;
nodes = (
(578,428,l),
(678,374,o),
(803,295,o),
(902,225,c),
(994,354,l),
(889,421,o),
(760,496,o),
(660,547,c)
);
}
);
vertWidth = 1000;
width = 1000;
}
);
note = cid11692;
unicode = 21343;
}
{
glyphname = uni53D1;
layers = (
{
layerId = m01;
shapes = (
{
closed = 1;
nodes = (
(360,400,l),
(457,157,o),
(660,-10,o),
(931,-74,c),
(935,-66,o),
(943,-56,o),
(950,-50,c),
(678,10,o),
(478,176,o),
(385,410,c)
);
},
{
closed = 1;
nodes = (
(754,426,l),
(754,420,l),
(681,189,o),
(498,21,o),
(243,-50,c),
(249,-56,o),
(257,-66,o),
(260,-73,c),
(522,2,o),
(710,178,o),
(785,419,c),
(766,428,l),
(760,426,l)
);
},
{
closed = 1;
nodes = (
(378,426,l),
(370,397,l),
(760,397,l),
(760,426,l)
);
},
{
closed = 1;
nodes = (
(218,795,l),
(194,705,o),
(159,592,o),
(127,503,c),
(156,498,l),
(187,583,o),
(223,696,o),
(248,791,c)
);
},
{
closed = 1;
nodes = (
(165,587,l),
(165,557,l),
(916,557,l),
(916,587,l)
);
},
{
closed = 1;
nodes = (
(421,832,l),
(411,429,o),
(277,122,o),
(47,-24,c),
(55,-28,o),
(67,-36,o),
(74,-42,c),
(305,107,o),
(440,421,o),
(450,832,c)
);
},
{
closed = 1;
nodes = (
(623,791,l),
(693,754,o),
(774,699,o),
(815,657,c),
(834,681,l),
(794,721,o),
(712,776,o),
(642,810,c)
);
}
);
vertWidth = 1000;
width = 1000;
},
{
layerId = "94DDBC6A-1627-4027-9125-871D02041BCD";
shapes = (
{
closed = 1;
nodes = (
(316,362,l),
(424,112,o),
(593,-36,o),
(896,-96,c),
(916,-56,o),
(956,6,o),
(987,37,c),
(701,80,o),
(525,202,o),
(441,398,c)
);
},
{
closed = 1;
nodes = (
(728,445,l),
(728,421,l),
(663,213,o),
(506,84,o),
(255,33,c),
(283,1,o),
(316,-57,o),
(332,-96,c),
(623,-25,o),
(807,141,o),
(886,404,c),
(784,451,l),
(757,445,l)
);
},
{
closed = 1;
nodes = (
(395,445,l),
(353,305,l),
(749,305,l),
(749,445,l)
);
},
{
closed = 1;
nodes = (
(161,837,l),
(134,725,o),
(94,593,o),
(58,494,c),
(212,472,l),
(245,567,o),
(284,699,o),
(313,815,c)
);
},
{
closed = 1;
nodes = (
(160,652,l),
(160,514,l),
(954,514,l),
(954,652,l)
);
},
{
closed = 1;
nodes = (
(380,855,l),
(380,522,o),
(240,211,o),
(17,48,c),
(67,19,o),
(112,-18,o),
(142,-57,c),
(382,144,o),
(532,495,o),
(532,855,c)
);
},
{
closed = 1;
nodes = (
(594,757,l),
(662,726,o),
(733,683,o),
(780,644,c),
(878,752,l),
(826,789,o),
(752,829,o),
(686,855,c)
);
}
);
vertWidth = 1000;
width = 1000;
}
);
note = cid11872;
unicode = 21457;
}
{
glyphname = uni53EA;
layers = (
{
layerId = m01;
shapes = (
{
closed = 1;
nodes = (
(175,755,l),
(175,271,l),
(842,271,l),
(842,755,l)
);
},
{
closed = 1;
nodes = (
(204,725,l),
(813,725,l),
(813,300,l),
(204,300,l)
);
},
{
closed = 1;
nodes = (
(614,174,l),
(718,101,o),
(840,-4,o),
(899,-72,c),
(920,-54,l),
(861,15,o),
(738,118,o),
(634,189,c)
);
},
{
closed = 1;
nodes = (
(358,193,l),
(298,105,o),
(179,10,o),
(72,-51,c),
(78,-56,o),
(87,-66,o),
(91,-72,c),
(201,-10,o),
(319,89,o),
(387,182,c)
);
}
);
vertWidth = 1000;
width = 1000;
},
{
layerId = "94DDBC6A-1627-4027-9125-871D02041BCD";
shapes = (
{
closed = 1;
nodes = (
(152,798,l),
(152,267,l),
(875,267,l),
(875,798,l)
);
},
{
closed = 1;
nodes = (
(299,659,l),
(721,659,l),
(721,406,l),
(299,406,l)
);
},
{
closed = 1;
nodes = (
(552,134,l),
(643,65,o),
(764,-35,o),
(818,-99,c),
(953,-9,l),
(890,58,o),
(763,151,o),
(676,213,c)
);
},
{
closed = 1;
nodes = (
(308,211,l),
(253,144,o),
(139,58,o),
(36,8,c),
(72,-17,o),
(128,-64,o),
(160,-96,c),
(263,-37,o),
(381,57,o),
(466,148,c)
);
}
);
vertWidth = 1000;
width = 1000;
}
);
note = cid11909;
unicode = 21482;
}
{
glyphname = uni53FB;
layers = (
{
layerId = m01;
shapes = (
{
closed = 1;
nodes = (
(102,678,l),
(102,649,l),
(324,649,l),
(324,222,l),
(102,222,l),
(102,193,l),
(353,193,l),
(353,678,l)
);
},
{
closed = 1;
nodes = (
(87,678,l),
(87,78,l),
(116,78,l),
(116,678,l)
);
},
{
closed = 1;
nodes = (
(394,595,l),
(394,566,l),
(854,566,l),
(854,595,l)
);
},
{
closed = 1;
nodes = (
(842,595,l),
(830,160,o),
(810,12,o),
(784,-23,cs),
(773,-35,o),
(764,-38,o),
(746,-38,cs),
(725,-38,o),
(670,-37,o),
(608,-33,c),
(614,-41,o),
(616,-54,o),
(617,-63,c),
(669,-67,o),
(721,-68,o),
(750,-67,cs),
(777,-66,o),
(795,-62,o),
(810,-41,cs),
(841,3,o),
(860,129,o),
(871,595,c)
);
},
{
closed = 1;
nodes = (
(566,831,l),
(566,553,ls),
(566,354,o),
(540,122,o),
(310,-52,c),
(318,-56,o),
(328,-65,o),
(334,-71,c),
(567,108,o),
(595,341,o),
(595,553,cs),
(595,831,l)
);
}
);
width = 1000;
},
{
layerId = "94DDBC6A-1627-4027-9125-871D02041BCD";
shapes = (
{
closed = 1;
nodes = (
(129,708,l),
(129,574,l),
(245,574,l),
(245,278,l),
(129,278,l),
(129,144,l),
(381,144,l),
(381,708,l)
);
},
{
closed = 1;
nodes = (
(52,708,l),
(52,64,l),
(188,64,l),
(188,708,l)
);
},
{
closed = 1;
nodes = (
(416,646,l),
(416,504,l),
(843,504,l),
(843,646,l)
);
},
{
closed = 1;
nodes = (
(783,646,l),
(774,254,o),
(764,105,o),
(740,74,cs),
(729,60,o),
(720,56,o),
(703,56,cs),
(682,56,o),
(645,56,o),
(602,60,c),
(626,21,o),
(643,-40,o),
(645,-81,c),
(696,-82,o),
(745,-82,o),
(779,-75,cs),
(816,-67,o),
(842,-55,o),
(870,-15,cs),
(904,33,o),
(916,182,o),
(927,646,c)
);
},
{
closed = 1;
nodes = (
(541,854,l),
(541,504,ls),
(541,337,o),
(512,154,o),
(316,11,c),
(353,-16,o),
(402,-57,o),
(428,-91,c),
(648,67,o),
(689,289,o),
(689,504,cs),
(689,854,l)
);
}
);
width = 1000;
}
);
note = cid11934;
unicode = 21499;
}
{
glyphname = uni53FC;
layers = (
{
layerId = m01;
shapes = (
{
closed = 1;
nodes = (
(84,732,l),
(84,101,l),
(113,101,l),
(113,732,l)
);
},
{
closed = 1;
nodes = (
(102,732,l),
(102,703,l),
(297,703,l),
(297,218,l),
(102,218,l),
(102,189,l),
(329,189,l),
(329,732,l)
);
},
{
closed = 1;
nodes = (
(396,772,l),
(396,743,l),
(902,743,l),
(902,772,l)
);
},
{
closed = 1;
nodes = (
(887,772,l),
(869,199,o),
(847,24,o),
(810,-16,cs),
(799,-28,o),
(788,-31,o),
(768,-31,cs),
(744,-31,o),
(678,-30,o),
(604,-25,c),
(610,-33,o),
(613,-45,o),
(614,-55,c),
(674,-59,o),
(736,-61,o),
(771,-60,cs),
(802,-59,o),
(823,-54,o),
(839,-32,cs),
(880,24,o),
(900,178,o),
(917,772,c)
);
},
{
closed = 1;
nodes = (
(411,248,l),
(529,317,o),
(682,408,o),
(807,483,c),
(795,509,l),
(672,436,o),
(516,345,o),
(391,274,c)
);
}
);
width = 1000;
},
{
layerId = "94DDBC6A-1627-4027-9125-871D02041BCD";
shapes = (
{
closed = 1;
nodes = (
(53,751,l),
(53,62,l),
(187,62,l),
(187,751,l)
);
},
{
closed = 1;
nodes = (
(160,751,l),
(160,617,l),
(235,617,l),
(235,293,l),
(160,293,l),
(160,159,l),
(369,159,l),
(369,751,l)
);
},
{
closed = 1;
nodes = (
(406,806,l),
(406,667,l),
(870,667,l),
(870,806,l)
);
},
{
closed = 1;
nodes = (
(807,806,l),
(797,296,o),
(782,110,o),
(757,74,cs),
(744,55,o),
(731,51,o),
(711,51,cs),
(687,51,o),
(644,51,o),
(595,57,c),
(622,14,o),
(641,-52,o),
(643,-94,c),
(697,-95,o),
(752,-96,o),
(789,-88,cs),
(830,-79,o),
(856,-65,o),
(886,-19,cs),
(925,41,o),
(937,220,o),
(953,806,c)
);
},
{
closed = 1;
nodes = (
(470,206,l),
(569,263,o),
(684,331,o),
(782,390,c),
(736,507,l),
(618,447,o),
(476,379,o),
(394,342,c)
);
}
);
width = 1000;
}
);
note = cid11935;
unicode = 21500;
}
{
glyphname = uni540D;
layers = (
{
layerId = m01;
shapes = (
{
closed = 1;
nodes = (
(339,21,l),
(339,-9,l),
(856,-9,l),
(856,21,l)
);
},
{
closed = 1;
nodes = (
(358,728,l),
(358,699,l),
(813,699,l),
(813,728,l)
);
},
{
closed = 1;
nodes = (
(431,831,l),
(373,734,o),
(254,613,o),
(92,529,c),
(99,524,o),
(109,516,o),
(114,509,c),
(279,597,o),
(398,719,o),
(466,825,c)
);
},
{
closed = 1;
nodes = (
(802,728,l),
(802,722,l),
(682,506,o),
(378,306,o),
(66,237,c),
(72,230,o),
(79,218,o),
(82,209,c),
(400,281,o),
(710,491,o),
(832,718,c),
(815,730,l),
(809,728,l)
);
},
{
closed = 1;
nodes = (
(235,602,l),
(337,533,o),
(435,455,o),
(489,400,c),
(511,422,l),
(455,478,o),
(357,554,o),
(258,620,c)
);
},
{
closed = 1;
nodes = (
(841,329,l),
(841,-69,l),
(870,-69,l),
(870,329,l)
);
},
{
closed = 1;
nodes = (
(355,329,l),
(354,329,l),
(326,298,l),
(326,-70,l),
(355,-70,l),
(355,299,l),
(853,299,l),
(853,329,l)
);
}
);
vertWidth = 1000;
width = 1000;
},
{
layerId = "94DDBC6A-1627-4027-9125-871D02041BCD";
shapes = (
{
closed = 1;
nodes = (
(391,75,l),
(391,-56,l),
(789,-56,l),
(789,75,l)
);
},
{
closed = 1;
nodes = (
(324,758,l),
(324,627,l),
(761,627,l),
(761,758,l)
);
},
{
closed = 1;
nodes = (
(368,862,l),
(307,768,o),
(199,673,o),
(34,605,c),
(67,580,o),
(113,524,o),
(134,488,c),
(315,579,o),
(437,690,o),
(532,827,c)
);
},
{
closed = 1;
nodes = (
(710,758,l),
(710,736,l),
(610,515,o),
(328,362,o),
(17,300,c),
(44,268,o),
(77,206,o),
(92,166,c),
(429,247,o),
(727,416,o),
(864,706,c),
(762,765,l),
(738,758,l)
);
},
{
closed = 1;
nodes = (
(201,539,l),
(264,488,o),
(349,415,o),
(386,368,c),
(508,461,l),
(465,509,o),
(377,577,o),
(315,622,c)
);
},
{
closed = 1;
nodes = (
(743,373,l),
(743,-95,l),
(894,-95,l),
(894,373,l)
);
},
{
closed = 1;
nodes = (
(436,373,l),
(399,373,l),
(290,268,l),
(290,-94,l),
(436,-94,l),
(436,242,l),
(779,242,l),
(779,373,l)
);
}
);
vertWidth = 1000;
width = 1000;
}
);
note = cid11955;
unicode = 21517;
}
{
glyphname = uni5419;
layers = (
{
layerId = m01;
shapes = (
{
closed = 1;
nodes = (
(85,721,l),
(85,113,l),
(114,113,l),
(114,721,l)
);
},
{
closed = 1;
nodes = (
(99,721,l),
(99,692,l),
(316,692,l),
(316,247,l),
(99,247,l),
(99,218,l),
(345,218,l),
(345,721,l)
);
},
{
closed = 1;
nodes = (
(467,608,l),
(454,511,o),
(424,403,o),
(375,342,c),
(401,327,l),
(452,393,o),
(480,506,o),
(493,603,c)
);
},
{
closed = 1;
nodes = (
(910,621,l),
(883,543,o),
(832,429,o),
(792,361,c),
(817,348,l),
(857,417,o),
(904,524,o),
(939,608,c)
);
},
{
closed = 1;
nodes = (
(640,819,l),
(640,449,ls),
(640,375,o),
(598,89,o),
(317,-48,c),
(324,-53,o),
(332,-63,o),
(336,-69,c),
(574,50,o),
(643,263,o),
(654,356,c),
(665,265,o),
(727,44,o),
(940,-69,c),
(945,-62,o),
(955,-51,o),
(961,-45,c),
(706,87,o),
(669,380,o),
(669,449,cs),
(669,819,l)
);
}
);
vertWidth = 1000;
width = 1000;
},
{
layerId = "94DDBC6A-1627-4027-9125-871D02041BCD";
shapes = (
{
closed = 1;
nodes = (
(60,754,l),
(60,92,l),
(193,92,l),
(193,754,l)
);
},
{
closed = 1;
nodes = (
(128,754,l),
(128,620,l),
(251,620,l),
(251,312,l),
(128,312,l),
(128,178,l),
(388,178,l),
(388,754,l)
);
},
{
closed = 1;
nodes = (
(431,652,l),
(427,558,o),
(405,451,o),
(369,391,c),
(493,343,l),
(535,418,o),
(555,531,o),
(556,634,c)
);
},
{
closed = 1;
nodes = (
(834,662,l),
(818,578,o),
(785,469,o),
(755,398,c),
(880,366,l),
(911,432,o),
(948,532,o),
(980,630,c)
);
},
{
closed = 1;
nodes = (
(602,836,l),
(602,423,ls),
(602,316,o),
(517,138,o),
(320,37,c),
(348,4,o),
(389,-60,o),
(408,-96,c),
(554,-19,o),
(653,129,o),
(672,202,c),
(693,130,o),
(773,-19,o),
(903,-95,c),
(925,-55,o),
(961,7,o),
(992,44,c),
(815,150,o),
(746,318,o),
(746,423,cs),
(746,836,l)
);
}
);
vertWidth = 1000;
width = 1000;
}
);
note = cid11970;
unicode = 21529;
}
{
glyphname = uni5423;
layers = (
{
layerId = m01;
shapes = (
{
closed = 1;
nodes = (
(99,674,l),
(99,645,l),
(301,645,l),
(301,199,l),
(99,199,l),
(99,170,l),
(330,170,l),
(330,674,l)
);
},
{
closed = 1;
nodes = (
(85,674,l),
(85,65,l),
(114,65,l),
(114,674,l)
);
},
{
closed = 1;
nodes = (
(542,620,l),
(542,27,ls),
(542,-29,o),
(559,-42,o),
(622,-42,cs),
(675,-42,o),
(729,-42,o),
(782,-42,cs),
(841,-42,o),
(851,-9,o),
(855,104,c),
(846,106,o),
(835,111,o),
(826,118,c),
(823,10,o),
(817,-13,o),
(783,-13,cs),
(729,-13,o),
(675,-13,o),
(621,-13,cs),
(579,-13,o),
(571,-5,o),
(571,27,cs),
(571,620,l)
);
},
{
closed = 1;
nodes = (
(541,794,l),
(620,745,o),
(711,671,o),
(754,619,c),
(775,642,l),
(731,693,o),
(641,765,o),
(561,812,c)
);
},
{
closed = 1;
nodes = (
(445,455,l),
(438,339,o),
(419,200,o),
(369,121,c),
(397,108,l),
(447,189,o),
(464,333,o),
(472,450,c)
);
},
{
closed = 1;
nodes = (
(802,472,l),
(858,367,o),
(910,229,o),
(929,139,c),
(956,147,l),
(937,236,o),
(884,375,o),
(828,480,c)
);
}
);
vertWidth = 1000;
width = 1000;
},
{
layerId = "94DDBC6A-1627-4027-9125-871D02041BCD";
shapes = (
{
closed = 1;
nodes = (
(121,721,l),
(121,587,l),
(231,587,l),
(231,254,l),
(121,254,l),
(121,120,l),
(359,120,l),
(359,721,l)
);
},
{
closed = 1;
nodes = (
(60,721,l),
(60,46,l),
(186,46,l),
(186,721,l)
);
},
{
closed = 1;
nodes = (
(531,619,l),
(531,112,ls),
(531,-26,o),
(561,-70,o),
(675,-70,cs),
(708,-70,o),
(740,-70,o),
(773,-70,cs),
(874,-70,o),
(908,-11,o),
(920,165,c),
(883,174,o),
(825,199,o),
(794,223,c),
(790,89,o),
(785,61,o),
(759,61,cs),
(739,61,o),
(719,61,o),
(699,61,cs),
(674,61,o),
(671,67,o),
(671,111,cs),
(671,619,l)
);
},
{
closed = 1;
nodes = (
(533,765,l),
(601,716,o),
(682,643,o),
(716,592,c),
(820,688,l),
(781,740,o),
(696,807,o),
(629,851,c)
);
},
{
closed = 1;
nodes = (
(397,542,l),
(389,422,o),
(372,301,o),
(333,216,c),
(457,176,l),
(495,258,o),
(510,396,o),
(519,518,c)
);
},
{
closed = 1;
nodes = (
(760,536,l),
(805,437,o),
(844,305,o),
(854,219,c),
(987,263,l),
(973,350,o),
(932,477,o),
(883,576,c)
);
}
);
vertWidth = 1000;
width = 1000;
}
);
note = cid11986;
unicode = 21539;
}
{
glyphname = uni5437;
layers = (
{
layerId = m01;
shapes = (
{
closed = 1;
nodes = (
(395,659,l),
(395,630,l),
(823,630,l),
(823,342,l),
(852,342,l),
(852,659,l)
);
},
{
closed = 1;
nodes = (
(333,357,l),
(333,328,l),
(951,328,l),
(951,357,l)
);
},
{
closed = 1;
nodes = (
(599,831,l),
(599,500,ls),
(599,224,o),
(504,67,o),
(282,-51,c),
(289,-55,o),
(298,-66,o),
(301,-73,c),
(523,48,o),
(628,206,o),
(628,500,cs),
(628,831,l)
);
},
{
closed = 1;
nodes = (
(97,721,l),
(97,692,l),
(287,692,l),
(287,247,l),
(97,247,l),
(97,218,l),
(316,218,l),
(316,721,l)
);
},
{
closed = 1;
nodes = (
(85,721,l),
(85,131,l),
(114,131,l),
(114,721,l)
);
},
{
closed = 1;
nodes = (
(612,338,l),
(665,145,o),
(787,-11,o),
(929,-67,c),
(934,-59,o),
(943,-49,o),
(950,-43,c),
(810,11,o),
(690,161,o),
(639,345,c)
);
}
);
vertWidth = 1000;
width = 1000;
},
{
layerId = "94DDBC6A-1627-4027-9125-871D02041BCD";
shapes = (
{
closed = 1;
nodes = (
(412,708,l),
(412,574,l),
(764,574,l),
(764,344,l),
(906,344,l),
(906,708,l)
);
},
{
closed = 1;
nodes = (
(362,416,l),
(362,278,l),
(975,278,l),
(975,416,l)
);
},
{
closed = 1;
nodes = (
(546,855,l),
(546,470,ls),
(546,347,o),
(544,126,o),
(263,20,c),
(297,-8,o),
(342,-64,o),
(362,-95,c),
(627,27,o),
(690,236,o),
(690,469,cs),
(690,855,l)
);
},
{
closed = 1;
nodes = (
(116,756,l),
(116,627,l),
(220,627,l),
(220,307,l),
(116,307,l),
(116,178,l),
(340,178,l),
(340,756,l)
);
},
{
closed = 1;
nodes = (
(60,756,l),
(60,94,l),
(176,94,l),
(176,756,l)
);
},
{
closed = 1;
nodes = (
(608,300,l),
(637,122,o),
(745,-31,o),
(887,-97,c),
(908,-54,o),
(955,9,o),
(989,39,c),
(867,83,o),
(767,197,o),
(731,333,c)
);
}
);
vertWidth = 1000;
width = 1000;
}
);
note = cid12023;
unicode = 21559;
}
{
glyphname = uni546F;
layers = (
{
layerId = m01;
shapes = (
{
closed = 1;
nodes = (
(342,331,l),
(342,302,l),
(952,302,l),
(952,331,l)
);
},
{
closed = 1;
nodes = (
(380,771,l),
(380,742,l),
(920,742,l),
(920,771,l)
);
},
{
closed = 1;
nodes = (
(628,768,l),
(628,-70,l),
(657,-70,l),
(657,768,l)
);
},
{
closed = 1;
nodes = (
(494,665,l),
(468,568,o),
(422,474,o),
(368,409,c),
(375,405,o),
(387,394,o),
(391,388,c),
(446,457,o),
(494,557,o),
(524,660,c)
);
},
{
closed = 1;
nodes = (
(758,657,l),
(813,573,o),
(867,460,o),
(887,387,c),
(915,398,l),
(894,470,o),
(839,582,o),
(783,666,c)
);
},
{
closed = 1;
nodes = (
(93,712,l),
(93,683,l),
(295,683,l),
(295,238,l),
(93,238,l),
(93,209,l),
(324,209,l),
(324,712,l)
);
},
{
closed = 1;
nodes = (
(79,712,l),
(79,104,l),
(108,104,l),
(108,712,l)
);
}
);
vertWidth = 1000;
width = 1000;
},
{
layerId = "94DDBC6A-1627-4027-9125-871D02041BCD";
shapes = (
{
closed = 1;
nodes = (
(371,385,l),
(371,248,l),
(966,248,l),
(966,385,l)
);
},
{
closed = 1;
nodes = (
(392,814,l),
(392,679,l),
(942,679,l),
(942,814,l)
);
},
{
closed = 1;
nodes = (
(595,778,l),
(595,-95,l),
(739,-95,l),
(739,778,l)
);
},
{
closed = 1;
nodes = (
(454,666,l),
(439,587,o),
(410,501,o),
(371,448,c),
(404,434,o),
(464,405,o),
(493,385,c),
(532,446,o),
(569,544,o),
(589,638,c)
);
},
{
closed = 1;
nodes = (
(744,628,l),
(784,556,o),
(821,458,o),
(833,395,c),
(959,444,l),
(944,508,o),
(905,601,o),
(862,671,c)
);
},
{
closed = 1;
nodes = (
(121,740,l),
(121,606,l),
(232,606,l),
(232,298,l),
(121,298,l),
(121,164,l),
(358,164,l),
(358,740,l)
);
},
{
closed = 1;
nodes = (
(60,740,l),
(60,78,l),
(186,78,l),
(186,740,l)
);
}
);
vertWidth = 1000;
width = 1000;
}
);
note = cid12103;
unicode = 21615;
}
{
glyphname = uni5482;
layers = (
{
layerId = m01;
shapes = (
{
closed = 1;
nodes = (
(658,682,l),
(658,73,l),
(687,73,l),
(687,682,l)
);
},
{
closed = 1;
nodes = (
(833,560,l),
(833,235,ls),
(833,225,o),
(830,223,o),
(820,222,cs),
(810,221,o),
(776,221,o),
(734,222,c),
(739,214,o),
(744,204,o),
(746,197,c),
(798,197,o),
(827,197,o),
(842,202,cs),
(857,207,o),
(862,217,o),
(862,235,cs),
(862,560,l)
);
},
{
closed = 1;
nodes = (
(483,560,l),
(483,190,l),
(512,190,l),
(512,531,l),
(847,531,l),
(847,560,l)
);
},
{
closed = 1;
nodes = (
(364,766,l),
(364,-71,l),
(393,-71,l),
(393,737,l),
(943,737,l),
(943,766,l)
);
},
{
closed = 1;
nodes = (
(378,14,l),
(378,-15,l),
(949,-15,l),
(949,14,l)
);
},
{
closed = 1;
nodes = (
(99,700,l),
(99,671,l),
(260,671,l),
(260,226,l),
(99,226,l),
(99,197,l),
(289,197,l),
(289,700,l)
);
},
{
closed = 1;
nodes = (
(85,700,l),
(85,113,l),
(114,113,l),
(114,700,l)
);
}
);
vertWidth = 1000;
width = 1000;
},
{
layerId = "94DDBC6A-1627-4027-9125-871D02041BCD";
shapes = (
{
closed = 1;
nodes = (
(668,663,l),
(668,77,l),
(789,77,l),
(789,663,l)
);
},
{
closed = 1;
nodes = (
(821,584,l),
(821,292,ls),
(821,284,o),
(819,282,o),
(813,282,cs),
(808,282,o),
(795,282,o),
(783,283,c),
(799,252,o),
(814,204,o),
(817,171,c),
(854,171,o),
(882,173,o),
(908,193,cs),
(935,212,o),
(940,244,o),
(940,289,cs),
(940,584,l)
);
},
{
closed = 1;
nodes = (
(527,584,l),
(527,170,l),
(636,170,l),
(636,461,l),
(868,461,l),
(868,584,l)
);
},
{
closed = 1;
nodes = (
(364,814,l),
(364,-96,l),
(495,-96,l),
(495,683,l),
(967,683,l),
(967,814,l)
);
},
{
closed = 1;
nodes = (
(420,57,l),
(420,-74,l),
(970,-74,l),
(970,57,l)
);
},
{
closed = 1;
nodes = (
(104,756,l),
(104,627,l),
(208,627,l),
(208,307,l),
(104,307,l),
(104,178,l),
(332,178,l),
(332,756,l)
);
},
{
closed = 1;
nodes = (
(56,756,l),
(56,99,l),
(176,99,l),
(176,756,l)
);
}
);
vertWidth = 1000;
width = 1000;
}
);
note = cid12131;
unicode = 21634;
}
{
glyphname = uni5494;
layers = (
{
layerId = m01;
shapes = (
{
closed = 1;
nodes = (
(371,424,l),
(371,395,l),
(949,395,l),
(949,424,l)
);
},
{
closed = 1;
nodes = (
(616,819,l),
(616,-72,l),
(645,-72,l),
(645,819,l)
);
},
{
closed = 1;
nodes = (
(630,643,l),
(630,614,l),
(895,614,l),
(895,643,l)
);
},
{
closed = 1;
nodes = (
(644,272,l),
(733,232,o),
(834,166,o),
(885,116,c),
(901,141,l),
(851,189,o),
(749,252,o),
(660,293,c)
);
},
{
closed = 1;
nodes = (
(98,707,l),
(98,678,l),
(318,678,l),
(318,208,l),
(98,208,l),
(98,179,l),
(347,179,l),
(347,707,l)
);
},
{
closed = 1;
nodes = (
(84,707,l),
(84,99,l),
(113,99,l),
(113,707,l)
);
}
);
vertWidth = 1000;
width = 1000;
},
{
layerId = "94DDBC6A-1627-4027-9125-871D02041BCD";
shapes = (
{
closed = 1;
nodes = (
(388,471,l),
(388,336,l),
(974,336,l),
(974,471,l)
);
},
{
closed = 1;
nodes = (
(570,852,l),
(570,-93,l),
(711,-93,l),
(711,852,l)
);
},
{
closed = 1;
nodes = (
(641,722,l),
(641,592,l),
(929,592,l),
(929,722,l)
);
},
{
closed = 1;
nodes = (
(686,218,l),
(750,171,o),
(823,103,o),
(855,55,c),
(963,145,l),
(927,194,o),
(848,258,o),
(786,300,c)
);
},
{
closed = 1;
nodes = (
(119,734,l),
(119,603,l),
(255,603,l),
(255,273,l),
(119,273,l),
(119,141,l),
(380,141,l),
(380,734,l)
);
},
{
closed = 1;
nodes = (
(60,734,l),
(60,63,l),
(184,63,l),
(184,734,l)
);
}
);
vertWidth = 1000;
width = 1000;
}
);
note = cid12156;
unicode = 21652;
}
{
glyphname = uni549A;
layers = (
{
layerId = m01;
shapes = (
{
closed = 1;
nodes = (
(819,717,l),
(819,709,l),
(735,512,o),
(530,374,o),
(327,305,c),
(334,300,o),
(343,288,o),
(348,280,c),
(552,355,o),
(760,495,o),
(852,707,c),
(834,719,l),
(827,717,l)
);
},
{
closed = 1;
nodes = (
(84,687,l),
(84,96,l),
(113,96,l),
(113,687,l)
);
},
{
closed = 1;
nodes = (
(98,687,l),
(98,658,l),
(281,658,l),
(281,213,l),
(98,213,l),
(98,183,l),
(310,183,l),
(310,687,l)
);
},
{
closed = 1;
nodes = (
(438,-42,l),
(556,-7,o),
(720,44,o),
(874,93,c),
(869,120,l),
(705,70,o),
(534,18,o),
(424,-13,c)
);
},
{
closed = 1;
nodes = (
(534,293,l),
(605,257,o),
(692,204,o),
(737,168,c),
(758,192,l),
(711,227,o),
(624,278,o),
(554,312,c)
);
},
{
closed = 1;
nodes = (
(562,842,l),
(520,715,o),
(437,590,o),
(346,518,c),
(355,513,o),
(368,502,o),
(373,497,c),
(464,576,o),
(548,705,o),
(591,833,c)
);
},
{
closed = 1;
nodes = (
(483,661,l),
(553,525,o),
(715,357,o),
(941,274,c),
(945,282,o),
(953,293,o),
(960,299,c),
(734,377,o),
(571,545,o),
(502,684,c)
);
},
{
closed = 1;
nodes = (
(518,717,l),
(518,687,l),
(831,687,l),
(831,717,l)
);
}
);
width = 1000;
},
{
layerId = "94DDBC6A-1627-4027-9125-871D02041BCD";
shapes = (
{
closed = 1;
nodes = (
(792,765,l),
(792,740,l),
(722,559,o),
(538,427,o),
(323,365,c),
(350,339,o),
(391,276,o),
(406,241,c),
(632,320,o),
(837,481,o),
(934,719,c),
(844,770,l),
(820,765,l)
);
},
{
closed = 1;
nodes = (
(56,738,l),
(56,75,l),
(182,75,l),
(182,738,l)
);
},
{
closed = 1;
nodes = (
(132,738,l),
(132,605,l),
(223,605,l),
(223,292,l),
(132,292,l),
(132,159,l),
(349,159,l),
(349,738,l)
);
},
{
closed = 1;
nodes = (
(478,-75,l),
(607,-46,o),
(776,-7,o),
(917,27,c),
(901,156,l),
(756,124,o),
(571,86,o),
(420,57,c)
);
},
{
closed = 1;
nodes = (
(524,234,l),
(583,201,o),
(666,151,o),
(705,119,c),
(789,223,l),
(746,254,o),
(661,299,o),
(604,327,c)
);
},
{
closed = 1;
nodes = (
(547,869,l),
(498,749,o),
(409,634,o),
(310,565,c),
(342,543,o),
(398,495,o),
(422,469,c),
(522,552,o),
(623,688,o),
(685,829,c)
);
},
{
closed = 1;
nodes = (
(435,636,l),
(515,489,o),
(677,323,o),
(900,246,c),
(920,284,o),
(964,343,o),
(994,372,c),
(774,429,o),
(612,569,o),
(540,696,c)
);
},
{
closed = 1;
nodes = (
(515,769,l),
(515,646,l),
(835,642,l),
(835,765,l)
);
}
);
width = 1000;
}
);
note = cid12165;
unicode = 21658;
}
{
glyphname = uni54A3;
layers = (
{
layerId = m01;
shapes = (
{
closed = 1;
nodes = (
(99,700,l),
(99,671,l),
(287,671,l),
(287,226,l),
(99,226,l),
(99,197,l),
(316,197,l),
(316,700,l)
);
},
{
closed = 1;
nodes = (
(85,700,l),
(85,110,l),
(114,110,l),
(114,700,l)
);
},
{
closed = 1;
nodes = (
(616,830,l),
(616,422,l),
(645,422,l),
(645,830,l)
);
},
{
closed = 1;
nodes = (
(350,437,l),
(350,408,l),
(946,408,l),
(946,437,l)
);
},
{
closed = 1;
nodes = (
(414,724,l),
(443,653,o),
(467,562,o),
(473,503,c),
(502,509,l),
(495,569,o),
(471,660,o),
(442,729,c)
);
},
{
closed = 1;
nodes = (
(818,731,l),
(800,665,o),
(765,564,o),
(739,505,c),
(763,494,l),
(791,553,o),
(824,648,o),
(847,720,c)
);
},
{
closed = 1;
nodes = (
(698,423,l),
(698,15,ls),
(698,-33,o),
(713,-43,o),
(763,-43,cs),
(801,-43,o),
(840,-43,o),
(878,-43,cs),
(930,-43,o),
(938,-10,o),
(942,124,c),
(933,127,o),
(922,132,o),
(913,139,c),
(911,8,o),
(906,-14,o),
(876,-14,cs),
(839,-14,o),
(801,-14,o),
(764,-14,cs),
(733,-14,o),
(727,-9,o),
(727,15,cs),
(727,423,l)
);
},
{
closed = 1;
nodes = (
(519,423,l),
(519,341,ls),
(519,221,o),
(501,68,o),
(272,-47,c),
(279,-53,o),
(289,-62,o),
(293,-69,c),
(527,51,o),
(548,210,o),
(548,341,cs),
(548,423,l)
);
}
);
vertWidth = 1000;
width = 1000;
},
{
layerId = "94DDBC6A-1627-4027-9125-871D02041BCD";
name = Heavy;
shapes = (
{
closed = 1;
nodes = (
(116,717,l),
(116,588,l),
(220,588,l),
(220,268,l),
(116,268,l),
(116,139,l),
(340,139,l),
(340,717,l)
);
},
{
closed = 1;
nodes = (
(60,717,l),
(60,55,l),
(176,55,l),
(176,717,l)
);
},
{
closed = 1;
nodes = (
(571,856,l),
(571,424,l),
(703,424,l),
(703,856,l)
);
},
{
closed = 1;
nodes = (
(361,491,l),
(361,357,l),
(960,357,l),
(960,491,l)
);
},
{
closed = 1;
nodes = (
(362,752,l),
(387,678,o),
(407,580,o),
(409,516,c),
(541,553,l),
(536,617,o),
(514,712,o),
(486,786,c)
);
},
{
closed = 1;
nodes = (
(788,783,l),
(779,710,o),
(757,610,o),
(737,545,c),
(851,515,l),
(875,575,o),
(904,668,o),
(930,753,c)
);
},
{
closed = 1;
nodes = (
(657,424,l),
(657,94,ls),
(657,-26,o),
(680,-66,o),
(781,-66,cs),
(804,-66,o),
(827,-66,o),
(850,-66,cs),
(933,-66,o),
(965,-18,o),
(976,144,c),
(941,153,o),
(886,175,o),
(860,197,c),
(857,76,o),
(853,55,o),
(836,55,cs),
(826,55,o),
(815,55,o),
(805,55,cs),
(790,55,o),
(788,59,o),
(788,95,cs),
(788,424,l)
);
},
{
closed = 1;
nodes = (
(451,424,l),
(451,296,ls),
(451,197,o),
(428,82,o),
(252,10,c),
(280,-13,o),
(321,-64,o),
(338,-95,c),
(552,-2,o),
(582,156,o),
(582,293,cs),
(582,424,l)
);
}
);
vertWidth = 1000;
width = 1000;
}
);
note = cid12175;
unicode = 21667;
}
